<ttFont>
          <CharString index="0">
            -62 callsubr
            12 vvcurveto
            22 -17 27 -23 -4 -4 -1 -1 -77 callgsubr
            -12 -13 vvcurveto
            -22 18 -27 22 5 4 2 2 5 vhcurveto
            return
          </CharString>
          <CharString index="1">
            91 hmoveto
            22 17 7 19 5 hvcurveto
            38 133 rlineto
            229 hlineto
            38 -133 rlineto
            -19 5 17 -7 22 hhcurveto
            35 47 23 31 3 -1 3 -1 4 hvcurveto
            -193 629 rlineto
            30 -9 -37 14 -38 hhcurveto
            -37 -37 -14 -30 -9 hvcurveto
            -193 -629 rlineto
            -1 -4 -1 -4 -2 vvcurveto
            -32 47 -22 35 vhcurveto
            109 261 rmoveto
            87 307 87 -307 rlineto
            return
          </CharString>
          <CharString index="2">
            rmoveto
            -15 -14 -7 -14 -7 hvcurveto
            -360 -729 rlineto
            -2 -5 -2 -6 -6 vvcurveto
            -21 19 -23 28 17 16 8 14 6 vhcurveto
            360 726 rlineto
            3 6 1 6 6 vvcurveto
            27 -27 18 -23 vhcurveto
            return
          </CharString>
          <CharString index="3">
            118 98 95 108 hvcurveto
            241 vlineto
            21 -26 19 -38 -35 -30 -19 -21 vhcurveto
            -241 vlineto
            -46 -38 -44 -49 -49 -39 45 45 vhcurveto
            240 vlineto
            20 -30 21 -34 -36 -29 -21 -20 vhcurveto
            -240 vlineto
            -107 98 -96 119 vhcurveto
            return
          </CharString>
          <CharString index="4">
            22 18 27 22 13 -5 12 -12 6 hvcurveto
            -132 64 rlineto
            1 -5 -4 1 -4 hhcurveto
            -23 -17 -27 -22 -12 5 -12 13 -6 hvcurveto
            endchar
          </CharString>
          <CharString index="5">
            rmoveto
            1 3 1 5 4 vvcurveto
            29 -46 23 -37 -20 -18 -7 -19 -5 vhcurveto
            -158 -542 -85 348 rlineto
            25 -6 -29 11 -28 hhcurveto
            -29 -29 -11 -25 -6 hvcurveto
            -85 -348 -158 542 rlineto
            19 -5 -18 7 -20 hhcurveto
            -37 -46 -23 -29 -4 1 -5 1 -3 hvcurveto
            198 -629 rlineto
            -30 9 38 -14 38 hhcurveto
            37 39 14 30 7 hvcurveto
            65 270 64 -270 rlineto
            -30 7 39 -14 37 hhcurveto
            38 37 14 30 10 hvcurveto
            return
          </CharString>
          <CharString index="6">
            -53 callsubr
            116 101 98 107 vhcurveto
            15 callgsubr
            -101 92 -116 vhcurveto
            -79 callgsubr
            -64 callsubr
            return
          </CharString>
          <CharString index="7">
            -30 -27 -38 -66 hhcurveto
            -70 -47 38 58 hvcurveto
            15 203 vlineto
            45 48 4 85 111 -96 77 -110 hvcurveto
            -90 -201 rmoveto
            28 vlineto
            48 42 30 45 48 40 -32 -47 -22 -8 -5 -21 vhcurveto
            return
          </CharString>
          <CharString index="8">
            222 -49 callgsubr
            252 vlineto
            5 2 5 2 3 vhcurveto
            206 358 rlineto
            3 5 0 5 3 vvcurveto
            32 -51 22 -35 -21 -9 -9 -17 -9 vhcurveto
            -153 -289 -152 289 rlineto
            18 -9 -10 8 -21 hhcurveto
            -35 -51 -22 -32 -3 1 -5 2 -5 hvcurveto
            207 -358 rlineto
            2 -3 1 -5 -5 vvcurveto
            return
          </CharString>
          <CharString index="9">
            rmoveto
            5 5 2 6 6 vvcurveto
            17 -19 21 -19 -7 -7 -2 -6 -5 vhcurveto
            -84 -88 rlineto
            -5 -5 -2 -5 -6 vvcurveto
            -18 20 -20 20 9 4 2 7 6 vhcurveto
            239 86 rmoveto
            5 5 2 6 6 vvcurveto
            17 -19 21 -19 -7 -6 -2 -6 -6 vhcurveto
            -84 -88 rlineto
            -5 -5 -2 -5 -6 vvcurveto
            -18 20 -20 20 9 4 2 7 6 vhcurveto
            return
          </CharString>
          <CharString index="10">
            116 82 71 96 hvcurveto
            21 vlineto
            37 -12 34 -23 27 vhcurveto
            15 19 19 10 13 9 rrcurveto
            9 7 7 9 12 vvcurveto
            16 -18 24 -33 -18 -20 -15 -53 -23 vhcurveto
            18 -30 -40 11 -44 hhcurveto
            -117 -78 -68 -97 hvcurveto
            -21 vlineto
            -52 23 -45 39 -30 vhcurveto
            -30 -20 -21 -21 -37 vvcurveto
            -33 17 -19 25 -12 vhcurveto
            return
          </CharString>
          <CharString index="11">
            rmoveto
            -31 1 29 -10 35 hhcurveto
            43 22 12 50 120 -101 72 -138 -127 -103 -18 callsubr
            -47 callgsubr
            102 -62 132 132 103 62 167 vhcurveto
            119 vlineto
            22 -15 20 -26 vhcurveto
            -170 hlineto
            -26 -14 -26 -25 -26 14 -25 26 hvcurveto
            81 -59 hlineto
            -78 -40 -37 -65 -66 -38 37 78 vhcurveto
            -33 callsubr
            78 38 37 67 85 16 -52 -47 3 vhcurveto
            return
          </CharString>
          <CharString index="12">
            -25 16 -17 24 vhcurveto
            205 hlineto
            21 20 17 25 24 -20 19 -21 hvcurveto
            -205 hlineto
            -24 -16 -19 -24 hvcurveto
            return
          </CharString>
          <CharString index="13">
            -107 callgsubr
            endchar
          </CharString>
          <CharString index="14">
            407 223 -103 callgsubr
            return
          </CharString>
          <CharString index="15">
            vhcurveto
            468 -99 callgsubr
            return
          </CharString>
          <CharString index="16">
            50 26 -29 66 hhcurveto
            22 63 6 62 10 -7 32 -26 hvcurveto
            -21 -17 -24 -43 hhcurveto
            return
          </CharString>
          <CharString index="17">
            -32 -31 31 44 hvcurveto
            -70 hlineto
            -71 64 -62 69 68 65 62 71 vhcurveto
            endchar
          </CharString>
          <CharString index="18">
            -122 -97 -92 -108 hvcurveto
            -85 vlineto
            -123 100 -82 142 107 69 49 34 20 -19 37 -30 vhcurveto
            return
          </CharString>
          <CharString index="19">
            84 23 -38 31 hhcurveto
            36 16 46 23 66 -131 14 -59 -115 -128 -51 -149 hvcurveto
            -237 321 46 -150 vvcurveto
            -60 -52 -27 -60 vhcurveto
            endchar
          </CharString>
          <CharString index="20">
            rmoveto
            10 17 5 16 14 vvcurveto
            20 -13 15 -26 vhcurveto
            -380 hlineto
            -28 -12 -29 -28 -30 14 -27 26 hvcurveto
            253 hlineto
            -297 -536 rlineto
            -9 -15 -5 -17 -13 vvcurveto
            -21 12 -15 27 vhcurveto
            415 hlineto
            26 15 30 27 27 -15 30 -26 hvcurveto
            -288 hlineto
            return
          </CharString>
          <CharString index="21">
            -84 callgsubr
            12 6 vhcurveto
            49 115 -69 callsubr
            return
          </CharString>
          <CharString index="22">
            55 31 -29 24 hhcurveto
            30 17 44 18 37 -78 28 -81 -134 -45 -78 -71 hvcurveto
            -167 237 55 -88 vvcurveto
            -20 -14 -23 -59 vhcurveto
            endchar
          </CharString>
          <CharString index="23">
            81 vhcurveto
            57 129 rmoveto
            -37 -22 -17 -35 -35 -21 17 37 vhcurveto
            145 vlineto
            37 21 17 35 35 22 -17 -37 vhcurveto
            return
          </CharString>
          <CharString index="24">
            -54 -43 -48 -51 -53 45 -48 52 52 47 48 53 52 -46 47 -53 hvcurveto
            45 -100 rmoveto
            -24 -19 -24 -25 -26 -21 25 23 22 21 23 26 25 19 -22 -23 vhcurveto
            return
          </CharString>
          <CharString index="25">
            190 617 -102 callgsubr
            return
          </CharString>
          <CharString index="26">
            -84 -22 45 -29 hhcurveto
            -25 -18 -36 -21 -44 79 -42 102 118 66 57 89 hvcurveto
            178 -240 -50 73 vvcurveto
            20 20 25 50 vhcurveto
            return
          </CharString>
          <CharString index="27">
            -102 -27 77 -41 hhcurveto
            -31 -26 -42 -28 -58 100 -66 131 138 100 74 143 hvcurveto
            259 -321 -43 124 vvcurveto
            return
          </CharString>
          <CharString index="28">
            rmoveto
            -18 22 -9 22 21 22 9 18 vhcurveto
            347 vlineto
            17 -21 11 -18 -6 -5 -2 4 callsubr
            -76 -44 rlineto
            return
          </CharString>
          <CharString index="29">
            -38 -26 -20 callsubr
            -55 callsubr
            671 12 callsubr
            -35 vhcurveto
            return
          </CharString>
          <CharString index="30">
            -39 -29 -31 -37 -36 29 -32 39 36 31 32 36 37 -31 31 -36 hvcurveto
            return
          </CharString>
          <CharString index="31">
            -11 callgsubr
            -51 22 -48 35 -37 vhcurveto
            -34 -49 rlineto
            -3 -5 -3 -6 -5 vvcurveto
            -15 15 -12 13 6 7 3 6 4 vhcurveto
            35 50 rlineto
            -23 35 41 -13 44 hhcurveto
            116 101 98 107 hvcurveto
            82 vlineto
            53 -23 48 -37 37 vhcurveto
            33 46 rlineto
            4 6 3 6 7 vvcurveto
            15 -14 14 -16 -7 -7 -3 -9 -6 vhcurveto
            -34 -48 rlineto
            20 -33 -39 11 -41 hhcurveto
            return
          </CharString>
          <CharString index="32">
            hvcurveto
            145 vlineto
            94 -62 35 -80 -81 -62 -35 -94 vhcurveto
            -145 vlineto
            return
          </CharString>
          <CharString index="33">
            28 13 27 23 27 -15 25 -26 hvcurveto
            return
          </CharString>
          <CharString index="34">
            -34 callgsubr
            320 -57 callgsubr
            -320 -48 callsubr
          </CharString>
          <CharString index="35">
            vvcurveto
            -53 40 -37 77 24 5 12 14 13 -6 16 -17 vhcurveto
            return
          </CharString>
          <CharString index="36">
            0 -69 callgsubr
            return
          </CharString>
          <CharString index="37">
            -107 callsubr
            endchar
          </CharString>
          <CharString index="38">
            6 19 13 vvcurveto
            36 -31 31 -37 vhcurveto
            return
          </CharString>
          <CharString index="39">
            rmoveto
            -2 5 4 -2 5 hhcurveto
            return
          </CharString>
          <CharString index="40">
            -38 -58 vlineto
            108 194 rlineto
            2 3 1 4 4 vvcurveto
            19 -28 13 -15 -13 -14 -7 -15 -9 vhcurveto
            -138 -248 rlineto
            -3 -6 -1 -6 -4 vvcurveto
            return
          </CharString>
          <CharString index="41">
            95 -21 406 -20 hstem
            167 277 rmoveto
            67 126 rlineto
            2 3 1 5 4 vvcurveto
            27 -38 38 -42 -17 -14 -6 -11 -6 vhcurveto
            -73 -136 rlineto
            -13 -25 -10 -10 -16 vvcurveto
            -15 10 -9 13 -25 vhcurveto
            73 -136 rlineto
            -11 6 13 -6 17 hhcurveto
            43 38 38 27 4 -1 5 -2 4 hvcurveto
            return
          </CharString>
          <CharString index="42">
            -41 -21 -32 -34 -51 vvcurveto
            -90 103 -51 118 112 106 46 111 vhcurveto
            return
          </CharString>
          <CharString index="43">
            45 39 45 49 48 6 callsubr
            return
          </CharString>
          <CharString index="44">
            -30 -28 -38 -66 hhcurveto
            -68 -48 38 58 hvcurveto
            15 202 vlineto
            52 42 6 80 120 -100 71 -107 hvcurveto
            -89 -201 rmoveto
            28 vlineto
            48 41 30 46 48 40 -32 -48 -20 -7 -6 -22 vhcurveto
            -276 -97 rmoveto
            -49 -49 -47 -42 -30 -23 17 36 57 62 7 67 vhcurveto
            15 hlineto
            endchar
          </CharString>
          <CharString index="45">
            13 6 5 12 return
          </CharString>
          <CharString index="46">
            -244 577 hlineto
            -100 callgsubr
            -650 vlineto
            -27 28 -14 29 vhcurveto
            return
          </CharString>
          <CharString index="47">
            -27 -22 -22 -34 -26 13 -27 54 100 51 78 111 hvcurveto
            return
          </CharString>
          <CharString index="48">
            rmoveto
            7 72 rlineto
            130 hlineto
            18 8 19 19 19 -8 18 -18 hvcurveto
            -185 hlineto
            -10 -5 -10 -16 -2 hvcurveto
            -14 -135 rlineto
            -1 -8 0 -5 -6 vvcurveto
            -20 7 -14 26 vhcurveto
            89 hlineto
            34 22 -17 -35 hvcurveto
            -11 vlineto
            -36 -22 -15 -36 -33 -21 12 21 vhcurveto
            return
          </CharString>
          <CharString index="49">
            -22 -9 102 -102 140 73 76 106 95 return
          </CharString>
          <CharString index="50">
            147 -573 hlineto
            -93 callgsubr
            573 146 vlineto
            26 15 28 31 28 -13 30 -28 hvcurveto
            endchar
          </CharString>
          <CharString index="51">
            rmoveto
            24 23 26 31 30 -23 26 -24 hvcurveto
            -31 hlineto
            -55 -48 -44 -43 -20 hvcurveto
            41 vlineto
            return
          </CharString>
          <CharString index="52">
            -671 vlineto
            -17 callgsubr
            38 -28 callgsubr
            return
          </CharString>
          <CharString index="53">
            30 21 11 26 35 14 -21 -17 vhcurveto
            -69 -188 -50 -85 vvcurveto
            -54 vlineto
            -16 22 -10 16 vhcurveto
            210 hlineto
            14 12 18 20 20 -12 17 -14 hvcurveto
            -158 9 hlineto
            48 184 39 115 vvcurveto
            74 -67 40 -69 -67 -64 -38 -67 vhcurveto
            return
          </CharString>
          <CharString index="54">
            -73 callgsubr
            -108 100 -97 117 return
          </CharString>
          <CharString index="55">
            rmoveto
            -47 -40 -45 -48 -20 -17 7 11 -15 vhcurveto
            133 187 rlineto
            4 -10 3 -11 -10 vvcurveto
            -176 -82 rmoveto
            82 vlineto
            45 39 45 49 17 15 -6 -9 14 vhcurveto
            -130 -185 rlineto
            -3 9 -1 9 10 vvcurveto
            endchar
          </CharString>
          <CharString index="56">
            117 -117 194 402 149 -111 111 return
          </CharString>
          <CharString index="57">
            -21 368 113 return
          </CharString>
          <CharString index="58">
            21 -8 7 -36 -30 -10 -6 -25 -45 39 -58 99 81 65 34 89 vhcurveto
            11 vlineto
            44 -24 24 -36 12 vhcurveto
            return
          </CharString>
          <CharString index="59">
            hlineto
            -24 -16 -24 -30 hvcurveto
            endchar
          </CharString>
          <CharString index="60">
            440 -105 callsubr
            return
          </CharString>
          <CharString index="61">
            rmoveto
            37 30 31 37 26 -15 23 -22 12 hvcurveto
            24 53 rlineto
            2 6 1 4 4 vvcurveto
            22 -25 12 -18 -9 -12 -45 callsubr
            endchar
          </CharString>
          <CharString index="62">
            -4 -12 -5 vhcurveto
            -50 -115 -6 -19 -13 vvcurveto
            -36 31 -31 37 vhcurveto
            return
          </CharString>
          <CharString index="63">
            26 13 29 28 29 -13 28 -26 hvcurveto
            return
          </CharString>
          <CharString index="64">
            -83 callgsubr
            12 5 vhcurveto
            50 115 -69 callsubr
            endchar
          </CharString>
          <CharString index="65">
            rmoveto
            hintmask 11110100
            -104 callgsubr
            endchar
          </CharString>
          <CharString index="66">
            88 -6 2 callgsubr
            -20 return
          </CharString>
          <CharString index="67">
            23 14 32 76 hhcurveto
            66 22 -49 -43 hvcurveto
            -14 -40 vlineto
            -138 -95 -32 -116 -90 71 -42 82 62 66 36 60 47 hvcurveto
            -61 41 66 -35 78 hhcurveto
            103 75 47 36 hvcurveto
            return
          </CharString>
          <CharString index="68">
            -188 -177 rlineto
            419 12 callsubr
            -36 -37 -26 -16 -24 vhcurveto
            -671 5 callgsubr
            return
          </CharString>
          <CharString index="69">
            rmoveto
            -70 callsubr
          </CharString>
          <CharString index="70">
            rmoveto
            -36 -27 -20 callsubr
            -467 vlineto
            -46 -4 -34 -36 vhcurveto
            return
          </CharString>
          <CharString index="71">
            rmoveto
            -75 -54 -29 -69 -45 24 -27 34 -11 hvcurveto
            return
          </CharString>
          <CharString index="72">
            21 -31 callgsubr
            return
          </CharString>
          <CharString index="73">
            -21 callgsubr
            -20 return
          </CharString>
          <CharString index="74">
            279 vlineto
            return
          </CharString>
          <CharString index="75">
            -21 159 102 476 -20 return
          </CharString>
          <CharString index="76">
            -46 callgsubr
            vstem
            return
          </CharString>
          <CharString index="77">
            hstemhm
            -8 callsubr
            return
          </CharString>
          <CharString index="78">
            -77 callsubr
            endchar
          </CharString>
          <CharString index="79">
            21 20 vhcurveto
            return
          </CharString>
          <CharString index="80">
            -26 1 callgsubr
            -17 callgsubr
            return
          </CharString>
          <CharString index="81">
            vhcurveto
            145 vlineto
            94 -63 35 -80 -80 -62 -35 -93 vhcurveto
            -6 vlineto
            -88 56 -27 67 vhcurveto
            76 116 rmoveto
            -36 -23 -14 -33 -36 -21 15 39 vhcurveto
            return
          </CharString>
          <CharString index="82">
            38 358 rmoveto
            -217 163 -106 141 139 171 104 223 217 -163 106 -141 -139 -171 -104 -223 vhcurveto
            return
          </CharString>
          <CharString index="83">
            rmoveto
            7 7 4 8 9 vvcurveto
            29 -35 33 -28 -10 -9 -4 -6 -7 vhcurveto
            return
          </CharString>
          <CharString index="84">
            86 -72 72 113 72 -72 86 return
          </CharString>
          <CharString index="85">
            hstemhm
            -4 callsubr
            return
          </CharString>
          <CharString index="86">
            vstem
            123 752 rmoveto
            -78 callsubr
            return
          </CharString>
          <CharString index="87">
            -16 -24 hvcurveto
            return
          </CharString>
          <CharString index="88">
            rmoveto
            -157 -102 -108 -146 -148 -94 110 151 157 102 108 146 147 95 -110 -151 vhcurveto
            return
          </CharString>
          <CharString index="89">
            -20 callgsubr
            hvcurveto
            return
          </CharString>
          <CharString index="90">
            hvcurveto
            -493 vlineto
            -24 27 -16 36 35 31 16 24 vhcurveto
            341 102 vlineto
            22 12 23 24 23 -12 24 -22 hvcurveto
            -102 63 hlineto
            return
          </CharString>
          <CharString index="91">
            44 -6 114 369 -20 160 114 return
          </CharString>
          <CharString index="92">
            -5 -8 callgsubr
            return
          </CharString>
          <CharString index="93">
            vlineto
            -167 return
          </CharString>
          <CharString index="94">
            -32 -42 -24 -3 -25 -1 vhcurveto
            return
          </CharString>
          <CharString index="95">
            18 -6 14 -38 -27 -15 -8 -31 -50 49 -51 94 78 63 35 91 vhcurveto
            11 vlineto
            87 -62 32 -80 vhcurveto
            endchar
          </CharString>
          <CharString index="96">
            98 -98 143 220 127 -98 98 return
          </CharString>
          <CharString index="97">
            -216 52 -52 66 -66 165 return
          </CharString>
          <CharString index="98">
            21 2 callsubr
            return
          </CharString>
          <CharString index="99">
            60 130 return
          </CharString>
          <CharString index="100">
            129 vstem
            return
          </CharString>
          <CharString index="101">
            15 27 31 27 return
          </CharString>
          <CharString index="102">
            hstem
            18 callsubr
            vstem
            return
          </CharString>
          <CharString index="103">
            32 129 return
          </CharString>
          <CharString index="104">
            60 -35 callgsubr
            return
          </CharString>
          <CharString index="105">
            64 16 11 callgsubr
            return
          </CharString>
          <CharString index="106">
            233 19 callsubr
            return
          </CharString>
          <CharString index="107">
            7 callsubr
            503 114 return
          </CharString>
          <CharString index="108">
            218 -129 129 return
          </CharString>
          <CharString index="109">
            -21 475 -20 return
          </CharString>
          <CharString index="110">
            vhcurveto
            6 vlineto
            88 -56 27 -67 vhcurveto
            -75 -116 rmoveto
            36 21 14 34 37 20 -15 -40 vhcurveto
            return
          </CharString>
          <CharString index="111">
            -2 -5 vhcurveto
            return
          </CharString>
          <CharString index="112">
            333 -20 58 -20 hstemhm
            22 146 -87 87 return
          </CharString>
          <CharString index="113">
            40 -6 callgsubr
            return
          </CharString>
          <CharString index="114">
            0 114 return
          </CharString>
          <CharString index="115">
            -21 -40 -53 -51 -47 -40 46 46 vhcurveto
            endchar
          </CharString>
          <CharString index="116">
            rmoveto
            -77 callsubr
            return
          </CharString>
          <CharString index="117">
            hlineto
            -24 -16 -24 -30 -32 16 -21 24 hvcurveto
            return
          </CharString>
          <CharString index="118">
            40 -31 34 -68 3 vhcurveto
            return
          </CharString>
          <CharString index="119">
            vlineto
            24 -30 16 return
          </CharString>
          <CharString index="120">
            86 -57 57 hstemhm
            return
          </CharString>
          <CharString index="121">
            56 41 34 41 return
          </CharString>
          <CharString index="122">
            -19 hvcurveto
            49 vlineto
            37 21 17 37 30 25 -10 -21 vhcurveto
            hintmask 11101100
            -26 22 return
          </CharString>
          <CharString index="123">
            vlineto
            167 -103 62 -132 return
          </CharString>
          <CharString index="124">
            hstemhm
            15 122 -102 118 return
          </CharString>
          <CharString index="125">
            -4 callsubr
            176 129 return
          </CharString>
          <CharString index="126">
            -20 -22 callsubr
            return
          </CharString>
          <CharString index="127">
            -20 -30 callsubr
            return
          </CharString>
          <CharString index="128">
            16 -9 -51 callsubr
            return
          </CharString>
          <CharString index="129">
            -20 hstemhm
            33 35 callsubr
            return
          </CharString>
          <CharString index="130">
            -36 -29 -19 -21 vhcurveto
            -192 vlineto
            -95 6 rlineto
            -24 -16 -23 -28 return
          </CharString>
          <CharString index="131">
            13 13 20 20 20 -8 19 -18 hvcurveto
            return
          </CharString>
          <CharString index="132">
            173 -20 hstemhm
            172 87 -87 139 hintmask 10011000
            172 return
          </CharString>
          <CharString index="133">
            -34 callsubr
            120 86 -57 57 -30 callsubr
            return
          </CharString>
          <CharString index="134">
            75 253 75 hstem
            32 87 113 85 vstem
            175 return
          </CharString>
          <CharString index="135">
            -21 29 -21 480 -20 292 -20 hstemhm
            51 129 return
          </CharString>
          <CharString index="136">
            240 -34 callgsubr
            return
          </CharString>
          <CharString index="137">
            hstemhm
            37 111 126 114 return
          </CharString>
          <CharString index="138">
            -75 75 hstemhm
            32 87 112 86 hintmask 11011100
            194 return
          </CharString>
          <CharString index="139">
            -250 vlineto
            -21 29 -20 36 37 27 20 21 vhcurveto
            return
          </CharString>
          <CharString index="140">
            78 38 37 67 95 7 -68 -31 2 vhcurveto
            endchar
          </CharString>
          <CharString index="141">
            21 -50 callsubr
            return
          </CharString>
          <CharString index="142">
            129 178 129 return
          </CharString>
          <CharString index="143">
            265 25 -21 183 107 183 -20 hstem
            return
          </CharString>
          <CharString index="144">
            56 44 34 42 50 41 -6 callgsubr
            endchar
          </CharString>
          <CharString index="145">
            72 rmoveto
            -31 -26 7 24 hvcurveto
            return
          </CharString>
          <CharString index="146">
            -12 32 33 32 12 28 vhcurveto
            return
          </CharString>
          <CharString index="147">
            511 230 hstem
            return
          </CharString>
          <CharString index="148">
            -22 callsubr
            175 121 hintmask 01111110
            return
          </CharString>
          <CharString index="149">
            rmoveto
            -35 17 -9 22 28 18 15 16 vhcurveto
            return
          </CharString>
          <CharString index="150">
            rmoveto
            -28 -13 -30 -28 -32 15 -27 26 hvcurveto
            return
          </CharString>
          <CharString index="151">
            24 -28 16 -34 vhcurveto
            -245 -197 rmoveto
            return
          </CharString>
          <CharString index="152">
            hlineto
            -74 callsubr
            return
          </CharString>
          <CharString index="153">
            18 10 11 4 return
          </CharString>
        <CharString name=".notdef">
          -118 49 -21 417 -20 hstem
          45 101 rmoveto
          -7 -9 -1 -10 -8 vvcurveto
          -27 26 -19 26 15 13 6 13 10 vhcurveto
          67 112 68 -112 rlineto
          -13 9 14 -6 14 hhcurveto
          27 26 19 27 8 -2 10 -7 9 hvcurveto
          -91 135 91 135 rlineto
          7 10 2 9 8 vvcurveto
          27 -26 20 -27 -14 -14 -7 -13 -9 vhcurveto
          -68 -112 -67 112 rlineto
          13 -10 -13 7 -15 hhcurveto
          -26 -26 -20 -27 -8 1 -9 7 -10 hvcurveto
          91 -135 rlineto
          endchar
        </CharString>
        <CharString name="A">
          -44 callgsubr
          hstem
          -106 callsubr
          endchar
        </CharString>
        <CharString name="AE">
          281 -71 callsubr
          hstem
          57 123 192 -14 callgsubr
          502 617 rmoveto
          228 hlineto
          26 -6 callsubr
          -12 29 -29 hvcurveto
          -445 hlineto
          -127 -101 -18 callsubr
          -456 vlineto
          -26 16 -20 42 57 8 20 26 vhcurveto
          269 192 -274 vlineto
          -27 28 -14 29 vhcurveto
          301 hlineto
          29 12 29 27 31 -15 27 -26 hvcurveto
          -228 201 119 45 callsubr
          -119 hlineto
          -322 85 rmoveto
          78 39 37 66 vhcurveto
          87 -200 -192 hlineto
          endchar
        </CharString>
        <CharString name="AEacute">
          281 -71 callsubr
          223 -20 hstemhm
          57 123 192 130 -130 194 hintmask 11111010
          548 875 rmoveto
          -107 callsubr
          hintmask 11111100
          84 -195 rmoveto
          228 hlineto
          26 -6 callsubr
          -12 29 -29 hvcurveto
          -445 hlineto
          -127 -101 -18 callsubr
          -456 vlineto
          -26 16 -20 42 57 8 20 26 vhcurveto
          269 192 -274 vlineto
          -27 28 -14 29 vhcurveto
          301 hlineto
          29 12 29 27 31 -15 27 -26 hvcurveto
          -228 201 119 45 callsubr
          -119 hlineto
          -322 85 rmoveto
          78 39 37 66 vhcurveto
          87 -200 -192 hlineto
          endchar
        </CharString>
        <CharString name="Aacute">
          -44 callgsubr
          240 -20 hstem
          215 202 vstem
          -106 callsubr
          25 617 -38 callsubr
        </CharString>
        <CharString name="Abreve">
          -44 callgsubr
          114 -15 callgsubr
          154 70 hintmask 11101100
          -106 callsubr
          -24 703 rmoveto
          hintmask 11110100
          -33 callgsubr
          hintmask 11101100
          -90 callsubr
        </CharString>
        <CharString name="Acircumflex">
          69 21 -21 737 -20 240 -20 hstem
          -106 callsubr
          -87 617 -94 callsubr
        </CharString>
        <CharString name="Adieresis">
          -44 callgsubr
          103 105 hstem
          163 101 48 102 vstem
          -106 callsubr
          -160 664 rmoveto
          -104 callgsubr
          endchar
        </CharString>
        <CharString name="Agrave">
          -44 callgsubr
          240 -20 hstem
          172 202 vstem
          -106 callsubr
          -54 554 -68 callsubr
          -103 callsubr
        </CharString>
        <CharString name="Amacron">
          -44 callgsubr
          136 85 hstem
          -106 callsubr
          -230 634 rmoveto
          -95 callsubr
          endchar
        </CharString>
        <CharString name="Aogonek">
          69 -213 55 179 -32 callsubr
          hstemhm
          379 13 callgsubr
          hintmask 11111000
          502 -158 rmoveto
          -50 callgsubr
          24 9 22 17 21 vvcurveto
          3 -1 3 -1 4 vhcurveto
          -193 629 rlineto
          30 -9 -37 14 -38 hhcurveto
          -37 -37 -14 -30 -9 hvcurveto
          -193 -629 rlineto
          -1 -4 -1 -4 -2 vvcurveto
          -32 47 -22 35 22 17 7 19 5 vhcurveto
          38 133 rlineto
          229 hlineto
          38 -133 2 -7 3 -6 5 -4 rlinecurve
          -45 -35 -26 -50 -47 vvcurveto
          -53 40 -37 77 vhcurveto
          hintmask 11110100
          24 5 12 14 13 -6 16 -17 hvcurveto
          -302 419 rmoveto
          87 307 87 -307 rlineto
          endchar
        </CharString>
        <CharString name="Aring">
          -44 callgsubr
          95 52 93 55 hstem
          189 51 91 54 vstem
          -106 callsubr
          -88 751 rmoveto
          -83 callsubr
          endchar
        </CharString>
        <CharString name="Atilde">
          -44 callgsubr
          114 13 callsubr
          hintmask 11101000
          -106 callsubr
          -143 599 rmoveto
          hintmask 11110000
          -91 callsubr
          hintmask 11101000
          -91 callgsubr
          endchar
        </CharString>
        <CharString name="B">
          56 7 callsubr
          231 102 170 114 hstemhm
          60 129 192 130 -112 130 hintmask 11110100
          60 40 rmoveto
          -21 22 -19 35 vhcurveto
          212 hlineto
          113 87 56 156 hvcurveto
          21 vlineto
          100 -42 39 -61 24 vhcurveto
          hintmask 11111000
          53 23 32 54 82 vvcurveto
          142 -97 34 -104 vhcurveto
          -193 hlineto
          -29 -28 -14 -27 hvcurveto
          129 -576 rmoveto
          231 113 vlineto
          hintmask 11110100
          61 36 -28 -78 hvcurveto
          -16 vlineto
          -76 -36 -33 -61 vhcurveto
          -113 503 rmoveto
          111 hlineto
          hintmask 11111000
          51 30 -32 -52 -51 -26 -35 -54 hvcurveto
          -112 hlineto
          endchar
        </CharString>
        <CharString name="C">
          -16 callsubr
          hstem
          53 -31 callsubr
          392 518 -95 callgsubr
          33 callsubr
        </CharString>
        <CharString name="CR">
          -506 endchar
        </CharString>
        <CharString name="Cacute">
          -16 callsubr
          226 -20 hstemhm
          53 42 callgsubr
          389 878 rmoveto
          -107 callsubr
          hintmask 11111010
          133 -297 -95 callgsubr
          33 callsubr
        </CharString>
        <CharString name="Ccaron">
          -16 callsubr
          244 -20 hstem
          53 -31 callsubr
          183 971 -106 callgsubr
          106 -387 -95 callgsubr
          33 callsubr
        </CharString>
        <CharString name="Ccedilla">
          44 -10 callsubr
          46 113 369 -20 160 114 hstemhm
          53 130 31 190 -62 62 -12 130 hintmask 1001111001000000
          392 518 rmoveto
          -30 1 27 -11 37 hhcurveto
          44 21 12 52 116 -99 74 -139 -126 -105 -18 callsubr
          -279 vlineto
          -158 93 -64 117 -6 vhcurveto
          -24 -84 55 -5 rlineto
          hintmask 1001111010000000
          32 -3 16 -14 -20 vvcurveto
          -21 -17 -12 -30 vhcurveto
          hintmask 0101111100000000
          -65 callgsubr
          hintmask 0011111001000000
          11 callsubr
          15 47 rlineto
          120 12 82 74 110 vvcurveto
          51 -21 13 -45 -34 -28 -10 -31 -2 vhcurveto
          -42 -3 -8 -65 -91 hhcurveto
          -69 -38 37 78 hvcurveto
          -33 callsubr
          33 callsubr
        </CharString>
        <CharString name="Ccircumflex">
          44 -6 114 148 221 140 114 0 88 138 -20 hstemhm
          53 -46 callgsubr
          hintmask 11011110
          287 878 -107 callgsubr
          209 -304 -95 callgsubr
          hintmask 11101110
          33 callsubr
        </CharString>
        <CharString name="Cdotaccent">
          -16 callsubr
          89 105 hstem
          53 130 55 101 53 -14 callgsubr
          392 518 -95 callgsubr
          78 38 37 67 95 7 -68 -31 2 vhcurveto
          -103 407 -82 callgsubr
          endchar
        </CharString>
        <CharString name="D">
          74 0 callsubr
          hstem
          60 -31 callsubr
          117 731 rmoveto
          -34 -23 -19 -21 hvcurveto
          -651 vlineto
          -21 23 -19 34 vhcurveto
          177 hlineto
          132 103 62 167 hvcurveto
          273 16 callsubr
          vhcurveto
          -114 vmoveto
          66 39 -37 -78 hvcurveto
          -273 vlineto
          -78 -39 -37 -66 vhcurveto
          -104 503 hlineto
          endchar
        </CharString>
        <CharString name="Dcaron">
          74 0 callsubr
          244 -20 hstem
          60 -31 callsubr
          172 971 -106 callgsubr
          -158 -174 rmoveto
          -34 -23 -19 -21 hvcurveto
          -651 vlineto
          -21 23 -19 34 vhcurveto
          177 hlineto
          132 103 62 167 hvcurveto
          273 16 callsubr
          vhcurveto
          -114 vmoveto
          66 39 -37 -78 hvcurveto
          -273 vlineto
          -78 -39 -37 -66 vhcurveto
          -104 503 hlineto
          endchar
        </CharString>
        <CharString name="Dcroat">
          81 7 callsubr
          222 93 188 114 hstemhm
          -7 204 7 callgsubr
          -130 241 98 130 hintmask 11101010
          124 731 rmoveto
          -34 -23 -19 -21 hvcurveto
          -262 -41 vlineto
          hintmask 11110010
          -21 -12 -23 -24 -24 12 -22 21 hvcurveto
          hintmask 11101010
          41 -296 hlineto
          -21 23 -19 34 vhcurveto
          177 hlineto
          132 103 62 167 hvcurveto
          273 16 callsubr
          vhcurveto
          -114 vmoveto
          66 39 -37 -78 hvcurveto
          -273 vlineto
          -78 -39 -37 -66 vhcurveto
          -104 222 77 hlineto
          hintmask 11100110
          22 12 22 24 24 -12 23 -22 hvcurveto
          hintmask 11110010
          -77 188 hlineto
          endchar
        </CharString>
        <CharString name="Delta">
          85 0 2 callgsubr
          -20 hstem
          380 689 rmoveto
          29 -9 -30 19 -45 hhcurveto
          -46 -30 -19 -29 -9 hvcurveto
          -185 -615 rlineto
          -4 -10 -1 -10 -9 vvcurveto
          -27 16 -18 39 vhcurveto
          439 hlineto
          39 16 18 27 9 -1 10 -4 10 hvcurveto
          -395 40 rmoveto
          126 462 125 -462 rlineto
          endchar
        </CharString>
        <CharString name="E">
          24 -71 callsubr
          hstem
          60 130 -64 callgsubr
          endchar
        </CharString>
        <CharString name="Eacute">
          23 -71 callsubr
          226 20 callgsubr
          15 202 vstem
          389 878 rmoveto
          -107 callsubr
          -69 -198 -102 callgsubr
          endchar
        </CharString>
        <CharString name="Ebreve">
          24 -71 callsubr
          100 -15 callgsubr
          60 130 -37 70 hintmask 11101100
          -82 callsubr
          159 547 rmoveto
          hintmask 11110100
          -33 callgsubr
          hintmask 11101010
          -90 callsubr
        </CharString>
        <CharString name="Ecaron">
          24 -71 callsubr
          244 20 callgsubr
          vstem
          183 971 -106 callgsubr
          -96 -288 -102 callgsubr
          endchar
        </CharString>
        <CharString name="Ecircumflex">
          24 -71 callsubr
          0 88 138 20 callsubr
          hintmask 11011100
          295 878 -107 callgsubr
          hintmask 11101100
          -1 -205 -102 callgsubr
          endchar
        </CharString>
        <CharString name="Edieresis">
          24 -71 callsubr
          89 105 -30 callsubr
          -26 101 48 102 hintmask 11110110
          215 925 rmoveto
          -104 callgsubr
          hintmask 11111010
          -175 -308 -102 callgsubr
          endchar
        </CharString>
        <CharString name="Edotaccent">
          24 -71 callsubr
          89 105 hstem
          -8 callsubr
          57 101 -64 callgsubr
          108 508 -82 callgsubr
          endchar
        </CharString>
        <CharString name="Egrave">
          23 -71 callsubr
          226 20 callsubr
          -9 202 hintmask 11111000
          190 617 rmoveto
          283 hlineto
          26 -6 callsubr
          -13 29 -28 hvcurveto
          -356 hlineto
          -29 -28 -14 -27 hvcurveto
          -649 vlineto
          -27 28 -14 29 vhcurveto
          356 hlineto
          28 13 29 27 31 -15 27 -26 hvcurveto
          -283 201 152 hlineto
          hintmask 11110100
          -74 callsubr
          hintmask 11111000
          -152 hlineto
          139 398 -68 callsubr
          hintmask 11110100
          -103 callsubr
        </CharString>
        <CharString name="Emacron">
          24 -71 callsubr
          122 85 hstem
          60 130 -64 callgsubr
          -43 478 rmoveto
          -95 callsubr
          endchar
        </CharString>
        <CharString name="Eng">
          100 3 callgsubr
          133 -21 731 20 callsubr
          137 218 7 callgsubr
          hintmask 11111000
          376 -112 rmoveto
          -60 callsubr
          723 vlineto
          28 -33 12 -32 vhcurveto
          hintmask 11110100
          -33 -32 -12 -28 hvcurveto
          -402 vlineto
          -193 373 rlineto
          59 -31 -19 10 -47 hhcurveto
          -33 -32 -13 -28 hvcurveto
          -649 vlineto
          -93 callgsubr
          402 vlineto
          215 -402 rlineto
          7 -13 3 -9 -13 vvcurveto
          -38 vlineto
          -46 -5 -34 -34 vhcurveto
          endchar
        </CharString>
        <CharString name="Eogonek">
          24 -213 55 158 -69 callgsubr
          -30 callsubr
          163 13 callgsubr
          hintmask 11111010
          190 617 rmoveto
          283 hlineto
          26 -6 callsubr
          -13 29 -28 hvcurveto
          -356 hlineto
          -29 -28 -14 -27 hvcurveto
          -649 vlineto
          -27 28 -14 29 vhcurveto
          296 hlineto
          -38 -35 -22 -45 -43 -72 callsubr
          hintmask 11111100
          -42 -18 18 29 40 30 46 41 28 hvcurveto
          18 8 9 23 22 vvcurveto
          31 -15 27 -26 vhcurveto
          -283 201 152 45 callsubr
          -152 hlineto
          endchar
        </CharString>
        <CharString name="Eth">
          81 7 callsubr
          222 93 188 114 hstemhm
          -7 204 7 callgsubr
          -130 241 98 130 hintmask 11101010
          124 731 rmoveto
          -34 -23 -19 -21 hvcurveto
          -262 -41 vlineto
          hintmask 11110010
          -21 -12 -23 -24 -24 12 -22 21 hvcurveto
          hintmask 11101010
          41 -296 hlineto
          -21 23 -19 34 vhcurveto
          177 hlineto
          132 103 62 167 hvcurveto
          273 16 callsubr
          vhcurveto
          -114 vmoveto
          66 39 -37 -78 hvcurveto
          -273 vlineto
          -78 -39 -37 -66 vhcurveto
          -104 222 77 hlineto
          hintmask 11100110
          22 12 22 24 24 -12 23 -22 hvcurveto
          hintmask 11110010
          -77 188 hlineto
          endchar
        </CharString>
        <CharString name="Euro">
          110 -6 114 118 92 70 92 137 114 hstemhm
          24 217 -130 -46 callgsubr
          hintmask 11111010
          241 226 rmoveto
          94 hlineto
          21 21 19 27 25 -21 21 -21 hvcurveto
          -94 70 94 hlineto
          21 21 19 26 26 -21 21 -21 hvcurveto
          -94 22 hlineto
          78 38 37 68 85 18 -60 -39 -27 19 -11 46 45 20 11 48 120 -101 72 -137 vhcurveto
          hintmask 11110110
          -128 -103 -18 callsubr
          -22 -46 vlineto
          36 callgsubr
          hintmask 11110110
          46 -70 -46 hlineto
          36 callgsubr
          46 -17 hlineto
          -128 84 -87 147 137 101 76 123 49 -19 11 -46 -45 -20 -10 -28 -50 -21 -57 -81 -89 -18 67 34 vhcurveto
          endchar
        </CharString>
        <CharString name="F">
          2 21 -21 315 -22 callgsubr
          hstem
          60 -14 callgsubr
          -3 callsubr
          274 153 vlineto
          28 12 27 23 27 -14 25 -26 hvcurveto
          -153 200 276 hlineto
          26 14 38 callgsubr
          -349 hlineto
          -29 -28 -14 -27 hvcurveto
          endchar
        </CharString>
        <CharString name="G">
          58 -6 -16 callgsubr
          hstem
          52 -31 callsubr
          391 518 -96 callsubr
          endchar
        </CharString>
        <CharString name="Gbreve">
          58 -6 -16 callgsubr
          100 -15 callgsubr
          52 130 -30 70 169 130 hintmask 1111011010000000
          391 518 -96 callsubr
          -43 446 rmoveto
          hintmask 1111101010000000
          -33 callgsubr
          hintmask 1111010110000000
          -90 callsubr
        </CharString>
        <CharString name="Gcircumflex">
          58 -6 114 174 102 0 93 140 114 0 88 138 -20 hstemhm
          52 -46 callgsubr
          hintmask 10101111
          274 878 -107 callgsubr
          221 -304 rmoveto
          -31 1 29 -10 35 hhcurveto
          43 22 12 50 120 -101 72 -138 -127 -103 -18 callsubr
          -47 callgsubr
          102 -62 132 132 103 62 167 vhcurveto
          119 vlineto
          22 -15 20 -26 vhcurveto
          -170 hlineto
          -26 -14 -26 -25 hvcurveto
          hintmask 11010111
          -26 14 -25 26 vhcurveto
          81 -59 hlineto
          -78 -40 -37 -65 -66 -38 37 78 vhcurveto
          -33 callsubr
          78 38 37 67 85 16 -52 -47 3 vhcurveto
          endchar
        </CharString>
        <CharString name="Gcommaaccent">
          58 -173 -21 188 -16 callgsubr
          hstem
          52 130 2 202 5 -14 callgsubr
          368 -105 callgsubr
          153 708 -96 callsubr
          endchar
        </CharString>
        <CharString name="Gdotaccent">
          58 -6 -16 callgsubr
          89 105 hstem
          52 130 50 101 58 -14 callgsubr
          391 518 -96 callsubr
          -108 407 -82 callgsubr
          endchar
        </CharString>
        <CharString name="H">
          99 21 -21 328 102 301 -10 callgsubr
          415 -35 callgsubr
          -87 callgsubr
          -261 -225 261 -99 callgsubr
          -650 vlineto
          -93 callgsubr
          287 225 vlineto
          endchar
        </CharString>
        <CharString name="Hbar">
          104 21 -21 328 102 104 85 -85 197 hstemhm
          17 176 7 callgsubr
          225 130 -130 174 hintmask 11101010
          418 -35 callgsubr
          493 11 vlineto
          hintmask 11101001
          21 12 20 22 21 -12 22 -21 hvcurveto
          hintmask 11101010
          -11 72 hlineto
          hintmask 11011010
          -100 callgsubr
          hintmask 11101010
          -72 -225 72 vlineto
          hintmask 11010110
          -100 callgsubr
          hintmask 11100110
          -72 -13 vlineto
          hintmask 11101010
          -21 -12 -22 -21 -21 12 -21 21 hvcurveto
          hintmask 11100110
          13 -493 hlineto
          -93 callgsubr
          287 225 vlineto
          -225 102 rmoveto
          104 225 -104 vlineto
          endchar
        </CharString>
        <CharString name="Hcircumflex">
          99 21 -21 328 102 301 88 138 -10 callgsubr
          303 878 -107 callgsubr
          216 -781 rmoveto
          -93 callgsubr
          -87 callgsubr
          -261 -225 261 -99 callgsubr
          -650 vlineto
          -93 callgsubr
          287 225 vlineto
          endchar
        </CharString>
        <CharString name="I">
          -13 callgsubr
          hstem
          60 -14 callgsubr
          -3 callsubr
          -87 callgsubr
          endchar
        </CharString>
        <CharString name="IJ">
          275 -6 114 -87 -21 617 114 -30 callsubr
          65 -46 callgsubr
          hintmask 01111100
          -3 callsubr
          -87 callgsubr
          534 -74 rmoveto
          -394 vlineto
          hintmask 10111100
          -78 -38 -37 -68 -81 -20 57 50 -2 vhcurveto
          32 -3 -28 9 -34 hhcurveto
          -44 -21 -13 -50 -124 100 -75 139 126 104 62 167 hvcurveto
          467 vlineto
          27 -28 14 -29 vhcurveto
          -175 hlineto
          -29 -12 -29 -27 -31 15 -27 26 hvcurveto
          endchar
        </CharString>
        <CharString name="Iacute">
          -256 -18 callgsubr
          31 202 -173 130 hintmask 11101000
          -3 callsubr
          -87 callgsubr
          155 187 rmoveto
          hintmask 11110000
          -70 callsubr
        </CharString>
        <CharString name="Ibreve">
          -13 callgsubr
          120 -15 callgsubr
          -8 70 -2 130 hintmask 11010100
          -3 callsubr
          -87 callgsubr
          128 273 rmoveto
          hintmask 11101000
          -33 callgsubr
          hintmask 11011000
          -90 callsubr
        </CharString>
        <CharString name="Icircumflex">
          -13 callgsubr
          246 20 callgsubr
          vstem
          -3 callsubr
          -87 callgsubr
          67 187 -94 callsubr
        </CharString>
        <CharString name="Idieresis">
          -13 callgsubr
          109 105 hstemhm
          1 101 -42 130 -40 102 hintmask 11101000
          -3 callsubr
          -87 callgsubr
          -8 234 -42 callsubr
        </CharString>
        <CharString name="Idotaccent">
          -13 callgsubr
          109 105 -30 callsubr
          -115 101 hintmask 11110000
          -3 callsubr
          -87 callgsubr
          66 234 rmoveto
          hintmask 11101000
          -28 -23 -24 -28 -28 23 -25 28 28 22 25 28 28 -22 24 -28 hvcurveto
          endchar
        </CharString>
        <CharString name="Igrave">
          -256 -18 callgsubr
          17 202 -159 130 hintmask 11101000
          -3 callsubr
          -87 callgsubr
          105 124 -68 callsubr
          hintmask 11110000
          -103 callsubr
        </CharString>
        <CharString name="Imacron">
          -13 callgsubr
          142 85 hstem
          60 -14 callgsubr
          -3 callsubr
          -87 callgsubr
          -79 204 rmoveto
          -95 callsubr
          endchar
        </CharString>
        <CharString name="Iogonek">
          -256 -212 55 888 -20 hstemhm
          23 13 callgsubr
          -109 130 hintmask 11100000
          146 -157 rmoveto
          -42 -18 18 29 41 32 48 43 27 hvcurveto
          hintmask 11001000
          16 7 13 11 17 vvcurveto
          -87 callgsubr
          -650 vlineto
          -17 12 -12 16 -6 vhcurveto
          hintmask 11010000
          -41 -35 -24 -47 -46 -72 callsubr
          endchar
        </CharString>
        <CharString name="Itilde">
          -256 26 callsubr
          hintmask 11011000
          -3 callsubr
          -87 callgsubr
          9 169 rmoveto
          hintmask 11101000
          -91 callsubr
          hintmask 11011000
          -91 callgsubr
          endchar
        </CharString>
        <CharString name="J">
          33 -52 callgsubr
          hstem
          13 -31 callsubr
          352 617 rmoveto
          -394 vlineto
          -78 -38 -37 -68 -81 -20 57 50 -2 vhcurveto
          32 -3 -28 9 -34 hhcurveto
          -44 -21 -13 -50 -124 100 -75 139 126 104 62 167 hvcurveto
          467 vlineto
          27 -28 14 -29 vhcurveto
          -175 hlineto
          -29 -12 -29 -27 -31 15 -27 26 hvcurveto
          endchar
        </CharString>
        <CharString name="Jcircumflex">
          33 -52 callgsubr
          0 88 138 -20 hstemhm
          13 -46 callgsubr
          hintmask 10111100
          271 878 -107 callgsubr
          hintmask 11011100
          185 -205 rmoveto
          -394 vlineto
          -78 -38 -37 -68 -81 -20 57 50 -2 vhcurveto
          32 -3 -28 9 -34 hhcurveto
          -44 -21 -13 -50 -124 100 -75 139 126 104 62 167 hvcurveto
          467 vlineto
          27 -28 14 -29 vhcurveto
          -175 hlineto
          -29 -12 -29 -27 -31 15 -27 26 hvcurveto
          endchar
        </CharString>
        <CharString name="K">
          46 16 -21 26 -21 731 20 callsubr
          hintmask 01110000
          -3 callsubr
          196 vlineto
          54 68 188 -285 rlineto
          hintmask 10110000
          -59 callgsubr
        </CharString>
        <CharString name="Kcommaaccent">
          46 -173 -21 210 -21 26 -21 731 20 callsubr
          -11 202 hintmask 10110100
          363 -105 callgsubr
          hintmask 10111000
          -173 231 rmoveto
          -93 callgsubr
          196 vlineto
          54 68 188 -285 rlineto
          hintmask 11011000
          -59 callgsubr
        </CharString>
        <CharString name="L">
          -22 7 callsubr
          617 20 callgsubr
          vstem
          434 hmoveto
          -44 callsubr
          -61 callsubr
          endchar
        </CharString>
        <CharString name="Lacute">
          -22 7 callsubr
          617 -20 246 20 callsubr
          -34 202 hintmask 11101000
          340 878 rmoveto
          -107 callsubr
          224 -815 rmoveto
          -44 callsubr
          hintmask 11110000
          -61 callsubr
          endchar
        </CharString>
        <CharString name="Lcaron">
          -21 7 callsubr
          397 230 -10 20 callsubr
          117 135 hintmask 11011000
          374 741 -86 callsubr
          60 -741 rmoveto
          -44 callsubr
          -244 577 hlineto
          hintmask 10111000
          -100 callgsubr
          -650 vlineto
          -27 28 -14 29 vhcurveto
          endchar
        </CharString>
        <CharString name="Lcommaaccent">
          -22 -173 -21 194 114 617 20 callsubr
          -33 202 hintmask 11101000
          341 -105 callgsubr
          223 190 rmoveto
          -44 callsubr
          hintmask 11110000
          -61 callsubr
          endchar
        </CharString>
        <CharString name="Ldot">
          -21 7 callsubr
          243 127 247 20 callgsubr
          106 143 vstem
          434 hmoveto
          -44 callsubr
          -61 callsubr
          251 484 -32 callgsubr
        </CharString>
        <CharString name="Lslash">
          -16 7 callsubr
          617 -20 hstemhm
          -7 203 7 callgsubr
          -130 248 hintmask 11100000
          440 hmoveto
          -44 callsubr
          -244 212 hlineto
          101 50 rlineto
          hintmask 11001000
          11 5 6 12 13 vvcurveto
          24 -22 33 -24 -4 -4 0 -2 -4 vhcurveto
          hintmask 11100000
          -60 -30 rlineto
          260 vlineto
          28 -33 12 -32 vhcurveto
          hintmask 11010000
          -33 -32 -12 -28 hvcurveto
          -323 vlineto
          -57 -28 27 callgsubr
          4 4 1 2 4 vhcurveto
          hintmask 11010000
          16 8 rlineto
          -222 vlineto
          -27 28 -14 29 vhcurveto
          endchar
        </CharString>
        <CharString name="M">
          193 21 -21 731 20 callgsubr
          319 -14 callgsubr
          509 471 rmoveto
          -430 vlineto
          -93 callgsubr
          625 vlineto
          48 -32 17 -33 -47 -22 -10 -59 -33 vhcurveto
          -123 -224 -123 224 rlineto
          59 -33 -21 10 -47 hhcurveto
          -33 -32 -17 -48 hvcurveto
          -625 vlineto
          -93 callgsubr
          438 vlineto
          115 -216 rlineto
          -20 11 16 -6 16 hhcurveto
          16 17 6 20 11 hvcurveto
          endchar
        </CharString>
        <CharString name="N">
          99 21 -21 731 -10 callgsubr
          480 hmoveto
          -89 callgsubr
          endchar
        </CharString>
        <CharString name="Nacute">
          99 -18 callgsubr
          60 130 0 202 23 130 hintmask 11101100
          374 878 rmoveto
          -107 callsubr
          236 -815 rmoveto
          32 33 14 27 hvcurveto
          -87 callgsubr
          -402 vlineto
          -193 373 rlineto
          59 -31 -19 10 -47 hhcurveto
          hintmask 11110100
          -33 -32 -13 -28 hvcurveto
          -649 vlineto
          -93 callgsubr
          402 vlineto
          215 -402 rlineto
          -31 17 27 -10 31 hhcurveto
          endchar
        </CharString>
        <CharString name="Ncaron">
          99 -34 callsubr
          264 -10 callgsubr
          200 971 -106 callgsubr
          177 -905 rmoveto
          -89 callgsubr
          endchar
        </CharString>
        <CharString name="Ncommaaccent">
          99 12 callgsubr
          731 20 callgsubr
          11 202 12 -14 callgsubr
          385 -105 callgsubr
          225 190 rmoveto
          -89 callgsubr
          endchar
        </CharString>
        <CharString name="Ntilde">
          99 26 callsubr
          225 130 hintmask 11011100
          480 hmoveto
          -89 callgsubr
          -241 860 rmoveto
          hintmask 11101100
          -91 callsubr
          hintmask 11011100
          -91 callgsubr
          endchar
        </CharString>
        <CharString name="O">
          66 -52 callgsubr
          hstem
          52 -31 callsubr
          286 -6 rmoveto
          132 103 62 167 hvcurveto
          279 16 callsubr
          -132 -102 -20 callgsubr
          vhcurveto
          -47 callgsubr
          102 -62 132 vhcurveto
          105 229 rmoveto
          -79 -40 -36 -65 -66 -38 36 79 vhcurveto
          -33 callsubr
          -68 callgsubr
          endchar
        </CharString>
        <CharString name="OE">
          323 7 callsubr
          -99 -21 321 -22 callgsubr
          hstemhm
          53 -46 callgsubr
          hintmask 01111100
          263 -6 rmoveto
          56 62 23 51 28 hvcurveto
          -27 vlineto
          hintmask 10111100
          -27 28 -14 29 vhcurveto
          307 hlineto
          28 12 29 27 31 -14 27 -26 hvcurveto
          -251 201 120 hlineto
          28 12 27 23 27 -14 25 -26 hvcurveto
          -120 200 251 hlineto
          26 14 38 callgsubr
          -307 hlineto
          -29 -28 -14 -27 hvcurveto
          -33 vlineto
          50 -28 -62 24 -56 hhcurveto
          -122 -88 -18 callsubr
          -279 vlineto
          hintmask 01111100
          -167 88 -62 122 vhcurveto
          129 229 rmoveto
          -79 -40 -36 -65 -66 -38 36 79 vhcurveto
          -33 callsubr
          -68 callgsubr
          endchar
        </CharString>
        <CharString name="Oacute">
          66 -52 callgsubr
          226 -20 hstemhm
          52 130 38 202 -31 130 hintmask 11111000
          404 878 rmoveto
          -107 callsubr
          12 -821 rmoveto
          hintmask 11110100
          132 103 62 167 hvcurveto
          279 16 callsubr
          -132 -102 -20 callgsubr
          vhcurveto
          -47 callgsubr
          102 -62 132 vhcurveto
          105 229 rmoveto
          -79 -40 -36 -65 -66 -38 36 79 vhcurveto
          -33 callsubr
          -68 callgsubr
          endchar
        </CharString>
        <CharString name="Obreve">
          66 -52 callgsubr
          100 -15 callgsubr
          52 130 -30 70 169 130 hintmask 11011010
          286 -6 rmoveto
          132 103 62 167 hvcurveto
          279 16 callsubr
          -132 -102 -20 callgsubr
          vhcurveto
          -47 callgsubr
          102 -62 132 vhcurveto
          105 229 rmoveto
          -79 -40 -36 -65 -66 -38 36 79 vhcurveto
          -33 callsubr
          -68 callgsubr
          -43 462 rmoveto
          hintmask 11101010
          -33 callgsubr
          hintmask 11010110
          -90 callsubr
        </CharString>
        <CharString name="Ocircumflex">
          66 -52 callgsubr
          0 88 138 -20 hstemhm
          52 -46 callgsubr
          hintmask 10111100
          286 878 -107 callgsubr
          104 -828 rmoveto
          132 103 62 167 hvcurveto
          279 16 callsubr
          -132 -102 -20 callgsubr
          vhcurveto
          -47 callgsubr
          102 -62 132 vhcurveto
          105 229 rmoveto
          -79 -40 -36 -65 -66 -38 36 79 vhcurveto
          -33 callsubr
          hintmask 11011100
          -68 callgsubr
          endchar
        </CharString>
        <CharString name="Odieresis">
          66 -52 callgsubr
          89 105 hstemhm
          52 130 -20 101 48 102 -22 130 hintmask 11101100
          213 925 rmoveto
          -104 callgsubr
          -77 -931 rmoveto
          hintmask 11110010
          132 103 62 167 hvcurveto
          279 16 callsubr
          -132 -102 -20 callgsubr
          vhcurveto
          -47 callgsubr
          102 -62 132 vhcurveto
          105 229 rmoveto
          -79 -40 -36 -65 -66 -38 36 79 vhcurveto
          -33 callsubr
          -68 callgsubr
          endchar
        </CharString>
        <CharString name="Ograve">
          66 -52 callgsubr
          226 -20 hstemhm
          52 130 -9 202 16 130 hintmask 11110100
          286 -6 rmoveto
          132 103 62 167 hvcurveto
          279 16 callsubr
          -132 -102 -20 callgsubr
          vhcurveto
          -47 callgsubr
          102 -62 132 vhcurveto
          105 229 rmoveto
          -79 -40 -36 -65 -66 -38 36 79 vhcurveto
          -33 callsubr
          -68 callgsubr
          -70 313 -68 callsubr
          hintmask 11101100
          -103 callsubr
        </CharString>
        <CharString name="Ohungarumlaut">
          66 -52 callgsubr
          78 150 hstem
          52 -31 callsubr
          304 904 -98 callsubr
          -93 -824 rmoveto
          132 103 62 167 hvcurveto
          279 16 callsubr
          -132 -102 -20 callgsubr
          vhcurveto
          -47 callgsubr
          102 -62 132 vhcurveto
          105 229 rmoveto
          -79 -40 -36 -65 -66 -38 36 79 vhcurveto
          -33 callsubr
          -68 callgsubr
          endchar
        </CharString>
        <CharString name="Omacron">
          66 -52 callgsubr
          122 85 hstem
          52 -31 callsubr
          143 895 rmoveto
          -95 callsubr
          143 -901 rmoveto
          132 103 62 167 hvcurveto
          279 16 callsubr
          -132 -102 -20 callgsubr
          vhcurveto
          -47 callgsubr
          102 -62 132 vhcurveto
          105 229 rmoveto
          -79 -40 -36 -65 -66 -38 36 79 vhcurveto
          -33 callsubr
          -68 callgsubr
          endchar
        </CharString>
        <CharString name="Omega">
          68 0 113 -113 238 379 114 hstemhm
          41 213 -201 129 137 202 -202 214 -142 130 hintmask 10110010
          319 hmoveto
          173 hlineto
          24 17 25 32 34 -19 22 -22 hvcurveto
          -99 18 hlineto
          hintmask 10101100
          75 27 53 68 122 vvcurveto
          154 vlineto
          167 -102 62 -132 -132 -102 -20 callgsubr
          vhcurveto
          -154 vlineto
          -122 51 -67 76 -28 vhcurveto
          -18 -99 vlineto
          hintmask 10110100
          -22 -18 -22 -34 -32 16 -25 24 hvcurveto
          173 hlineto
          hintmask 01110100
          238 vlineto
          hintmask 01101001
          -47 3 -25 41 66 vvcurveto
          154 vlineto
          79 39 36 66 65 39 -36 -79 vhcurveto
          -154 vlineto
          hintmask 10110010
          -64 -24 -36 -48 -10 vhcurveto
          endchar
        </CharString>
        <CharString name="Oslash">
          67 -19 -21 34 114 509 114 40 -20 hstem
          52 -31 callsubr
          -63 callgsubr
          132 103 62 167 hvcurveto
          -33 callsubr
          64 -15 48 -26 36 vhcurveto
          29 58 33 callgsubr
          -281 -269 rmoveto
          79 38 36 66 26 23 -6 -13 17 vhcurveto
          -170 -346 rlineto
          209 -29 rmoveto
          -79 -40 -36 -65 -27 -21 5 12 -17 vhcurveto
          170 344 rlineto
          endchar
        </CharString>
        <CharString name="Oslashacute">
          67 -19 -21 34 114 509 114 226 -20 hstemhm
          52 42 callgsubr
          -63 callgsubr
          hintmask 11111010
          132 103 62 167 hvcurveto
          -33 callsubr
          64 -15 48 -26 36 vhcurveto
          29 58 33 callgsubr
          -281 -269 rmoveto
          79 38 36 66 26 23 -6 -13 17 vhcurveto
          -170 -346 rlineto
          209 -29 rmoveto
          -79 -40 -36 -65 -27 -21 5 12 -17 vhcurveto
          170 344 rlineto
          -3 409 rmoveto
          hintmask 11111100
          -70 callsubr
        </CharString>
        <CharString name="Otilde">
          66 -52 callgsubr
          100 13 callsubr
          52 -46 callgsubr
          hintmask 11011100
          286 -6 rmoveto
          132 103 62 167 hvcurveto
          279 16 callsubr
          -132 -102 -20 callgsubr
          vhcurveto
          -47 callgsubr
          102 -62 132 vhcurveto
          105 229 rmoveto
          -79 -40 -36 -65 -66 -38 36 79 vhcurveto
          -33 callsubr
          -68 callgsubr
          -161 358 rmoveto
          hintmask 11101100
          -91 callsubr
          hintmask 11011100
          -91 callgsubr
          endchar
        </CharString>
        <CharString name="P">
          51 21 -21 273 102 242 114 hstem
          -8 callsubr
          217 -14 callgsubr
          -3 callsubr
          232 112 vlineto
          132 103 63 164 hvcurveto
          6 vlineto
          164 -100 61 -127 vhcurveto
          -201 hlineto
          -30 -19 -19 -21 hvcurveto
          242 -74 rmoveto
          65 40 -37 -78 hvcurveto
          -12 vlineto
          -78 -40 -37 -65 vhcurveto
          -112 242 hlineto
          endchar
        </CharString>
        <CharString name="Q">
          66 -88 -21 726 114 hstem
          52 130 62 83 64 -14 callgsubr
          286 -109 rmoveto
          21 20 14 27 hvcurveto
          65 vlineto
          112 12 82 65 149 vvcurveto
          -33 callsubr
          168 -103 61 -132 -132 -102 -61 -168 vhcurveto
          -279 vlineto
          -150 81 -64 111 -12 vhcurveto
          -65 vlineto
          -27 21 -14 21 vhcurveto
          105 332 rmoveto
          -59 -24 -35 -40 -13 vhcurveto
          53 vlineto
          28 -20 12 -21 -21 -21 -12 -28 vhcurveto
          -53 vlineto
          -40 13 -22 35 59 vvcurveto
          -33 callsubr
          78 38 37 66 65 40 -37 -78 vhcurveto
          endchar
        </CharString>
        <CharString name="R">
          -2 callsubr
          -30 callsubr
          217 130 hintmask 01111100
          60 41 -30 callgsubr
          hintmask 10111100
          -90 callgsubr
        </CharString>
        <CharString name="Racute">
          -2 callsubr
          226 20 callsubr
          27 202 -12 130 hintmask 01111110
          401 878 rmoveto
          -107 callsubr
          -211 -774 -30 callgsubr
          hintmask 10111101
          -90 callgsubr
        </CharString>
        <CharString name="Rcaron">
          -2 callsubr
          244 20 callsubr
          217 130 hintmask 01111110
          172 971 -106 callgsubr
          -215 -864 -30 callgsubr
          hintmask 10111110
          -90 callgsubr
        </CharString>
        <CharString name="Rcommaaccent">
          64 -173 -21 210 11 callgsubr
          -30 callsubr
          -9 202 24 130 hintmask 10111011
          365 -105 callgsubr
          hintmask 10111101
          -175 231 -30 callgsubr
          hintmask 11011101
          -90 callgsubr
        </CharString>
        <CharString name="S">
          21 callsubr
          hstemhm
          42 130 191 130 hintmask 10101100
          251 108 rmoveto
          hintmask 01011100
          -80 callsubr
          19 callgsubr
          hintmask 10101100
          -88 callsubr
        </CharString>
        <CharString name="Sacute">
          21 callsubr
          221 -20 hstemhm
          42 130 4 202 -15 130 hintmask 10101110
          360 878 rmoveto
          -107 callsubr
          21 -707 rmoveto
          hintmask 01011101
          -80 callsubr
          19 callgsubr
          hintmask 10101101
          -88 callsubr
        </CharString>
        <CharString name="Scaron">
          21 callsubr
          239 -20 hstemhm
          42 130 191 130 hintmask 10101110
          156 971 -106 callgsubr
          -8 -797 rmoveto
          hintmask 01011110
          -80 callsubr
          19 callgsubr
          hintmask 10101110
          -88 callsubr
        </CharString>
        <CharString name="Scedilla">
          16 -10 callsubr
          42 -51 callsubr
          hstemhm
          42 130 27 190 -62 62 -26 130 hintmask 1001010110000000
          251 108 rmoveto
          hintmask 1000110101000000
          -102 -27 77 -41 hhcurveto
          -31 -26 -42 -28 -57 96 -64 127 -3 hvcurveto
          -23 -80 -36 callgsubr
          hintmask 0101010110000000
          -65 callgsubr
          hintmask 0011001100100000
          11 callsubr
          14 46 rlineto
          112 15 77 72 126 259 -321 -43 124 vvcurveto
          19 callgsubr
          hintmask 1001010100100000
          -88 callsubr
        </CharString>
        <CharString name="Scircumflex">
          16 -9 117 479 149 -111 111 0 83 138 -20 hstemhm
          42 130 191 130 hintmask 10011110
          259 878 -107 callgsubr
          96 -714 rmoveto
          -80 callsubr
          hintmask 10101110
          19 callgsubr
          hintmask 11001110
          -88 callsubr
        </CharString>
        <CharString name="Scommaaccent">
          16 -173 -21 185 -51 callsubr
          hstemhm
          42 130 -3 202 -8 130 hintmask 11010010
          353 -105 callgsubr
          28 298 rmoveto
          hintmask 10101101
          -80 callsubr
          19 callgsubr
          hintmask 11010101
          -88 callsubr
        </CharString>
        <CharString name="T">
          22 21 -21 614 117 hstem
          200 -14 callgsubr
          53 731 43 callsubr
          -57 callsubr
        </CharString>
        <CharString name="Tbar">
          22 21 -21 318 94 202 117 hstemhm
          81 249 7 callgsubr
          -130 248 hintmask 11101000
          53 731 43 callsubr
          147 -202 -86 hlineto
          hintmask 11110000
          -22 -11 -24 -23 -24 11 -23 22 hvcurveto
          hintmask 11101000
          86 -277 hlineto
          -93 callgsubr
          277 84 vlineto
          hintmask 11100100
          22 12 23 24 23 -12 24 -22 hvcurveto
          hintmask 11110000
          -84 202 146 hlineto
          26 15 28 31 28 -13 30 -28 hvcurveto
          endchar
        </CharString>
        <CharString name="Tcaron">
          22 21 -21 614 117 244 -20 hstem
          200 -14 callgsubr
          161 971 -106 callgsubr
          -211 -174 43 callsubr
          -57 callsubr
        </CharString>
        <CharString name="Tcommaaccent">
          22 12 callgsubr
          614 117 hstemhm
          161 202 -163 130 hintmask 11110000
          345 -105 callgsubr
          -162 921 43 callsubr
          hintmask 11101000
          -57 callsubr
        </CharString>
        <CharString name="Thorn">
          14 0 245 -113 -67 callgsubr
          -113 235 hstemhm
          61 129 177 129 hintmask 10011100
          122 744 rmoveto
          -34 -27 -20 callsubr
          -663 vlineto
          -17 callgsubr
          37 36 -55 callgsubr
          170 vlineto
          hintmask 01101100
          -42 18 56 -37 60 hhcurveto
          89 83 90 108 hvcurveto
          96 4 callgsubr
          -80 85 -97 -62 -46 -37 -39 -21 vhcurveto
          158 vlineto
          hintmask 10011100
          24 -29 16 -39 vhcurveto
          245 -414 rmoveto
          -48 -42 -37 -45 -53 -37 49 25 vhcurveto
          107 vlineto
          51 43 32 45 48 41 -37 -46 vhcurveto
          endchar
        </CharString>
        <CharString name="U">
          -41 callsubr
          -61 callgsubr
          endchar
        </CharString>
        <CharString name="Uacute">
          -41 callsubr
          246 -20 hstemhm
          57 130 31 202 -13 130 hintmask 11111000
          402 878 rmoveto
          -107 callsubr
          hintmask 11110100
          135 -592 -103 callgsubr
          endchar
        </CharString>
        <CharString name="Ubreve">
          -41 callsubr
          120 -15 callgsubr
          57 130 -26 70 176 130 hintmask 11011010
          -93 callsubr
          -50 273 rmoveto
          hintmask 11101010
          -33 callgsubr
          hintmask 11010110
          -90 callsubr
        </CharString>
        <CharString name="Ucircumflex">
          88 -6 2 callgsubr
          88 138 -20 25 callgsubr
          292 878 -107 callgsubr
          219 -599 -103 callgsubr
          endchar
        </CharString>
        <CharString name="Udieresis">
          -41 callsubr
          109 105 hstemhm
          57 130 -16 101 48 102 -15 130 hintmask 11101100
          222 925 rmoveto
          -104 callgsubr
          hintmask 11110010
          35 -702 -103 callgsubr
          endchar
        </CharString>
        <CharString name="Ugrave">
          -41 callsubr
          246 -20 hstemhm
          57 130 -8 202 26 130 hintmask 11110100
          -93 callsubr
          -80 124 -68 callsubr
          hintmask 11101100
          -103 callsubr
        </CharString>
        <CharString name="Uhungarumlaut">
          -41 callsubr
          98 150 -61 callgsubr
          -94 213 -98 callsubr
          endchar
        </CharString>
        <CharString name="Umacron">
          -41 callsubr
          142 85 -61 callgsubr
          -255 204 rmoveto
          -95 callsubr
          endchar
        </CharString>
        <CharString name="Uogonek">
          88 -213 55 152 2 callgsubr
          -20 hstemhm
          57 130 66 13 callgsubr
          8 130 hintmask 11110110
          407 223 rmoveto
          -78 -41 -37 -69 -69 -41 37 78 -92 callsubr
          -468 -14 callsubr
          105 -62 135 vhcurveto
          9 hlineto
          -33 -34 -20 -42 -41 -72 callsubr
          hintmask 11111010
          -50 callgsubr
          84 26 59 66 124 vvcurveto
          468 -99 callgsubr
          endchar
        </CharString>
        <CharString name="Uring">
          -41 callsubr
          101 52 93 55 hstem
          57 130 11 51 91 54 13 -14 callgsubr
          295 1012 rmoveto
          -83 callsubr
          67 -689 -103 callgsubr
          endchar
        </CharString>
        <CharString name="Utilde">
          -41 callsubr
          120 13 callsubr
          57 130 220 130 hintmask 11011100
          -93 callsubr
          -171 169 rmoveto
          hintmask 11101100
          -91 callsubr
          hintmask 11011100
          -91 callgsubr
          endchar
        </CharString>
        <CharString name="V">
          69 15 -21 737 -20 hstem
          204 38 rmoveto
          -30 10 36 -14 38 hhcurveto
          38 37 14 30 9 hvcurveto
          192 629 rlineto
          1 4 1 3 3 vvcurveto
          31 -47 23 -35 -22 -17 -7 -19 -5 vhcurveto
          -152 -542 -153 542 rlineto
          19 -5 -17 7 -22 hhcurveto
          -35 -47 -22 -32 -2 1 -4 1 -4 hvcurveto
          endchar
        </CharString>
        <CharString name="W">
          0 callgsubr
          hstem
          872 667 -102 callsubr
          endchar
        </CharString>
        <CharString name="Wacute">
          0 callgsubr
          246 -20 hstem
          357 202 vstem
          541 878 rmoveto
          -107 callsubr
          461 -148 -102 callsubr
          endchar
        </CharString>
        <CharString name="Wcircumflex">
          0 callgsubr
          246 -20 hstem
          442 878 -107 callgsubr
          534 -155 -102 callsubr
          endchar
        </CharString>
        <CharString name="Wdieresis">
          0 callgsubr
          109 105 hstem
          316 101 48 102 vstem
          367 925 rmoveto
          -104 callgsubr
          355 -258 -102 callsubr
          endchar
        </CharString>
        <CharString name="Wgrave">
          0 callgsubr
          246 -20 hstem
          325 202 vstem
          872 667 -102 callsubr
          -201 777 -68 callsubr
          -103 callsubr
        </CharString>
        <CharString name="X">
          55 16 -21 741 -20 hstem
          427 16 rmoveto
          -12 6 13 -9 16 hhcurveto
          36 49 29 36 7 -2 8 -5 9 hvcurveto
          -173 282 167 281 rlineto
          6 10 3 9 9 vvcurveto
          35 -46 26 -37 -21 -13 -11 -17 -10 vhcurveto
          -136 -245 -136 245 rlineto
          17 -9 -14 11 -20 hhcurveto
          -37 -46 -26 -35 -9 3 -9 6 -10 hvcurveto
          167 -281 -173 -282 rlineto
          -5 -9 -3 -8 -7 vvcurveto
          -36 50 -29 35 16 13 9 12 7 vhcurveto
          146 257 rlineto
          endchar
        </CharString>
        <CharString name="Y">
          68 -34 callsubr
          hstem
          222 -14 callgsubr
          -99 callsubr
          endchar
        </CharString>
        <CharString name="Yacute">
          68 -18 callgsubr
          202 202 -182 130 hintmask 11101000
          -99 callsubr
          164 585 rmoveto
          hintmask 11110000
          -70 callsubr
        </CharString>
        <CharString name="Ycircumflex">
          68 -21 callgsubr
          88 138 -20 hstem
          222 -14 callgsubr
          -99 callsubr
          66 585 -94 callsubr
        </CharString>
        <CharString name="Ydieresis">
          68 -34 callsubr
          109 105 hstemhm
          162 101 -41 130 -41 102 hintmask 11101000
          -99 callsubr
          -9 632 -42 callsubr
        </CharString>
        <CharString name="Ygrave">
          68 -18 callgsubr
          170 202 -150 130 hintmask 11101000
          -99 callsubr
          96 522 -68 callsubr
          hintmask 11110000
          -103 callsubr
        </CharString>
        <CharString name="Z">
          16 0 callsubr
          hstem
          476 649 -87 callsubr
          endchar
        </CharString>
        <CharString name="Zacute">
          16 0 callsubr
          226 -20 hstem
          184 202 vstem
          368 878 rmoveto
          -107 callsubr
          238 -166 -87 callsubr
          endchar
        </CharString>
        <CharString name="Zcaron">
          16 0 callsubr
          244 -20 hstem
          161 971 -106 callgsubr
          212 -256 -87 callsubr
          endchar
        </CharString>
        <CharString name="Zdotaccent">
          16 0 callsubr
          89 105 hstem
          220 101 vstem
          476 649 -87 callsubr
          91 811 -82 callgsubr
          endchar
        </CharString>
        <CharString name="a">
          -74 callgsubr
          -9 callgsubr
          hintmask 10110110
          -71 callgsubr
          hintmask 10101110
          -96 callgsubr
          hintmask 01110110
          -85 callgsubr
          hintmask 10110110
          -81 callgsubr
          endchar
        </CharString>
        <CharString name="a.ss01">
          -13 -9 96 117 66 75 136 -105 105 -9 callgsubr
          -129 193 hintmask 11101100
          217 481 rmoveto
          -78 -89 -27 -49 -21 15 -39 28 hvcurveto
          hintmask 11011100
          23 22 31 63 hhcurveto
          77 18 -49 -43 hvcurveto
          -14 -41 vlineto
          -137 -96 -31 -115 -92 62 -41 72 68 54 37 42 37 hvcurveto
          -47 7 46 -32 60 hhcurveto
          hintmask 11101010
          32 29 14 52 33 -8 13 -22 4 hvcurveto
          hintmask 11101100
          -18 2 -16 8 50 vvcurveto
          119 vlineto
          100 -63 95 -145 vhcurveto
          79 -298 rmoveto
          -49 -50 -47 -45 -26 -24 17 36 57 61 7 69 vhcurveto
          15 hlineto
          endchar
        </CharString>
        <CharString name="aacute">
          -74 callgsubr
          233 -20 14 callgsubr
          -9 202 -48 129 hintmask 1011011010000000
          -71 callgsubr
          hintmask 1010111010000000
          -96 callgsubr
          hintmask 0111011010000000
          -85 callgsubr
          hintmask 1011011010000000
          -81 callgsubr
          30 431 rmoveto
          hintmask 1011010100000000
          -70 callsubr
        </CharString>
        <CharString name="abreve">
          -74 callgsubr
          107 -15 callgsubr
          22 129 -56 70 131 65 -65 129 hintmask 1011010101000000
          -71 callgsubr
          hintmask 1010110101000000
          -96 callgsubr
          hintmask 0111010100100000
          -85 callgsubr
          hintmask 1011001101000000
          -81 callgsubr
          -5 517 rmoveto
          hintmask 1011010101000000
          -33 callgsubr
          hintmask 1011001011000000
          -90 callsubr
        </CharString>
        <CharString name="acircumflex">
          -35 -9 96 -66 -21 87 117 0 67 0 74 0 136 -105 105 0 95 138 -20 -9 callgsubr
          hintmask 1001000111100000
          221 635 -107 callgsubr
          93 -98 rmoveto
          -71 -89 -31 -41 hvcurveto
          hintmask 1000101011100000
          -29 15 -35 29 vhcurveto
          -96 callgsubr
          hintmask 0101010011100000
          -85 callgsubr
          hintmask 0110010011100000
          -81 callgsubr
          endchar
        </CharString>
        <CharString name="acute">
          28 callgsubr
          184 635 -38 callsubr
        </CharString>
        <CharString name="adieresis">
          -74 callgsubr
          96 105 14 callgsubr
          -51 101 48 102 -55 129 hintmask 1011011010000000
          151 682 rmoveto
          hintmask 1011010110000000
          -28 -23 -24 -28 hvcurveto
          hintmask 1011011010000000
          -28 23 -25 28 vhcurveto
          hintmask 1011010110000000
          28 22 25 28 hvcurveto
          hintmask 1011011010000000
          28 -22 24 -28 vhcurveto
          150 hmoveto
          -29 -23 -24 -28 -28 23 -25 29 27 23 25 28 28 -23 24 -27 hvcurveto
          -91 -201 rmoveto
          -71 -89 -31 -41 -29 15 -35 29 hvcurveto
          hintmask 1010111001000000
          -96 callgsubr
          hintmask 0111011001000000
          -85 callgsubr
          hintmask 1011011001000000
          -81 callgsubr
          endchar
        </CharString>
        <CharString name="ae">
          242 -9 102 -102 140 73 67 74 136 -104 104 14 callgsubr
          144 130 175 121 hintmask 10110111
          514 481 -3 callgsubr
          hintmask 10101111
          -40 callsubr
          hintmask 01110111
          21 -18 36 -30 vhcurveto
          hintmask 10110111
          -63 callsubr
        </CharString>
        <CharString name="aeacute">
          242 -9 102 -102 140 73 67 74 136 -104 104 233 -20 14 callgsubr
          132 202 -190 130 175 121 hintmask 1011011101000000
          467 635 rmoveto
          -107 callsubr
          177 -91 -3 callgsubr
          hintmask 1010111011000000
          -40 callsubr
          hintmask 0111011101000000
          21 -18 36 -30 vhcurveto
          hintmask 1011011011000000
          -63 callsubr
        </CharString>
        <CharString name="agrave">
          -74 callgsubr
          233 -20 14 callgsubr
          -25 202 -32 129 hintmask 1011011010000000
          -71 callgsubr
          hintmask 1010111010000000
          -96 callgsubr
          hintmask 0111011010000000
          -85 callgsubr
          hintmask 1011011010000000
          -81 callgsubr
          -22 368 -68 callsubr
          hintmask 1011010100000000
          -103 callsubr
        </CharString>
        <CharString name="amacron">
          -74 callgsubr
          129 85 -9 callgsubr
          hintmask 10110111
          -71 callgsubr
          hintmask 10101111
          -96 callgsubr
          hintmask 01110111
          -85 callgsubr
          hintmask 10110111
          -81 callgsubr
          -208 448 rmoveto
          -95 callsubr
          endchar
        </CharString>
        <CharString name="ampersand">
          136 -10 113 -91 -21 580 177 -104 104 hstemhm
          22 131 -76 122 hintmask 10101000
          273 -10 rmoveto
          87 67 33 47 50 hvcurveto
          62 -64 rlineto
          hintmask 01010100
          -12 12 9 -3 11 hhcurveto
          30 30 26 27 7 -2 8 -6 7 hvcurveto
          -81 84 rlineto
          40 67 16 77 50 vvcurveto
          38 -10 22 -45 -45 -10 -14 -26 -3 vhcurveto
          -3 -33 3 -49 -22 -51 -161 170 rcurveline
          -42 44 -61 56 60 vvcurveto
          53 38 30 51 vhcurveto
          hintmask 10100100
          81 8 -73 45 hhcurveto
          30 31 30 30 47 -75 70 -121 -116 -94 -66 -115 -66 32 -45 38 -43 hvcurveto
          hintmask 10101000
          -66 -36 -59 -75 -92 vvcurveto
          -117 97 -103 154 vhcurveto
          15 113 rmoveto
          -87 -48 52 66 55 33 36 34 25 hvcurveto
          180 -188 rlineto
          -27 -24 -37 -19 -51 hhcurveto
          endchar
        </CharString>
        <CharString name="aogonek">
          -35 -213 55 149 96 117 67 74 136 -105 105 14 callgsubr
          106 13 callgsubr
          -107 129 hintmask 1111011000000000
          380 -158 rmoveto
          -50 callgsubr
          hintmask 1111010010000000
          16 7 11 12 15 vvcurveto
          245 vlineto
          101 -59 94 -156 -71 -89 -31 -41 -29 15 -35 29 vhcurveto
          hintmask 1110110010000000
          -96 callgsubr
          -14 8 -11 14 -8 vhcurveto
          hintmask 1111010100000000
          -43 -35 -26 -49 -47 -72 callsubr
          hintmask 1111010010000000
          -84 341 rmoveto
          -81 callgsubr
          endchar
        </CharString>
        <CharString name="approxequal">
          -60 113 92 -63 63 115 93 -64 64 hstemhm
          hintmask 10010000
          167 349 rmoveto
          hintmask 10100000
          50 27 -29 66 hhcurveto
          21 63 6 65 11 -7 34 -25 hvcurveto
          -22 -17 -23 -43 hhcurveto
          hintmask 01010000
          -54 -29 29 -59 hhcurveto
          -22 -64 -7 -65 -11 7 -34 26 hvcurveto
          21 19 24 42 hhcurveto
          -207 vmoveto
          hintmask 10100000
          50 27 -29 66 hhcurveto
          21 63 5 66 11 -7 34 -25 hvcurveto
          -22 -17 -24 -43 hhcurveto
          hintmask 01100000
          -54 -29 29 -59 hhcurveto
          -22 -64 -7 -64 -11 7 -34 26 hvcurveto
          21 19 24 42 hhcurveto
          endchar
        </CharString>
        <CharString name="aring">
          -74 callgsubr
          88 52 93 55 14 callgsubr
          -21 51 91 54 -30 129 hintmask 1011011101000000
          -71 callgsubr
          hintmask 1010111100100000
          -96 callgsubr
          hintmask 0111011100100000
          -85 callgsubr
          hintmask 1011011100100000
          -81 callgsubr
          -69 565 rmoveto
          hintmask 1011011011000000
          -83 callsubr
          endchar
        </CharString>
        <CharString name="arrowdown">
          26 callgsubr
          164 rmoveto
          -10 3 -9 7 -7 vhcurveto
          196 -196 11 -11 10 -5 10 -1 rlinecurve
          9 10 6 11 11 hvcurveto
          196 196 rlineto
          6 7 4 9 10 vvcurveto
          29 -31 31 -30 -10 -8 -3 -7 -7 vhcurveto
          -97 -97 rlineto
          399 vlineto
          24 -21 16 -32 -31 -23 -16 -24 vhcurveto
          -399 vlineto
          -97 97 rlineto
          7 -7 -8 3 -10 hhcurveto
          -30 -31 -31 -29 hvcurveto
          endchar
        </CharString>
        <CharString name="arrowleft">
          36 callsubr
          309 477 rmoveto
          -10 -9 -4 -6 -7 hvcurveto
          -196 -196 rlineto
          -12 -12 -5 -10 -9 vvcurveto
          -9 6 -10 11 -11 vhcurveto
          196 -196 rlineto
          -7 7 9 -3 10 hhcurveto
          29 31 31 30 10 -3 8 -7 7 hvcurveto
          -97 97 rlineto
          399 hlineto
          24 16 21 32 30 -16 24 -24 hvcurveto
          -399 hlineto
          97 97 rlineto
          7 7 3 8 10 vvcurveto
          30 -31 31 -29 vhcurveto
          endchar
        </CharString>
        <CharString name="arrowright">
          36 callsubr
          462 477 rmoveto
          -29 -31 -31 -30 -10 3 -8 7 -7 hvcurveto
          97 -97 rlineto
          -399 10 callsubr
          399 hlineto
          -97 -97 rlineto
          -7 -7 -3 -8 -10 vvcurveto
          -30 31 -31 29 10 9 3 7 7 vhcurveto
          196 196 rlineto
          11 11 6 10 9 vvcurveto
          10 -6 9 -11 12 vhcurveto
          -196 196 rlineto
          6 -7 -9 4 -10 hhcurveto
          endchar
        </CharString>
        <CharString name="arrowup">
          26 callgsubr
          317 rmoveto
          -29 31 -31 30 10 8 3 7 7 vhcurveto
          97 97 rlineto
          -399 vlineto
          -24 23 -16 31 32 21 16 24 vhcurveto
          399 vlineto
          97 -97 rlineto
          -7 7 8 -3 10 hhcurveto
          30 31 31 29 10 -4 9 -6 7 hvcurveto
          -196 196 rlineto
          11 -11 -10 6 -9 hhcurveto
          -10 -1 -10 -5 -11 -11 -196 -196 rcurveline
          -7 -7 -3 -9 -10 vvcurveto
          endchar
        </CharString>
        <CharString name="asciicircum">
          -221 597 -21 138 -20 hstem
          143 635 -94 callsubr
        </CharString>
        <CharString name="asciitilde">
          -95 199 13 callsubr
          hintmask 01000000
          150 228 rmoveto
          hintmask 10000000
          -91 callsubr
          hintmask 01000000
          -91 callgsubr
          endchar
        </CharString>
        <CharString name="asterisk">
          -36 347 -21 405 -20 hstem
          191 87 vstem
          308 501 rmoveto
          108 27 rlineto
          21 4 9 17 17 vvcurveto
          25 -18 28 -27 -4 -4 -1 4 callsubr
          -112 -38 5 112 rlineto
          28 -1 -21 13 -24 hhcurveto
          -24 -21 -13 -28 -1 hvcurveto
          5 -111 -111 37 rlineto
          3 -6 -4 0 -3 hhcurveto
          -27 -20 -25 -23 -21 9 -18 20 -4 hvcurveto
          111 -32 -70 -98 rlineto
          -6 -7 -5 -9 -11 vvcurveto
          -28 34 -17 20 12 10 3 13 8 vhcurveto
          69 104 68 -103 rlineto
          -15 10 13 -2 10 hhcurveto
          25 27 19 28 9 -3 10 -4 5 hvcurveto
          endchar
        </CharString>
        <CharString name="at">
          231 -132 74 -74 100 49 60 122 56 58 115 -88 88 68 74 hstemhm
          38 84 87 103 130 94 94 82 hintmask 1011101111100000
          232 361 rmoveto
          -16 13 -32 18 vhcurveto
          hintmask 0111011111100000
          18 19 27 61 hhcurveto
          56 25 -23 -47 hvcurveto
          -15 -32 vlineto
          -116 -85 -29 -94 -81 64 -34 61 55 38 27 41 32 hvcurveto
          -41 9 39 -32 57 hhcurveto
          103 45 104 123 205 -122 126 -210 -233 -109 -159 -202 -231 143 -110 154 64 116 19 43 13 -11 25 -21 hvcurveto
          hintmask 1011101111100000
          -22 -30 -26 -81 hhcurveto
          -176 -52 126 142 152 59 134 199 172 78 -99 -178 -50 -7 -92 -51 -19 -12 13 35 -5 hvcurveto
          169 vlineto
          89 -76 45 -85 -69 -74 -29 -38 vhcurveto
          215 -193 rmoveto
          -41 -43 -41 -46 -27 -19 16 32 47 41 18 69 vhcurveto
          25 hlineto
          endchar
        </CharString>
        <CharString name="atilde">
          -74 callgsubr
          107 86 -57 57 -9 callgsubr
          hintmask 1011010110000000
          -71 callgsubr
          hintmask 1010110110000000
          -96 callgsubr
          hintmask 0111010110000000
          -85 callgsubr
          hintmask 1011001110000000
          -81 callgsubr
          -125 413 rmoveto
          hintmask 1011010110000000
          -91 callsubr
          hintmask 1011001110000000
          -91 callgsubr
          endchar
        </CharString>
        <CharString name="b">
          13 0 104 -92 -21 377 113 271 -20 hstemhm
          51 129 177 129 hintmask 10111100
          114 752 rmoveto
          -37 -26 -20 callsubr
          -671 vlineto
          -17 callgsubr
          37 32 26 -28 callsubr
          29 vlineto
          hintmask 01111100
          -41 20 56 -38 63 hhcurveto
          93 82 98 107 hvcurveto
          15 callgsubr
          -80 92 -98 -62 -45 -37 -39 -21 vhcurveto
          307 12 callsubr
          -36 vhcurveto
          243 -556 rmoveto
          hintmask 10111100
          -46 -39 -46 -48 -51 -39 53 21 vhcurveto
          100 34 callgsubr
        </CharString>
        <CharString name="b.ss02">
          7 -9 -67 callgsubr
          271 -20 hstem
          46 129 177 -7 callsubr
          481 278 rmoveto
          111 -80 92 -98 -62 -45 -37 -39 -21 vhcurveto
          307 vlineto
          24 -29 16 -37 -37 -26 -16 -24 vhcurveto
          -522 vlineto
          -112 102 -87 114 125 94 102 103 vhcurveto
          -129 hmoveto
          -43 -33 -49 -57 -48 -39 38 50 vhcurveto
          86 34 callgsubr
        </CharString>
        <CharString name="backslash">
          -136 20 -21 756 -20 hstem
          264 27 rmoveto
          -17 6 15 -11 18 hhcurveto
          26 22 23 23 4 0 4 -2 4 hvcurveto
          -243 672 rlineto
          18 -6 -16 8 -16 hhcurveto
          -27 -22 -21 -23 -5 1 -4 1 -5 hvcurveto
          endchar
        </CharString>
        <CharString name="bar">
          -265 0 -21 789 -20 hstem
          56 -7 callsubr
          120 768 rmoveto
          -37 -27 -17 -23 hvcurveto
          -708 vlineto
          -20 27 -21 37 36 29 -28 callsubr
          708 vlineto
          23 -29 17 -36 vhcurveto
          endchar
        </CharString>
        <CharString name="braceleft">
          45 callgsubr
          21 174 7 callgsubr
          -114 130 hintmask 11100000
          21 386 rmoveto
          hintmask 11001000
          -62 60 27 -40 vvcurveto
          hintmask 11010000
          -21 -16 -115 -34 vvcurveto
          -95 105 -66 103 47 26 18 38 21 -8 33 -32 -37 -74 13 53 vhcurveto
          hintmask 11001000
          24 16 121 25 vvcurveto
          29 -22 25 -14 4 vhcurveto
          12 4 24 27 28 vvcurveto
          hintmask 11010000
          23 -16 87 26 vvcurveto
          56 70 23 41 27 13 28 25 27 -15 30 -56 -104 -106 -82 -90 vhcurveto
          hintmask 11001000
          -32 16 -85 -20 vvcurveto
          hintmask 11100000
          -39 -60 28 -62 vvcurveto
          endchar
        </CharString>
        <CharString name="braceright">
          45 callgsubr
          150 130 -130 190 -174 130 hintmask 11010000
          340 386 rmoveto
          hintmask 11100000
          62 -60 -28 39 vvcurveto
          hintmask 11001000
          20 16 85 32 vvcurveto
          90 -105 82 -104 -56 -16 -30 -27 -25 14 -28 27 41 69 -23 -56 vhcurveto
          hintmask 11100000
          -26 -16 -87 -23 vvcurveto
          -28 24 -27 12 -4 vhcurveto
          -13 -4 -23 -25 -29 vvcurveto
          hintmask 11001000
          -25 16 -121 -24 vvcurveto
          -53 -73 -13 -37 -32 -9 -33 -21 -38 26 -18 47 104 104 66 95 vhcurveto
          hintmask 11100000
          34 -16 115 21 vvcurveto
          hintmask 11010000
          40 60 -27 62 vvcurveto
          endchar
        </CharString>
        <CharString name="bracketleft">
          -165 -21 114 561 114 hstem
          56 -14 callgsubr
          186 654 rmoveto
          99 hlineto
          25 15 38 callgsubr
          -172 hlineto
          -29 -28 -14 -27 hvcurveto
          -707 vlineto
          -27 29 -14 28 vhcurveto
          172 hlineto
          28 12 29 27 31 -15 27 -25 hvcurveto
          -99 hlineto
          endchar
        </CharString>
        <CharString name="bracketright">
          -164 -21 114 561 114 hstem
          156 -14 callgsubr
          156 93 rmoveto
          -99 hlineto
          -26 -15 -27 -31 -27 13 -29 28 hvcurveto
          171 hlineto
          29 29 14 27 hvcurveto
          707 vlineto
          27 -29 14 -29 vhcurveto
          -171 hlineto
          -28 -13 -29 -27 -31 15 -27 26 hvcurveto
          99 hlineto
          endchar
        </CharString>
        <CharString name="breve">
          -240 588 -15 callgsubr
          0 70 hintmask 01100000
          196 721 rmoveto
          hintmask 10100000
          -33 callgsubr
          hintmask 01100000
          -90 callsubr
        </CharString>
        <CharString name="brokenbar">
          -267 0 -21 789 -20 hstem
          55 -7 callsubr
          119 768 rmoveto
          -37 -27 -17 -23 hvcurveto
          -250 vlineto
          -21 27 -21 37 36 29 21 21 vhcurveto
          250 vlineto
          23 -29 17 -36 vhcurveto
          -457 vmoveto
          -37 -27 -17 -24 hvcurveto
          -250 vlineto
          -20 27 -21 37 36 29 -28 callsubr
          250 vlineto
          24 -29 17 -36 vhcurveto
          endchar
        </CharString>
        <CharString name="bullet">
          -177 194 -21 253 -20 hstem
          165 426 rmoveto
          -71 -61 -59 -67 -68 61 -59 71 70 61 59 68 67 -61 59 -70 hvcurveto
          endchar
        </CharString>
        <CharString name="c">
          -45 callgsubr
          hstemhm
          34 129 hintmask 01101000
          251 -9 -27 callgsubr
          hintmask 10011000
          -72 callgsubr
          hintmask 01101000
          -80 callgsubr
          endchar
        </CharString>
        <CharString name="cacute">
          -45 callgsubr
          233 -20 hstemhm
          34 129 -21 202 hintmask 01101010
          326 635 rmoveto
          -107 callsubr
          55 -581 -27 callgsubr
          hintmask 10011100
          -72 callgsubr
          hintmask 01101100
          -80 callgsubr
          endchar
        </CharString>
        <CharString name="caron">
          -217 604 -21 149 -20 hstem
          42 728 -106 callgsubr
          endchar
        </CharString>
        <CharString name="caron.alt">
          -371 40 callsubr
          0 135 vstem
          67 741 -86 callsubr
          endchar
        </CharString>
        <CharString name="ccaron">
          -45 callgsubr
          251 -20 hstemhm
          34 129 hintmask 01101100
          128 728 -106 callgsubr
          20 -671 -27 callgsubr
          hintmask 10011100
          -72 callgsubr
          hintmask 01101100
          -80 callgsubr
          endchar
        </CharString>
        <CharString name="ccedilla">
          -72 -10 callsubr
          391 141 -113 113 hstemhm
          34 129 8 190 -62 62 hintmask 10001101
          416 73 rmoveto
          25 -20 36 -35 vhcurveto
          -72 callgsubr
          hintmask 10010101
          59 18 -28 22 hhcurveto
          31 20 39 24 39 -66 39 -94 -151 -65 -90 -115 hvcurveto
          -80 vlineto
          -109 57 -83 128 -11 vhcurveto
          -23 -82 -36 callgsubr
          hintmask 01010110
          -65 callgsubr
          hintmask 00110110
          11 callsubr
          13 43 rlineto
          82 7 59 37 37 vvcurveto
          endchar
        </CharString>
        <CharString name="ccircumflex">
          -72 -9 113 30 234 -28 141 0 95 138 -20 hstemhm
          34 129 hintmask 11011100
          236 635 -107 callgsubr
          119 -588 -27 callgsubr
          -72 callgsubr
          hintmask 10101100
          -80 callgsubr
          endchar
        </CharString>
        <CharString name="cdotaccent">
          -45 callgsubr
          96 105 hstemhm
          34 129 19 101 hintmask 01101110
          251 -9 -27 callgsubr
          hintmask 10011110
          -72 callgsubr
          hintmask 01101110
          -80 callgsubr
          -18 691 -82 callgsubr
          endchar
        </CharString>
        <CharString name="cedilla">
          -316 -10 callsubr
          60 -20 hstemhm
          0 190 -62 62 hintmask 10010100
          110 9 rmoveto
          -57 hlineto
          -28 -98 -36 callgsubr
          hintmask 01011000
          -65 callgsubr
          hintmask 00111000
          11 callsubr
          endchar
        </CharString>
        <CharString name="cent">
          -74 60 -21 656 -20 hstemhm
          24 113 69 76 -76 200 hintmask 11110000
          244 695 rmoveto
          -21 -17 -14 -21 hvcurveto
          -77 vlineto
          -127 -13 -55 -84 -107 vvcurveto
          -18 vlineto
          -108 55 -84 127 -12 vhcurveto
          -81 vlineto
          -19 17 -18 21 20 18 18 19 vhcurveto
          82 vlineto
          hintmask 11101000
          69 11 55 33 35 vvcurveto
          26 -21 32 -35 vhcurveto
          hintmask 11110000
          -18 -13 -20 -8 -37 hvcurveto
          207 vlineto
          -7 37 15 -19 16 hhcurveto
          31 21 34 25 34 -50 31 -70 9 hvcurveto
          79 vlineto
          21 -18 14 -20 vhcurveto
          -107 -316 rmoveto
          50 21 33 48 12 vhcurveto
          -209 vlineto
          -48 12 -21 33 51 vvcurveto
          endchar
        </CharString>
        <CharString name="circumflex">
          -221 597 -21 138 -20 hstem
          143 635 -94 callsubr
        </CharString>
        <CharString name="colon">
          -283 -6 136 156 136 hstem
          44 135 vstem
          112 -37 callgsubr
          292 vmoveto
          -29 callsubr
        </CharString>
        <CharString name="comma">
          -313 39 callgsubr
          vstem
          96 130 -84 callgsubr
          13 6 vhcurveto
          53 124 2 11 11 vvcurveto
          37 -31 30 -37 vhcurveto
          endchar
        </CharString>
        <CharString name="commaaccent">
          -260 -173 -21 146 -20 hstem
          17 202 vstem
          201 -105 callgsubr
          endchar
        </CharString>
        <CharString name="copyright">
          184 35 62 73 65 -65 146 106 142 -65 65 59 62 hstemhm
          38 62 127 71 100 71 121 62 hintmask 1011011111000000
          -25 callsubr
          552 4 -19 callsubr
          -192 83 rmoveto
          -17 1 15 -6 20 hhcurveto
          24 11 7 29 65 -52 41 -71 -65 -54 -35 -93 hvcurveto
          -138 vlineto
          -94 54 -34 65 71 52 42 68 29 -11 7 -25 -19 -15 -5 -17 -1 vhcurveto
          hintmask 1100111111000000
          -23 -2 -3 -36 -44 hhcurveto
          -33 -18 19 44 hvcurveto
          138 vlineto
          43 18 20 33 45 3 -37 -17 1 vhcurveto
          endchar
        </CharString>
        <CharString name="currency">
          -54 290 72 218 72 hstem
          49 71 213 71 vstem
          226 652 rmoveto
          -42 -38 -15 -25 -31 hvcurveto
          -24 23 rlineto
          3 -4 -5 2 -4 hhcurveto
          -15 -13 -14 -14 -5 2 -5 3 -3 hvcurveto
          26 -25 rlineto
          -20 -29 -12 -36 -37 vvcurveto
          -37 12 -36 21 -29 vhcurveto
          -28 -26 rlineto
          -4 -4 -2 -4 -5 vvcurveto
          -14 13 -14 15 4 5 1 4 5 vhcurveto
          25 24 rlineto
          -26 32 38 -16 41 hhcurveto
          40 38 15 26 31 hvcurveto
          25 -23 rlineto
          -4 5 5 -1 4 hhcurveto
          14 14 14 14 5 -2 4 -4 4 hvcurveto
          -27 25 rlineto
          22 29 13 36 39 vvcurveto
          38 -13 36 -21 28 vhcurveto
          26 25 rlineto
          4 4 2 4 5 vvcurveto
          14 -14 14 -14 -4 -5 -1 -4 -5 vhcurveto
          -25 -23 rlineto
          24 -31 -38 15 -40 hhcurveto
          -5 callgsubr
        </CharString>
        <CharString name="d">
          14 -9 113 -83 -50 callsubr
          271 22 callsubr
          hintmask 10111100
          405 752 rmoveto
          -36 -29 -20 callsubr
          -307 vlineto
          -51 callgsubr
          hintmask 01111100
          -17 callgsubr
          32 37 27 -28 callsubr
          671 vlineto
          -39 callgsubr
          hintmask 10111100
          8 callsubr
        </CharString>
        <CharString name="dagger">
          -65 0 -21 428 95 229 -20 hstem
          155 -14 callgsubr
          20 454 rmoveto
          -30 16 -20 24 vhcurveto
          95 6 rlineto
          -383 vlineto
          -25 29 -23 36 33 32 23 25 vhcurveto
          383 vlineto
          95 -6 rlineto
          21 21 20 30 28 -21 23 -21 hvcurveto
          -95 -6 rlineto
          192 vlineto
          21 -32 19 -33 23 callsubr
          hvcurveto
          endchar
        </CharString>
        <CharString name="daggerdbl">
          -57 0 -21 215 95 118 95 229 -20 hstem
          159 -14 callgsubr
          24 241 rmoveto
          -30 16 -20 24 vhcurveto
          95 6 rlineto
          -170 vlineto
          -25 29 -23 36 32 33 23 25 vhcurveto
          170 21 callgsubr
          124 21 callgsubr
          192 vlineto
          21 -33 19 -32 23 callsubr
          -30 16 -20 24 hvcurveto
          95 6 rlineto
          -124 vlineto
          -95 6 rlineto
          -24 -16 -23 -28 hvcurveto
          endchar
        </CharString>
        <CharString name="dcaron">
          14 -9 113 -83 -50 callsubr
          30 230 11 22 callsubr
          50 135 hintmask 10110111
          586 741 -86 callsubr
          hintmask 10101111
          -181 11 rmoveto
          -36 -29 -20 callsubr
          -307 vlineto
          -51 callgsubr
          hintmask 01101111
          -17 callgsubr
          32 37 27 -28 callsubr
          671 vlineto
          -39 callgsubr
          hintmask 10110111
          8 callsubr
        </CharString>
        <CharString name="dcroat">
          14 -9 113 -83 -50 callsubr
          72 94 -94 199 hstemhm
          33 129 66 241 -129 129 -129 192 hintmask 1010110100000000
          405 752 rmoveto
          -36 -29 -20 callsubr
          hintmask 1011010100000000
          -65 -78 vlineto
          hintmask 1011011000000000
          -22 -12 -24 -23 -24 12 -23 22 hvcurveto
          hintmask 1011010100000000
          78 -148 hlineto
          -51 callgsubr
          hintmask 0111011000000000
          -17 callgsubr
          32 37 27 -28 callsubr
          512 29 vlineto
          hintmask 1011010010000000
          22 12 22 25 23 -12 24 -22 hvcurveto
          hintmask 1011011000000000
          -29 65 hlineto
          hintmask 1010110100000000
          -39 callgsubr
          8 callsubr
        </CharString>
        <CharString name="degree">
          -107 406 72 218 72 hstem
          22 71 213 71 vstem
          199 768 rmoveto
          -97 -80 -84 -96 -96 82 -86 95 95 83 86 97 97 -83 82 -95 hvcurveto
          -5 callgsubr
        </CharString>
        <CharString name="dieresis">
          -255 577 105 hstem
          0 101 48 102 vstem
          51 682 rmoveto
          -104 callgsubr
          endchar
        </CharString>
        <CharString name="divide">
          -60 10 118 61 100 61 118 hstem
          158 123 cntrmask 11100000
          22 238 rmoveto
          -30 18 -19 24 vhcurveto
          317 hlineto
          22 21 19 30 29 -21 22 -22 hvcurveto
          -317 hlineto
          -24 -18 -22 -29 hvcurveto
          198 -110 rmoveto
          -33 -29 -25 -34 -32 29 -27 33 30 31 27 32 34 -31 25 -30 hvcurveto
          340 vmoveto
          -33 -29 -27 -32 -33 29 -26 33 30 31 26 33 32 -31 27 -30 hvcurveto
          endchar
        </CharString>
        <CharString name="dollar">
          19 -31 -21 53 194 374 148 -111 111 -111 162 hstemhm
          44 122 72 68 -68 239 -104 122 hintmask 1101011010000000
          238 -27 rmoveto
          -13 15 -12 19 17 17 12 13 vhcurveto
          31 vlineto
          112 18 77 71 123 vvcurveto
          136 -100 45 -89 33 vhcurveto
          176 vlineto
          hintmask 1110010100000000
          -5 67 23 -32 28 hhcurveto
          37 16 46 23 hvcurveto
          hintmask 1110011010000000
          58 -106 19 -65 2 vhcurveto
          26 vlineto
          hintmask 1100111010000000
          13 -17 12 -17 -19 -15 -12 -13 vhcurveto
          -28 vlineto
          -100 -13 -94 -55 -127 vvcurveto
          -128 103 -39 91 -34 vhcurveto
          -199 vlineto
          10 -88 -30 65 -38 hhcurveto
          -31 -25 -42 -28 -56 91 -65 121 -3 hvcurveto
          135 202 rmoveto
          -47 -31 -26 -44 -9 vhcurveto
          174 vlineto
          43 -19 32 -24 -49 vvcurveto
          -207 330 rmoveto
          38 30 24 50 8 vhcurveto
          -151 vlineto
          -46 18 -34 19 44 vvcurveto
          endchar
        </CharString>
        <CharString name="dotaccent">
          -315 577 105 hstem
          49 101 vstem
          100 682 -82 callgsubr
          endchar
        </CharString>
        <CharString name="dotlessi">
          -9 callsubr
          hstem
          50 -7 callsubr
          114 475 rmoveto
          -92 callgsubr
          endchar
        </CharString>
        <CharString name="dotlessj">
          -275 3 callgsubr
          587 -20 hstemhm
          -38 1 callsubr
          hintmask 11010000
          114 475 -37 callsubr
          hintmask 11100000
          -60 callsubr
          467 vlineto
          24 -29 16 -37 vhcurveto
          endchar
        </CharString>
        <CharString name="e">
          -58 callsubr
          -22 callsubr
          175 121 hintmask 01111100
          251 481 rmoveto
          -89 callsubr
          hintmask 10111100
          -100 callsubr
          endchar
        </CharString>
        <CharString name="eacute">
          -58 callsubr
          -1 callsubr
          -10 202 -17 121 hintmask 10111010
          335 635 rmoveto
          -107 callsubr
          46 -91 rmoveto
          hintmask 01111101
          -89 callsubr
          hintmask 10111101
          -100 callsubr
          endchar
        </CharString>
        <CharString name="ebreve">
          -58 callsubr
          107 -15 callgsubr
          32 129 -45 70 150 121 hintmask 0111101010000000
          251 481 rmoveto
          -89 callsubr
          hintmask 1011011010000000
          -100 callsubr
          5 441 rmoveto
          hintmask 1011101010000000
          -33 callgsubr
          hintmask 1011010110000000
          -90 callsubr
        </CharString>
        <CharString name="ecaron">
          -58 callsubr
          251 -20 41 callsubr
          148 728 -106 callgsubr
          -181 vmoveto
          -89 callsubr
          hintmask 10111110
          -100 callsubr
          endchar
        </CharString>
        <CharString name="ecircumflex">
          -22 -9 102 38 73 76 106 95 95 138 19 callsubr
          175 121 vstemhm
          249 635 -107 callgsubr
          106 -98 rmoveto
          -89 callsubr
          -30 -27 -38 -66 hhcurveto
          -70 -47 38 58 hvcurveto
          15 203 vlineto
          45 48 4 85 111 -96 77 -110 hvcurveto
          hintmask 11111110
          -90 -201 rmoveto
          28 vlineto
          48 42 30 45 48 40 -32 -47 -22 -8 -5 -21 vhcurveto
          endchar
        </CharString>
        <CharString name="edieresis">
          -58 callsubr
          96 105 -22 callsubr
          -39 101 48 102 -37 121 hintmask 1011101100000000
          173 682 rmoveto
          -104 callgsubr
          -72 -201 rmoveto
          hintmask 0111110100000000
          -89 callsubr
          hintmask 1011110010000000
          -100 callsubr
          endchar
        </CharString>
        <CharString name="edotaccent">
          -58 callsubr
          96 105 -22 callsubr
          37 101 37 121 hintmask 01111111
          251 481 rmoveto
          -89 callsubr
          hintmask 10111111
          -100 callsubr
          -58 402 -82 callgsubr
          endchar
        </CharString>
        <CharString name="egrave">
          -58 callsubr
          -1 callsubr
          -26 202 -1 121 hintmask 01111101
          251 481 rmoveto
          -89 callsubr
          hintmask 10111101
          -100 callsubr
          -24 292 -68 callsubr
          hintmask 10111010
          -103 callsubr
        </CharString>
        <CharString name="eight">
          27 -6 106 245 106 174 106 hstemhm
          32 130 -107 126 172 125 -107 107 -107 130 hintmask 11101100
          267 731 rmoveto
          -123 -89 -50 -127 -84 39 -50 57 -20 hvcurveto
          hintmask 11110001
          -71 -26 -48 -59 -103 vvcurveto
          -12 vlineto
          -149 103 -57 132 132 102 57 149 vhcurveto
          12 vlineto
          103 -47 59 -72 26 vhcurveto
          hintmask 11110010
          57 20 39 50 84 vvcurveto
          127 -89 50 -122 vhcurveto
          104 -516 rmoveto
          -78 -38 -37 -66 -65 -40 36 79 vhcurveto
          20 vlineto
          76 39 34 66 65 39 -34 -76 vhcurveto
          -104 390 rmoveto
          hintmask 11101100
          54 32 -25 -62 -62 -32 -25 -54 -55 -31 25 62 62 31 25 55 hvcurveto
          endchar
        </CharString>
        <CharString name="eightinferior">
          -171 -3 68 118 69 79 69 hstemhm
          25 -23 callsubr
          hintmask 11101100
          168 400 -36 callsubr
          hintmask 11110010
          -78 callgsubr
          hintmask 11110100
          -94 callgsubr
          endchar
        </CharString>
        <CharString name="eightsuperior">
          -172 328 68 119 69 79 68 hstemhm
          24 -23 callsubr
          hintmask 11101100
          167 731 rmoveto
          -75 -54 -29 -68 -46 24 -27 34 -11 hvcurveto
          hintmask 11110010
          -43 -14 -29 -33 -55 vvcurveto
          -7 vlineto
          -81 63 -32 80 80 62 32 81 vhcurveto
          7 vlineto
          55 -28 33 -44 14 vhcurveto
          hintmask 11110100
          35 11 23 27 46 vvcurveto
          68 -53 29 -75 vhcurveto
          56 -280 rmoveto
          -37 -20 -18 -36 -35 -22 18 37 vhcurveto
          12 vlineto
          36 21 16 36 35 21 -16 -36 vhcurveto
          -56 200 rmoveto
          29 16 -13 -27 -28 -16 -11 -29 -29 -17 11 28 27 17 13 29 hvcurveto
          endchar
        </CharString>
        <CharString name="ellipsis">
          69 -6 136 hstem
          28 135 58 135 56 135 vstem
          96 -37 callgsubr
          193 hmoveto
          -77 callsubr
          191 hmoveto
          -29 callsubr
        </CharString>
        <CharString name="emacron">
          -58 callsubr
          129 85 41 callsubr
          251 481 rmoveto
          -89 callsubr
          hintmask 10111110
          -100 callsubr
          -200 372 rmoveto
          -95 callsubr
          endchar
        </CharString>
        <CharString name="emdash">
          248 29 callgsubr
          601 44 callgsubr
          -601 -48 callsubr
        </CharString>
        <CharString name="endash">
          -33 187 107 hstem
          36 240 -73 callsubr
        </CharString>
        <CharString name="eng">
          18 3 callgsubr
          133 -31 callgsubr
          47 callgsubr
          80 1 callsubr
          hintmask 11101100
          305 481 rmoveto
          -67 -48 -37 -39 -19 hvcurveto
          30 vlineto
          hintmask 11011100
          24 -26 16 -31 -38 -27 callsubr
          38 -28 callgsubr
          237 vlineto
          hintmask 11101010
          14 callsubr
          48 39 -6 callgsubr
          -310 vlineto
          -46 -5 -34 -35 vhcurveto
          hintmask 11101100
          -60 callsubr
          310 4 callgsubr
          -80 92 -92 vhcurveto
          endchar
        </CharString>
        <CharString name="eogonek">
          -22 -208 55 144 102 111 76 106 95 -22 callsubr
          84 13 callgsubr
          -55 121 hintmask 11111010
          251 481 rmoveto
          -122 -97 -92 -108 hvcurveto
          -85 vlineto
          -123 100 -82 142 6 6 0 1 5 vhcurveto
          -29 -33 -17 -39 -38 -72 callsubr
          hintmask 11111101
          -50 callgsubr
          40 17 24 25 20 vvcurveto
          20 -19 37 -30 vhcurveto
          -100 callsubr
          endchar
        </CharString>
        <CharString name="equal">
          -61 91 107 96 107 hstem
          53 144 -34 callgsubr
          258 -57 callgsubr
          -258 hlineto
          -24 -16 -24 -30 hvcurveto
          203 vmoveto
          -32 16 -21 24 vhcurveto
          258 -57 callgsubr
          -258 -48 callsubr
        </CharString>
        <CharString name="estimated">
          51 -9 87 -87 140 81 60 132 77 hstemhm
          36 163 171 154 hintmask 01111100
          287 481 rmoveto
          -139 -112 -103 -120 hvcurveto
          -39 vlineto
          -137 113 -91 161 125 81 49 34 20 -16 37 -20 vhcurveto
          hintmask 10111100
          -24 -18 -53 -129 hhcurveto
          -90 -20 47 72 hvcurveto
          15 231 vlineto
          46 48 4 77 111 -111 77 -126 hvcurveto
          -88 -209 rmoveto
          28 vlineto
          79 33 25 53 54 31 -28 -77 -22 -8 -5 -21 vhcurveto
          endchar
        </CharString>
        <CharString name="eth">
          6 -9 -67 callgsubr
          41 231 hstem
          32 35 callsubr
          vstem
          453 654 rmoveto
          10 6 4 9 11 vvcurveto
          23 -22 27 -22 -5 -4 -1 -2 -4 vhcurveto
          -56 -34 rlineto
          38 -33 -39 22 -39 hhcurveto
          -48 -16 -40 -22 -22 14 -12 13 -11 hvcurveto
          12 -2 14 -6 11 -12 -46 -27 rcurveline
          -10 -6 -5 -10 -9 vvcurveto
          -24 24 -28 22 4 5 1 3 4 vhcurveto
          53 31 24 -41 19 -53 2 -60 rlinecurve
          42 -20 -50 36 -60 hhcurveto
          -98 -79 -92 -111 hvcurveto
          -82 vlineto
          -107 101 -98 117 117 101 97 108 vhcurveto
          152 vlineto
          88 -25 104 -43 82 vhcurveto
          -239 -344 rmoveto
          45 38 45 50 45 45 -37 -52 vhcurveto
          -83 vlineto
          -47 -39 -45 -50 -49 -40 45 47 vhcurveto
          endchar
        </CharString>
        <CharString name="exclam">
          -286 -6 136 605 -20 hstemhm
          47 111 -98 98 -98 112 hintmask 11001000
          172 680 rmoveto
          35 -29 20 -34 vhcurveto
          hintmask 11100000
          -35 -27 -20 -35 hvcurveto
          hintmask 11010000
          -132 13 -176 -132 vvcurveto
          -27 23 -11 26 20 29 11 27 vhcurveto
          hintmask 11001000
          132 14 176 132 vvcurveto
          -62 -550 rmoveto
          -39 -29 -31 -37 -36 29 -32 39 37 31 32 36 37 -31 31 -37 hvcurveto
          endchar
        </CharString>
        <CharString name="exclamdown">
          -285 15 -21 604 137 hstemhm
          48 112 -98 98 -98 111 hintmask 11100000
          48 48 rmoveto
          -34 28 -20 34 vhcurveto
          hintmask 11001000
          36 27 20 34 hvcurveto
          hintmask 11010000
          133 -13 176 132 vvcurveto
          26 -23 12 -27 -20 -28 -12 -26 vhcurveto
          hintmask 11100000
          -132 -14 -176 -133 vvcurveto
          62 550 rmoveto
          38 30 31 38 36 -30 32 -38 -37 -31 -32 -36 -38 31 -31 37 hvcurveto
          endchar
        </CharString>
        <CharString name="f">
          -166 21 -21 381 94 168 109 hstem
          51 -7 callsubr
          180 570 rmoveto
          45 31 28 43 vhcurveto
          32 hlineto
          33 16 27 28 27 -16 27 -33 hvcurveto
          -59 hlineto
          -96 -80 -84 -112 hvcurveto
          -516 vlineto
          -24 27 -16 36 35 31 16 24 vhcurveto
          341 122 vlineto
          21 12 23 24 23 -12 24 -21 hvcurveto
          -122 hlineto
          endchar
        </CharString>
        <CharString name="fi">
          60 21 -21 381 94 131 146 -109 109 hstemhm
          51 129 208 129 hintmask 11011100
          451 475 rmoveto
          -37 -26 -20 callsubr
          -394 vlineto
          -17 callgsubr
          37 36 -55 callgsubr
          394 12 callsubr
          -36 vhcurveto
          -152 168 rmoveto
          hintmask 11101100
          80 19 -37 25 hhcurveto
          31 15 58 17 42 -87 29 -84 -154 -93 -101 -118 -17 callsubr
          hintmask 11011100
          69 46 36 73 vhcurveto
          endchar
        </CharString>
        <CharString name="five">
          3 -6 114 -114 240 116 102 165 114 hstemhm
          18 -46 callgsubr
          hintmask 10111100
          175 452 rmoveto
          12 165 rlineto
          225 hlineto
          26 13 28 29 28 -13 29 -26 hvcurveto
          -308 hlineto
          -15 -8 -16 -25 -2 hvcurveto
          -26 -263 rlineto
          -9 -1 -9 -8 vvcurveto
          -31 11 -20 41 vhcurveto
          148 hlineto
          65 40 -36 -76 hvcurveto
          -19 vlineto
          -76 -40 -35 -66 -58 -45 27 49 vhcurveto
          hintmask 01111100
          28 -10 22 -55 -41 -24 -13 -46 -93 83 -88 153 129 104 61 164 vhcurveto
          19 vlineto
          157 -103 57 -132 vhcurveto
          endchar
        </CharString>
        <CharString name="fiveeighths">
          284 17 callgsubr
          76 72 -72 140 49 67 72 75 40 -20 hstemhm
          22 86 112 86 174 -23 callsubr
          hintmask 1111011111011000
          623 400 -36 callsubr
          hintmask 1111011111100100
          -78 callgsubr
          hintmask 1111011111101000
          -94 callgsubr
          -44 -47 callsubr
          -457 -187 -59 callsubr
          hintmask 1110111111101000
          -12 callsubr
        </CharString>
        <CharString name="fiveinferior">
          -183 -3 9 callgsubr
          253 rmoveto
          7 72 rlineto
          130 hlineto
          18 8 19 19 18 -8 19 -18 hvcurveto
          -185 hlineto
          -10 -5 -10 -17 -2 hvcurveto
          -14 -134 rlineto
          -1 -8 0 -5 -6 vvcurveto
          -20 7 -14 26 vhcurveto
          89 hlineto
          34 22 -17 -36 hvcurveto
          -10 vlineto
          -36 -22 -15 -36 -33 -21 11 21 vhcurveto
          hintmask 01111100
          18 -6 15 -38 -27 -15 -9 -30 -51 49 -50 94 78 63 34 92 vhcurveto
          10 vlineto
          88 -62 32 -80 vhcurveto
          endchar
        </CharString>
        <CharString name="fivesuperior">
          -183 328 9 callgsubr
          584 -59 callsubr
          hintmask 01111100
          -12 callsubr
        </CharString>
        <CharString name="fl">
          71 21 -21 381 94 170 107 hstem
          51 129 209 -7 callsubr
          389 41 rmoveto
          -20 27 -21 36 37 29 -28 callsubr
          648 vlineto
          43 -42 -91 20 -71 hhcurveto
          -138 -125 -78 -141 -17 callsubr
          71 65 36 64 30 32 -8 -13 18 vhcurveto
          endchar
        </CharString>
        <CharString name="florin">
          -120 -137 120 368 94 210 113 hstem
          240 567 rmoveto
          52 8 30 36 51 hhcurveto
          49 hlineto
          23 20 24 35 30 -15 24 -23 hvcurveto
          -52 hlineto
          -108 -97 -90 -111 -15 hvcurveto
          -67 -492 rlineto
          -49 -7 -16 -43 -27 hhcurveto
          -22 hlineto
          -25 -19 -28 -35 -30 14 -27 25 hvcurveto
          25 hlineto
          109 54 101 111 15 hvcurveto
          38 276 rlineto
          137 hlineto
          22 12 23 25 23 -11 23 -22 hvcurveto
          -124 hlineto
          endchar
        </CharString>
        <CharString name="four">
          -4 21 -21 159 121 451 -20 hstemhm
          283 130 -130 218 hintmask 11110000
          283 -49 callgsubr
          118 47 vlineto
          hintmask 11101000
          21 20 30 30 31 -14 30 -27 hvcurveto
          hintmask 11110000
          -47 105 hlineto
          29 -32 12 -33 -32 -33 -12 -29 vhcurveto
          -105 -117 vlineto
          192 384 rlineto
          3 6 2 6 5 vvcurveto
          30 -42 20 -23 -21 -22 -9 -25 -12 vhcurveto
          -237 -466 rlineto
          -5 -9 -2 -9 -8 vvcurveto
          -29 19 -17 25 vhcurveto
          240 hlineto
          endchar
        </CharString>
        <CharString name="fourinferior">
          -189 0 163 -79 79 -79 143 25 callsubr
          26 10 callgsubr
          hintmask 01011000
          58 26 vlineto
          hintmask 10010100
          24 callsubr
          hintmask 10011000
          -26 38 hlineto
          hintmask 00111000
          -4 callgsubr
          hintmask 10011000
          -67 callsubr
          hintmask 01011000
          -20 18 callgsubr
          endchar
        </CharString>
        <CharString name="foursuperior">
          -189 331 164 -79 79 -79 142 25 callsubr
          358 rmoveto
          -18 22 -9 21 22 22 9 18 vhcurveto
          hintmask 01011000
          58 26 vlineto
          hintmask 10010100
          13 13 20 19 20 -8 20 -18 hvcurveto
          hintmask 10011000
          -26 37 hlineto
          hintmask 00111000
          -4 callgsubr
          hintmask 10011000
          -37 -58 vlineto
          108 193 rlineto
          2 4 1 3 4 vvcurveto
          20 -28 12 -15 -13 -14 -6 -16 -9 vhcurveto
          -138 -248 rlineto
          -3 -6 -1 -5 -5 vvcurveto
          hintmask 01011000
          -19 18 callgsubr
          endchar
        </CharString>
        <CharString name="fraction">
          -320 -19 -21 811 -20 hstem
          268 771 -98 callgsubr
        </CharString>
        <CharString name="g">
          -26 callgsubr
          39 -20 17 callsubr
          150 41 callgsubr
          hintmask 11110110
          230 128 rmoveto
          -97 callsubr
          hintmask 11111001
          -65 callsubr
          hintmask 11110110
          -86 callgsubr
          hintmask 11111001
          -75 callgsubr
          endchar
        </CharString>
        <CharString name="g.ss03">
          14 -237 112 -112 145 91 113 256 113 -6 22 callsubr
          hintmask 10101110
          407 475 rmoveto
          -34 -26 -20 callsubr
          -30 vlineto
          hintmask 10110110
          39 -22 -48 37 -64 hhcurveto
          -101 -79 -92 -111 hvcurveto
          -74 vlineto
          -107 82 -98 93 60 52 38 41 20 vhcurveto
          -74 vlineto
          -53 -15 -76 -108 vhcurveto
          hintmask 01101110
          -71 -36 33 -26 hhcurveto
          -24 -22 -27 -33 -64 93 -21 78 184 76 107 121 hvcurveto
          444 vlineto
          44 callsubr
          hintmask 10110110
          45 41 45 50 43 44 -34 -56 vhcurveto
          -92 vlineto
          -21 -37 -53 -52 -47 -42 45 47 vhcurveto
          endchar
        </CharString>
        <CharString name="gbreve">
          -26 callgsubr
          107 58 -58 133 17 callsubr
          -52 70 132 64 -64 41 callgsubr
          hintmask 1111001001000000
          230 128 rmoveto
          -97 callsubr
          hintmask 1111010000100000
          -65 callsubr
          hintmask 1111001010000000
          -86 callgsubr
          hintmask 1110110000100000
          -75 callgsubr
          -32 789 rmoveto
          hintmask 1111010010000000
          -33 callgsubr
          hintmask 1110100110000000
          -90 callsubr
        </CharString>
        <CharString name="gcircumflex">
          -26 callgsubr
          39 56 138 -20 17 callsubr
          150 41 callgsubr
          hintmask 1111101100000000
          235 635 -107 callgsubr
          99 -451 rmoveto
          -97 callsubr
          hintmask 1111110010000000
          -65 callsubr
          hintmask 1111101100000000
          -86 callgsubr
          hintmask 1111110010000000
          -75 callgsubr
          endchar
        </CharString>
        <CharString name="gcommaaccent">
          -26 callgsubr
          289 230 17 callsubr
          -5 202 -180 135 -2 41 callgsubr
          hintmask 1111101000000000
          332 635 rmoveto
          -107 callsubr
          28 -444 rmoveto
          hintmask 1111010010000000
          -97 callsubr
          hintmask 1111100101000000
          -65 callsubr
          hintmask 1111010010000000
          -86 callgsubr
          hintmask 1111100101000000
          -75 callgsubr
          -91 838 -46 callsubr
        </CharString>
        <CharString name="gdotaccent">
          -26 callgsubr
          96 105 17 callsubr
          30 101 19 41 callgsubr
          hintmask 1111011100000000
          230 128 rmoveto
          -97 callsubr
          hintmask 1111101010000000
          -65 callsubr
          hintmask 1111011100000000
          -86 callgsubr
          hintmask 1111101010000000
          -75 callgsubr
          -95 750 -82 callgsubr
          endchar
        </CharString>
        <CharString name="germandbls">
          94 -20 109 -68 -21 381 94 180 113 hstemhm
          3 1 callsubr
          64 199 -106 106 -38 126 hintmask 1011100010000000
          352 -20 rmoveto
          117 103 80 150 hvcurveto
          13 vlineto
          112 -84 79 -72 13 vhcurveto
          hintmask 1011010100000000
          43 22 25 69 66 vvcurveto
          126 -88 58 -109 -142 -53 -94 -107 vhcurveto
          -92 -56 vlineto
          hintmask 1011101000000000
          -22 -11 -24 -23 -24 11 -23 22 hvcurveto
          hintmask 0111010100000000
          56 -341 hlineto
          -24 28 -16 35 35 31 16 24 vhcurveto
          527 vlineto
          45 17 43 59 58 23 -43 -58 -35 -7 -50 -45 -9 vhcurveto
          hintmask 1011101000000000
          -26 -7 -15 -4 -37 vvcurveto
          -39 16 -7 24 -7 vhcurveto
          hintmask 1011100010000000
          70 -16 51 -38 -93 vvcurveto
          -13 vlineto
          -70 -36 -40 -59 vhcurveto
          hintmask 1011101000000000
          -33 -20 12 -14 hhcurveto
          -22 -9 -38 -23 -57 54 -3 45 hvcurveto
          endchar
        </CharString>
        <CharString name="grave">
          28 callgsubr
          148 572 -68 callsubr
          -103 callsubr
        </CharString>
        <CharString name="greater">
          -89 77 -21 442 -20 hstem
          398 277 rmoveto
          15 -7 21 -19 12 vhcurveto
          -259 169 rlineto
          3 -4 -6 1 -6 hhcurveto
          -26 -32 -26 -35 -14 7 -13 9 -6 hvcurveto
          194 -127 -194 -126 rlineto
          -9 -6 -7 -14 -14 vvcurveto
          -34 32 -27 26 6 6 1 4 4 vhcurveto
          259 168 rlineto
          19 13 7 20 15 vvcurveto
          endchar
        </CharString>
        <CharString name="greaterequal">
          -64 31 107 407 -20 hstem
          70 273 rmoveto
          -15 -7 -7 -13 -14 vvcurveto
          -29 28 -33 29 5 7 1 3 5 vhcurveto
          258 132 rlineto
          21 10 6 23 15 vvcurveto
          15 -6 23 -21 10 vhcurveto
          -258 131 rlineto
          3 -5 -7 2 -5 hhcurveto
          -29 -28 -34 -28 -14 7 -13 15 -7 hvcurveto
          187 -88 rlineto
          150 -277 rmoveto
          31 -17 23 -24 vhcurveto
          -277 hlineto
          -21 -20 -23 -31 -32 20 -21 21 hvcurveto
          277 hlineto
          24 17 21 32 hvcurveto
          endchar
        </CharString>
        <CharString name="guillemotleft">
          -7 -66 callsubr
          160 125 rmoveto
          67 126 rlineto
          2 3 1 5 4 vvcurveto
          27 -37 38 -43 -17 -14 -6 -11 -5 vhcurveto
          -74 -136 rlineto
          -13 -25 -10 -10 -16 vvcurveto
          -15 10 -9 13 -25 vhcurveto
          74 -136 rlineto
          -11 5 14 -6 17 hhcurveto
          42 38 38 27 4 -1 5 -2 4 hvcurveto
          endchar
        </CharString>
        <CharString name="guillemotright">
          -6 95 -21 406 -20 hstem
          265 152 rmoveto
          -2 -4 -8 callgsubr
          -27 38 -29 callgsubr
          -38 -2 callgsubr
          -294 -125 rmoveto
          -2 -4 -8 callgsubr
          -27 38 -38 43 17 13 6 11 6 vhcurveto
          73 136 rlineto
          13 25 10 9 15 vvcurveto
          16 -10 10 -13 25 vhcurveto
          -73 136 rlineto
          11 -6 -14 6 -17 hhcurveto
          -42 -38 -2 callgsubr
          endchar
        </CharString>
        <CharString name="guilsinglleft">
          -234 -66 callsubr
          endchar
        </CharString>
        <CharString name="guilsinglright">
          -234 95 -21 406 -20 hstem
          38 152 rmoveto
          -2 -4 -8 callgsubr
          -27 37 -29 callgsubr
          -37 -2 callgsubr
          endchar
        </CharString>
        <CharString name="h">
          43 callgsubr
          hstem
          51 129 169 -7 callsubr
          180 278 rmoveto
          14 callsubr
          47 6 callsubr
          -237 vlineto
          -27 34 -14 30 32 33 14 27 vhcurveto
          237 4 callgsubr
          -80 92 -92 -63 -45 -37 -39 -18 vhcurveto
          307 12 callsubr
          -35 -38 -26 -16 -24 vhcurveto
          -55 callsubr
          endchar
        </CharString>
        <CharString name="hbar">
          18 34 callsubr
          74 85 -85 197 hstemhm
          -15 195 -129 129 -129 220 78 129 hintmask 11101001
          -15 597 rmoveto
          -25 16 -17 24 vhcurveto
          hintmask 11100101
          26 -514 hlineto
          -17 callgsubr
          38 -28 callgsubr
          237 vlineto
          14 callsubr
          47 6 callsubr
          -237 vlineto
          -27 34 -14 30 32 33 14 27 vhcurveto
          237 4 callgsubr
          -80 92 -92 -63 -45 -37 -39 -18 vhcurveto
          150 50 vlineto
          hintmask 11100011
          21 20 17 25 24 -20 19 -21 hvcurveto
          hintmask 11101001
          -50 72 hlineto
          hintmask 11010101
          24 -30 16 -35 -38 -26 -16 -24 vhcurveto
          hintmask 11100101
          -72 -26 vlineto
          hintmask 11101001
          -24 -16 -19 -24 hvcurveto
          endchar
        </CharString>
        <CharString name="hcircumflex">
          43 callgsubr
          237 -20 hstem
          51 129 169 -7 callsubr
          113 890 -107 callgsubr
          171 -556 rmoveto
          14 callsubr
          47 6 callsubr
          -237 vlineto
          -27 34 -14 30 32 33 14 27 vhcurveto
          237 4 callgsubr
          -80 92 -92 -63 -45 -37 -39 -18 vhcurveto
          307 12 callsubr
          -35 -38 -26 -16 -24 vhcurveto
          -55 callsubr
          endchar
        </CharString>
        <CharString name="hungarumlaut">
          -201 566 150 hstem
          141 661 -98 callsubr
          endchar
        </CharString>
        <CharString name="hyphen">
          -93 29 callgsubr
          260 -57 callgsubr
          -260 -48 callsubr
        </CharString>
        <CharString name="i">
          -9 callsubr
          126 126 hstem
          50 -7 callsubr
          114 475 rmoveto
          -92 callgsubr
          232 vmoveto
          -60 callgsubr
          endchar
        </CharString>
        <CharString name="iacute">
          -9 callsubr
          259 -20 hstemhm
          30 202 -182 129 hintmask 11110000
          214 635 rmoveto
          -62 callsubr
          12 vvcurveto
          22 -17 27 -23 vhcurveto
          hintmask 11101000
          -4 -4 -1 -1 -5 hvcurveto
          -76 callgsubr
          hintmask 11110000
          -12 -6 -5 -12 -13 vvcurveto
          -22 18 -27 22 5 4 2 2 5 vhcurveto
          30 -97 -19 callgsubr
        </CharString>
        <CharString name="ibreve">
          -9 callsubr
          133 -15 callgsubr
          -18 70 -2 129 hintmask 11010100
          114 475 rmoveto
          -92 callgsubr
          64 246 rmoveto
          hintmask 11101000
          -33 callgsubr
          hintmask 11011000
          -90 callsubr
        </CharString>
        <CharString name="icircumflex">
          -9 callsubr
          259 -20 hstem
          50 -7 callsubr
          115 635 -107 callgsubr
          103 -104 rmoveto
          -92 callgsubr
          endchar
        </CharString>
        <CharString name="idieresis">
          -9 callsubr
          122 105 hstemhm
          -8 101 -43 129 -38 102 hintmask 11110100
          43 682 rmoveto
          -104 callgsubr
          -79 -207 -19 callgsubr
        </CharString>
        <CharString name="igrave">
          -9 callsubr
          259 -20 hstemhm
          -2 202 -150 129 hintmask 11101000
          114 475 rmoveto
          -92 callgsubr
          32 97 -68 callsubr
          hintmask 11110000
          -103 callsubr
        </CharString>
        <CharString name="ij">
          -68 3 callgsubr
          133 2 callsubr
          126 126 47 callgsubr
          -10 1 callsubr
          hintmask 11111010
          114 475 rmoveto
          -92 callgsubr
          232 vmoveto
          -60 callgsubr
          208 hmoveto
          -60 callgsubr
          -1 -232 -37 callsubr
          hintmask 11110100
          -60 callsubr
          467 vlineto
          24 -29 16 -37 vhcurveto
          endchar
        </CharString>
        <CharString name="imacron">
          -9 callsubr
          155 85 hstem
          50 -7 callsubr
          114 475 rmoveto
          -92 callgsubr
          -142 177 rmoveto
          -95 callsubr
          endchar
        </CharString>
        <CharString name="infinity">
          394 32 106 196 106 hstem
          39 114 594 114 vstem
          252 440 rmoveto
          -110 -103 -68 -136 -136 103 -68 110 73 78 44 74 46 hvcurveto
          -74 47 77 -44 73 hhcurveto
          112 103 68 136 136 -103 68 -111 -74 -77 -45 -74 -47 hvcurveto
          74 -46 -78 45 -73 hhcurveto
          242 -204 rmoveto
          66 33 66 32 53 hhcurveto
          54 47 -31 -67 -67 -47 -31 -54 -53 -66 32 66 -33 hvcurveto
          -88 hmoveto
          -66 -33 -66 -32 -54 hhcurveto
          -53 -47 31 67 67 47 31 53 54 66 -32 -66 33 hvcurveto
          endchar
        </CharString>
        <CharString name="integral">
          -149 -200 102 747 99 hstemhm
          -1 245 7 callgsubr
          -130 245 hintmask 11010000
          319 748 rmoveto
          -159 -46 -77 -97 hvcurveto
          -592 vlineto
          -57 -23 -23 -48 vhcurveto
          hintmask 11100000
          -29 -15 -27 -26 -26 21 -23 29 158 37 92 91 hvcurveto
          586 vlineto
          57 19 23 56 vhcurveto
          hintmask 11001000
          30 10 30 21 29 -23 19 -17 hvcurveto
          endchar
        </CharString>
        <CharString name="iogonek">
          -213 55 633 -20 126 126 hstemhm
          10 13 callgsubr
          -106 129 hintmask 11110000
          133 -158 rmoveto
          -50 callgsubr
          hintmask 11100100
          16 8 12 13 13 vvcurveto
          394 vlineto
          24 -29 16 -36 -37 -27 1 callgsubr
          -13 11 -13 17 -8 vhcurveto
          hintmask 11101000
          -43 -35 -25 -48 -47 -72 callsubr
          -19 865 rmoveto
          -60 callgsubr
          endchar
        </CharString>
        <CharString name="itilde">
          -9 callsubr
          133 86 -57 57 47 callgsubr
          hintmask 11011000
          114 475 rmoveto
          -92 callgsubr
          -55 142 rmoveto
          hintmask 11101000
          -91 callsubr
          hintmask 11011000
          -91 callgsubr
          endchar
        </CharString>
        <CharString name="j">
          -275 3 callgsubr
          587 -20 126 126 hstemhm
          -38 1 callsubr
          hintmask 11101000
          115 707 rmoveto
          -60 callgsubr
          -1 -232 -37 callsubr
          hintmask 11110000
          -60 callsubr
          467 vlineto
          24 -29 16 -37 vhcurveto
          endchar
        </CharString>
        <CharString name="jcircumflex">
          -275 3 callgsubr
          587 -20 259 -20 hstemhm
          -38 1 callsubr
          hintmask 11101000
          114 475 -37 callsubr
          hintmask 11110000
          -60 callsubr
          467 vlineto
          24 -29 16 -37 vhcurveto
          2 160 -94 callsubr
        </CharString>
        <CharString name="k">
          -14 13 28 callsubr
          hintmask 01111000
          446 394 -24 callsubr
          -39 callsubr
          hintmask 10111000
          -42 callgsubr
        </CharString>
        <CharString name="kcommaaccent">
          -14 -173 -21 207 28 callsubr
          -36 202 hintmask 10111010
          328 -105 callgsubr
          248 584 -24 callsubr
          hintmask 10111100
          -39 callsubr
          hintmask 11011100
          -42 callgsubr
        </CharString>
        <CharString name="kgreenlandic">
          -15 13 -21 29 2 callsubr
          25 -20 47 callgsubr
          hintmask 01011000
          445 394 -24 callsubr
          -188 -177 rlineto
          142 vlineto
          hintmask 01101000
          24 -30 16 -36 -37 -26 -16 -24 vhcurveto
          -394 5 callgsubr
          hintmask 10011000
          -42 callgsubr
        </CharString>
        <CharString name="l">
          -259 21 -21 752 -20 hstem
          59 129 -21 callsubr
          endchar
        </CharString>
        <CharString name="lacute">
          -259 21 -21 752 -20 208 -20 hstemhm
          46 202 -189 129 hintmask 11110000
          230 861 rmoveto
          -107 callsubr
          23 -46 rmoveto
          hintmask 11101000
          -78 callsubr
          endchar
        </CharString>
        <CharString name="lcaron">
          -259 21 -21 511 230 11 -20 hstemhm
          59 129 53 135 hintmask 11011000
          308 741 -86 callsubr
          hintmask 10111000
          -185 11 rmoveto
          -78 callsubr
          endchar
        </CharString>
        <CharString name="lcommaaccent">
          -259 12 callgsubr
          752 -20 hstemhm
          23 202 -166 129 hintmask 11110000
          207 -105 callgsubr
          46 942 rmoveto
          hintmask 11101000
          -78 callsubr
          endchar
        </CharString>
        <CharString name="ldot">
          -136 21 -21 236 127 389 -20 hstem
          59 129 39 143 -21 callsubr
          176 -389 -32 callgsubr
        </CharString>
        <CharString name="less">
          -88 77 -21 442 -20 hstem
          19 277 rmoveto
          -15 8 -20 19 -13 vhcurveto
          258 -168 rlineto
          -4 5 6 -1 6 hhcurveto
          26 31 27 34 14 -6 14 -10 6 hvcurveto
          -193 126 193 127 rlineto
          10 6 6 13 14 vvcurveto
          35 -31 26 -26 -6 -6 -1 -3 -5 vhcurveto
          -258 -169 rlineto
          -19 -12 -8 -21 -15 vvcurveto
          endchar
        </CharString>
        <CharString name="lessequal">
          -64 31 107 407 -20 hstem
          185 361 rmoveto
          187 88 rlineto
          15 7 7 13 14 vvcurveto
          28 -28 34 -29 -5 -6 -2 -3 -6 vhcurveto
          -258 -131 rlineto
          -21 -10 -6 -23 -15 vvcurveto
          -15 6 -23 21 -10 vhcurveto
          258 -132 rlineto
          -3 6 6 -1 5 hhcurveto
          29 28 33 29 14 -7 13 -15 7 hvcurveto
          -337 -189 rmoveto
          -32 17 -21 24 vhcurveto
          277 hlineto
          21 20 21 32 31 -20 23 -21 hvcurveto
          -277 hlineto
          -24 -17 -23 -31 hvcurveto
          endchar
        </CharString>
        <CharString name="logicalnot">
          -9 63 231 -107 107 hstemhm
          319 129 hintmask 01100000
          32 29 callsubr
          247 -83 hlineto
          hintmask 10100000
          -21 27 -20 37 36 29 20 21 vhcurveto
          136 vlineto
          30 -21 24 -21 vhcurveto
          -334 -48 callsubr
        </CharString>
        <CharString name="lozenge">
          8 14 -21 746 -20 hstem
          318 708 rmoveto
          19 -11 -24 12 -26 hhcurveto
          -27 -24 -11 -20 -11 hvcurveto
          -136 -245 rlineto
          -21 -38 -17 -31 -28 vvcurveto
          -29 17 -30 21 -38 vhcurveto
          136 -245 rlineto
          -21 12 24 -10 26 hhcurveto
          26 24 11 20 11 hvcurveto
          137 245 rlineto
          21 38 17 30 29 vvcurveto
          28 -17 31 -21 38 vhcurveto
          -198 132 rmoveto
          119 -229 -119 -222 -119 222 rlineto
          endchar
        </CharString>
        <CharString name="lslash">
          -187 21 -21 752 -20 hstemhm
          10 213 -129 129 -129 216 hintmask 11010000
          158 752 rmoveto
          -38 -26 -20 callsubr
          -339 vlineto
          -68 -33 27 callgsubr
          3 5 1 2 4 vhcurveto
          hintmask 11010000
          27 13 rlineto
          -227 vlineto
          -17 callgsubr
          38 -28 callgsubr
          290 vlineto
          70 35 rlineto
          hintmask 11001000
          12 6 5 11 13 vvcurveto
          25 -21 33 -25 -4 -3 -1 -2 -4 vhcurveto
          hintmask 11100000
          -30 -15 rlineto
          276 12 callsubr
          -35 vhcurveto
          endchar
        </CharString>
        <CharString name="m">
          297 21 -21 369 112 -6 -20 47 callgsubr
          160 129 160 129 cntrmask 00011100
          hintmask 11011100
          339 40 rmoveto
          -28 34 -12 30 32 33 12 28 vhcurveto
          239 vlineto
          58 39 32 40 40 41 -31 -60 vhcurveto
          -237 vlineto
          -20 30 -21 34 -28 callgsubr
          237 vlineto
          130 -87 73 -91 -58 -58 -32 -68 -35 vhcurveto
          59 -21 -47 41 -57 hhcurveto
          -66 -44 -37 -39 -22 hvcurveto
          30 vlineto
          hintmask 10111100
          24 -26 16 -31 -38 -27 callsubr
          38 -28 callgsubr
          237 vlineto
          59 39 31 39 42 40 -34 -56 vhcurveto
          endchar
        </CharString>
        <CharString name="m.ss04">
          297 34 callsubr
          hstem
          46 129 162 129 162 129 cntrmask 00111000
          564 481 rmoveto
          -63 -57 -23 -47 -43 hvcurveto
          47 -43 -57 23 -62 hhcurveto
          -104 -89 -91 -112 hvcurveto
          -237 vlineto
          -20 29 -21 36 34 -55 callgsubr
          237 vlineto
          50 39 40 42 43 38 -42 -48 vhcurveto
          -238 vlineto
          -22 30 -18 35 37 27 18 22 vhcurveto
          238 vlineto
          48 38 42 43 42 39 -40 -50 vhcurveto
          -237 vlineto
          -22 30 -19 34 38 27 19 22 vhcurveto
          237 vlineto
          112 -89 91 -104 vhcurveto
          endchar
        </CharString>
        <CharString name="macron">
          -220 610 85 hstem
          652 vmoveto
          -95 callsubr
          endchar
        </CharString>
        <CharString name="minus">
          -13 231 107 hstem
          46 284 -73 callsubr
        </CharString>
        <CharString name="mu">
          12 -200 -21 212 113 371 -20 hstemhm
          56 114 -114 129 174 129 hintmask 11101100
          273 -9 rmoveto
          119 96 94 109 hvcurveto
          240 vlineto
          23 -27 18 -37 -35 -30 -18 -23 vhcurveto
          -240 vlineto
          -45 -38 -45 -47 -48 -41 46 39 vhcurveto
          245 vlineto
          20 -30 21 -34 -36 -29 -21 -20 vhcurveto
          -614 vlineto
          -21 27 -20 36 vhcurveto
          hintmask 11110100
          28 23 20 21 hvcurveto
          210 vlineto
          -22 26 37 -17 40 hhcurveto
          endchar
        </CharString>
        <CharString name="multiply">
          -99 134 -21 322 -20 hstem
          365 173 rmoveto
          9 -3 10 -7 7 vhcurveto
          -84 76 83 74 rlineto
          6 7 4 9 11 vvcurveto
          29 -30 30 -30 -10 -10 -4 -6 -6 vhcurveto
          -75 -75 -74 75 rlineto
          6 -7 -9 4 -10 hhcurveto
          -30 -30 -30 -30 -10 4 -9 6 -7 hvcurveto
          83 -74 -84 -76 rlineto
          -7 -7 -3 -9 -9 vvcurveto
          -29 33 -32 27 9 10 3 7 7 vhcurveto
          75 76 76 -76 rlineto
          -7 7 9 -3 10 hhcurveto
          29 31 32 28 hvcurveto
          endchar
        </CharString>
        <CharString name="n">
          17 -35 callsubr
          47 callgsubr
          169 129 hintmask 11011000
          179 278 rmoveto
          14 callsubr
          48 39 -6 callgsubr
          -237 vlineto
          -27 34 -14 30 32 33 14 27 vhcurveto
          237 4 callgsubr
          -80 92 -92 -67 -48 -37 -39 -19 vhcurveto
          30 vlineto
          hintmask 10111000
          24 -26 16 -31 -38 -27 callsubr
          38 -28 callgsubr
          endchar
        </CharString>
        <CharString name="n.ss04">
          13 34 callsubr
          hstem
          45 129 170 -7 callsubr
          259 481 rmoveto
          -117 -97 -96 -107 hvcurveto
          -237 vlineto
          -20 29 -21 35 -28 callgsubr
          237 vlineto
          46 38 44 47 47 38 -6 callgsubr
          -237 vlineto
          -22 30 -19 35 38 26 19 22 vhcurveto
          237 vlineto
          108 -97 95 -117 vhcurveto
          endchar
        </CharString>
        <CharString name="nacute">
          17 -35 callsubr
          259 -20 47 callgsubr
          -12 202 -21 129 hintmask 11010100
          351 635 rmoveto
          -107 callsubr
          hintmask 11011010
          -42 -294 rmoveto
          14 callsubr
          48 39 -6 callgsubr
          -237 vlineto
          -27 34 -14 30 32 33 14 27 vhcurveto
          237 4 callgsubr
          -80 92 -92 -67 -48 -37 -39 -19 vhcurveto
          30 vlineto
          hintmask 10111010
          24 -26 16 -31 -38 -27 callsubr
          38 -28 callgsubr
          endchar
        </CharString>
        <CharString name="ncaron">
          17 -35 callsubr
          277 -20 47 callgsubr
          169 129 hintmask 11011100
          155 728 -106 callgsubr
          -79 -384 rmoveto
          14 callsubr
          48 39 -6 callgsubr
          -237 vlineto
          -27 34 -14 30 32 33 14 27 vhcurveto
          237 4 callgsubr
          -80 92 -92 -67 -48 -37 -39 -19 vhcurveto
          30 vlineto
          hintmask 10111100
          24 -26 16 -31 -38 -27 callsubr
          38 -28 callgsubr
          endchar
        </CharString>
        <CharString name="ncommaaccent">
          17 -173 -21 215 -31 callgsubr
          47 callgsubr
          -21 202 -12 129 hintmask 11100100
          342 -105 callgsubr
          hintmask 11101010
          -33 468 rmoveto
          14 callsubr
          48 39 -6 callgsubr
          -237 vlineto
          -27 34 -14 30 32 33 14 27 vhcurveto
          237 4 callgsubr
          -80 92 -92 -67 -48 -37 -39 -19 vhcurveto
          30 vlineto
          hintmask 11011010
          24 -26 16 -31 -38 -27 callsubr
          38 -28 callgsubr
          endchar
        </CharString>
        <CharString name="nine">
          44 -6 114 -114 237 50 102 242 106 hstemhm
          34 130 210 130 hintmask 10111100
          241 281 rmoveto
          52 48 12 39 33 hvcurveto
          -109 vlineto
          -79 -41 -36 -67 -56 -47 27 47 vhcurveto
          hintmask 01111100
          39 -32 10 -36 -41 -20 -13 -41 -84 69 -99 159 136 106 62 167 vhcurveto
          -33 callsubr
          167 -104 62 -132 -131 -103 -20 callgsubr
          vhcurveto
          -14 vlineto
          -158 94 -49 113 vhcurveto
          133 207 rmoveto
          -76 -41 -29 -64 -66 -39 31 83 vhcurveto
          13 vlineto
          79 39 36 65 66 40 -36 -79 vhcurveto
          endchar
        </CharString>
        <CharString name="nineinferior">
          -162 -3 8 callgsubr
          151 rmoveto
          30 27 4 20 23 callgsubr
          25 -21 6 -24 -27 -13 -8 -27 -44 40 -58 97 84 64 34 95 -26 callsubr
          5 vlineto
          38 21 17 35 36 21 -17 -38 vhcurveto
          endchar
        </CharString>
        <CharString name="ninesuperior">
          -162 328 8 callgsubr
          482 rmoveto
          30 27 5 19 23 callgsubr
          26 -21 5 -24 -27 -13 -8 -26 -45 40 -58 97 84 64 35 94 -26 callsubr
          6 vlineto
          38 21 16 35 36 21 -16 -38 vhcurveto
          endchar
        </CharString>
        <CharString name="notequal">
          -6 -1 -21 113 107 96 107 134 -20 hstem
          419 488 rmoveto
          2 5 2 4 5 vvcurveto
          18 -20 15 -17 -8 -8 -3 -8 -5 vhcurveto
          -68 -123 rlineto
          -222 10 callsubr
          158 hlineto
          -52 -96 rlineto
          -106 10 callsubr
          43 hlineto
          -35 -68 rlineto
          -3 -5 -2 -5 -4 vvcurveto
          -17 19 -14 16 8 7 3 8 4 vhcurveto
          56 102 rlineto
          237 hlineto
          20 21 21 32 30 -21 24 -20 hvcurveto
          -172 hlineto
          53 96 rlineto
          119 hlineto
          20 21 21 32 30 -21 24 -20 hvcurveto
          -55 hlineto
          endchar
        </CharString>
        <CharString name="ntilde">
          17 -35 callsubr
          133 86 -57 57 47 callgsubr
          169 129 hintmask 11001110
          204 617 rmoveto
          hintmask 11010110
          -91 callsubr
          hintmask 11001110
          -91 callgsubr
          -25 -339 rmoveto
          14 callsubr
          48 39 -6 callgsubr
          -237 vlineto
          -27 34 -14 30 32 33 14 27 vhcurveto
          237 4 callgsubr
          -80 92 -92 -67 -48 -37 -39 -19 vhcurveto
          30 vlineto
          hintmask 10110110
          24 -26 16 -31 -38 -27 callsubr
          38 -28 callgsubr
          endchar
        </CharString>
        <CharString name="numbersign">
          172 51 -21 190 97 123 96 177 -20 hstem
          278 713 rmoveto
          -25 -25 -10 -17 -4 hvcurveto
          -27 -150 rlineto
          -98 hlineto
          -22 -14 -21 -28 -29 14 -18 23 hvcurveto
          78 hlineto
          -22 -123 rlineto
          -97 hlineto
          -21 -15 -22 -28 -28 14 -19 22 hvcurveto
          78 hlineto
          -24 -142 rlineto
          -32 35 -16 28 20 27 12 18 3 vhcurveto
          29 160 rlineto
          108 hlineto
          -25 -142 rlineto
          -32 36 -16 28 22 26 12 18 3 vhcurveto
          29 160 rlineto
          97 hlineto
          18 20 20 29 27 -20 21 -19 hvcurveto
          -78 hlineto
          23 123 rlineto
          96 hlineto
          19 18 20 28 28 -19 20 -19 hvcurveto
          -78 hlineto
          24 128 rlineto
          35 -1 -29 14 -30 hhcurveto
          -25 -25 -10 -17 -3 hvcurveto
          -27 -150 rlineto
          -110 hlineto
          23 128 rlineto
          35 -29 14 -30 vhcurveto
          18 -273 rmoveto
          109 hlineto
          -23 -123 rlineto
          -108 hlineto
          endchar
        </CharString>
        <CharString name="o">
          -8 -9 -67 callgsubr
          -5 callsubr
          249 481 rmoveto
          -101 callsubr
          endchar
        </CharString>
        <CharString name="oacute">
          -8 -9 -67 callgsubr
          -1 callsubr
          -10 202 -16 129 hintmask 11101000
          335 635 rmoveto
          -107 callsubr
          44 -91 rmoveto
          hintmask 11110100
          -101 callsubr
          endchar
        </CharString>
        <CharString name="obreve">
          -8 -9 -67 callgsubr
          107 -15 callgsubr
          32 129 -44 70 150 129 hintmask 11011010
          249 481 rmoveto
          -101 callsubr
          -24 443 rmoveto
          hintmask 11101010
          -33 callgsubr
          hintmask 11010110
          -90 callsubr
        </CharString>
        <CharString name="ocircumflex">
          -8 -9 -67 callgsubr
          0 95 138 -20 hstemhm
          18 callsubr
          hintmask 10111100
          249 635 -107 callgsubr
          104 -98 rmoveto
          -53 callsubr
          116 101 98 107 vhcurveto
          15 callgsubr
          -101 92 -116 vhcurveto
          -79 callgsubr
          hintmask 11011100
          -64 callsubr
          endchar
        </CharString>
        <CharString name="odieresis">
          -8 -9 -67 callgsubr
          96 105 -22 callsubr
          -37 101 48 102 -38 129 hintmask 11101100
          175 682 rmoveto
          -104 callgsubr
          -76 -201 rmoveto
          hintmask 11110010
          -101 callsubr
          endchar
        </CharString>
        <CharString name="oe">
          283 -9 102 -102 140 73 76 88 113 -95 95 hstemhm
          18 callsubr
          175 121 hintmask 10110111
          249 481 rmoveto
          -53 callsubr
          63 56 31 48 39 vhcurveto
          -50 39 61 -29 71 hhcurveto
          107 69 49 33 hvcurveto
          hintmask 01110111
          22 -18 36 -30 vhcurveto
          hintmask 10110111
          -31 -26 -38 -66 hhcurveto
          -70 -47 38 58 hvcurveto
          15 202 vlineto
          46 48 4 86 110 -96 77 -111 -59 -52 -31 -48 -37 hvcurveto
          48 -37 -58 31 -63 hhcurveto
          -79 callgsubr
          -64 callsubr
          129 2 rmoveto
          29 vlineto
          hintmask 10101111
          47 42 30 45 48 40 -32 -47 -22 -8 -5 -21 vhcurveto
          endchar
        </CharString>
        <CharString name="ogonek">
          -360 -213 55 184 -20 hstemhm
          0 13 callgsubr
          hintmask 11100000
          123 -158 rmoveto
          -50 callgsubr
          -47 19 rlineto
          -58 -36 -36 -58 -55 vvcurveto
          -53 40 -37 77 vhcurveto
          hintmask 11010000
          24 5 12 14 13 -6 16 -17 hvcurveto
          endchar
        </CharString>
        <CharString name="ograve">
          -8 -9 -67 callgsubr
          -1 callsubr
          -25 202 -1 129 hintmask 11110100
          249 481 rmoveto
          -101 callsubr
          -53 294 -68 callsubr
          hintmask 11101000
          -103 callsubr
        </CharString>
        <CharString name="ohungarumlaut">
          -8 -9 -67 callgsubr
          87 150 -5 callsubr
          267 663 -98 callsubr
          -93 -96 rmoveto
          -101 callsubr
          endchar
        </CharString>
        <CharString name="omacron">
          -8 -9 -67 callgsubr
          129 85 -5 callsubr
          106 652 rmoveto
          -95 callsubr
          143 -171 rmoveto
          -101 callsubr
          endchar
        </CharString>
        <CharString name="one">
          -218 21 -21 733 -20 hstemhm
          3 228 7 callgsubr
          hintmask 11100000
          101 -35 callgsubr
          650 vlineto
          26 -31 16 -27 -11 -9 -4 -6 -7 vhcurveto
          -118 -90 rlineto
          -16 -10 -9 -19 -18 vvcurveto
          -26 17 -26 25 7 9 2 7 8 vhcurveto
          hintmask 11010000
          32 32 rlineto
          endchar
        </CharString>
        <CharString name="one.lnum">
          -96 7 callsubr
          619 -20 hstemhm
          49 227 7 callgsubr
          hintmask 11100000
          13 57 rmoveto
          -32 18 -25 23 vhcurveto
          312 hlineto
          20 21 25 32 32 -21 25 -20 hvcurveto
          -90 577 hlineto
          26 -30 16 -27 -12 -9 -4 -6 -7 vhcurveto
          -118 -91 rlineto
          -16 -10 -8 -18 -18 vvcurveto
          -26 17 -26 25 7 8 2 7 8 vhcurveto
          hintmask 11010000
          32 32 rlineto
          -461 -92 vlineto
          -23 -18 -25 -32 hvcurveto
          endchar
        </CharString>
        <CharString name="oneeighth">
          163 17 callgsubr
          79 69 5 callsubr
          191 -23 callsubr
          hintmask 1111111010100000
          81 358 -79 callsubr
          -58 callgsubr
          hintmask 1111110101100000
          17 10 rlineto
          421 -236 -36 callsubr
          hintmask 1111111010010000
          -78 callgsubr
          hintmask 1111111010100000
          -94 callgsubr
          -43 -47 callsubr
          endchar
        </CharString>
        <CharString name="onehalf">
          148 -19 -21 40 75 247 78 5 callsubr
          185 92 96 86 hintmask 1111101110000000
          360 37 callgsubr
          -54 callsubr
          -279 63 -79 callsubr
          hintmask 1111110110000000
          -58 callgsubr
          hintmask 1111101110000000
          17 10 rlineto
          378 135 -98 callgsubr
        </CharString>
        <CharString name="oneinferior">
          -314 21 -21 401 -20 hstemhm
          7 146 -87 87 hintmask 11100000
          66 26 rmoveto
          -17 22 -9 22 21 22 9 17 vhcurveto
          348 vlineto
          17 -21 10 -18 -6 -5 -1 -3 -5 vhcurveto
          -76 -44 rlineto
          -10 -6 -5 -11 -12 vvcurveto
          -16 11 -17 16 4 6 1 2 5 vhcurveto
          hintmask 11010000
          17 10 rlineto
          endchar
        </CharString>
        <CharString name="onequarter">
          159 -19 -21 61 -21 84 79 -79 143 506 -20 58 -20 hstemhm
          25 146 -87 87 335 87 -87 139 hintmask 1101111010000000
          84 358 -79 callsubr
          -58 callgsubr
          hintmask 1101110110000000
          17 10 rlineto
          394 135 -105 callsubr
          28 -745 10 callgsubr
          58 26 vlineto
          hintmask 1110111001000000
          24 callsubr
          hintmask 1110111010000000
          -26 38 hlineto
          hintmask 1101111010000000
          -4 callgsubr
          hintmask 1110111010000000
          -67 callsubr
          -20 18 callgsubr
          endchar
        </CharString>
        <CharString name="onesuperior">
          -313 352 -21 402 -20 hstemhm
          7 146 -87 87 hintmask 11100000
          66 358 -79 callsubr
          -58 callgsubr
          hintmask 11010000
          17 10 rlineto
          endchar
        </CharString>
        <CharString name="onethird">
          164 -19 -21 37 75 -75 134 43 67 85 74 5 callsubr
          193 -23 callgsubr
          hintmask 1101111101100000
          502 38 callsubr
          hintmask 1011111101001000
          -49 callsubr
          hintmask 1011111101010000
          -56 callgsubr
          -44 -26 5 -7 39 32 8 12 18 21 15 7 33 27 20 -7 -13 callsubr
          hintmask 1011111101100000
          -24 callgsubr
          hintmask 1101111011100000
          -35 -16 -13 -42 vhcurveto
          -421 286 -79 callsubr
          hintmask 1011111101100000
          -58 callgsubr
          hintmask 1011111011100000
          17 10 rlineto
          378 135 -98 callgsubr
        </CharString>
        <CharString name="ordfeminine">
          -172 433 64 77 45 49 92 hstemhm
          26 87 -68 250 -86 86 hintmask 11101000
          152 760 rmoveto
          -47 -60 -21 -27 -20 10 -24 20 hvcurveto
          hintmask 11110100
          16 8 22 52 hhcurveto
          43 15 -33 -29 hvcurveto
          -9 -27 vlineto
          -92 -64 -21 -77 -62 42 -26 48 44 31 26 27 23 hvcurveto
          -20 vlineto
          -15 17 -12 21 26 17 12 15 vhcurveto
          163 vlineto
          67 -39 64 -104 vhcurveto
          57 -199 rmoveto
          -34 -33 -30 -28 -20 -15 11 25 33 35 8 40 vhcurveto
          21 hlineto
          endchar
        </CharString>
        <CharString name="ordmasculine">
          -162 432 76 176 76 hstem
          27 86 117 86 vstem
          171 760 rmoveto
          -79 -65 -63 -73 hvcurveto
          -55 vlineto
          -71 67 -66 77 78 67 66 71 vhcurveto
          55 vlineto
          75 -67 61 -78 vhcurveto
          59 -191 rmoveto
          -31 -26 -30 -33 -32 -26 30 31 vhcurveto
          55 vlineto
          31 26 29 32 33 26 -29 -31 vhcurveto
          endchar
        </CharString>
        <CharString name="oslash">
          -8 -11 -21 23 -67 callgsubr
          29 -20 -5 callsubr
          -76 callsubr
          88 -285 -52 callsubr
        </CharString>
        <CharString name="oslashacute">
          -8 -11 -21 23 -67 callgsubr
          -1 callsubr
          24 202 -50 129 hintmask 11111010
          -76 callsubr
          120 154 rmoveto
          hintmask 11111100
          -107 callsubr
          hintmask 11111010
          98 -376 -52 callsubr
        </CharString>
        <CharString name="otilde">
          -8 -9 -67 callgsubr
          107 86 -57 57 hstemhm
          18 callsubr
          hintmask 11011100
          249 481 rmoveto
          -101 callsubr
          -143 339 rmoveto
          hintmask 11101100
          -91 callsubr
          hintmask 11011100
          -91 callgsubr
          endchar
        </CharString>
        <CharString name="p">
          13 -200 -21 212 -67 callgsubr
          -6 -20 hstemhm
          51 129 177 129 hintmask 11011100
          112 475 rmoveto
          -34 -27 -20 callsubr
          -615 -12 callgsubr
          hintmask 11101100
          111 -79 92 -100 -64 -48 -37 -39 -23 vhcurveto
          30 vlineto
          hintmask 11011100
          24 -25 16 -35 vhcurveto
          245 -279 32 callgsubr
          hintmask 11101100
          37 callsubr
        </CharString>
        <CharString name="paragraph">
          49 21 -21 672 59 hstem
          244 83 82 83 vstem
          219 731 rmoveto
          -110 -86 -56 -150 hvcurveto
          -12 vlineto
          -150 86 -57 110 vhcurveto
          25 -265 hlineto
          -27 20 -14 21 21 21 14 27 vhcurveto
          631 82 -632 vlineto
          -28 21 -12 21 21 20 12 28 vhcurveto
          650 vlineto
          27 -20 14 -21 vhcurveto
          endchar
        </CharString>
        <CharString name="parenleft">
          46 callgsubr
          48 -7 callsubr
          258 -20 rmoveto
          56 11 23 33 28 -7 29 -34 -47 -60 13 60 hvcurveto
          402 vlineto
          42 39 45 68 24 17 23 34 31 -14 25 -50 -102 -111 -80 -120 vhcurveto
          -402 vlineto
          -130 110 -56 100 vhcurveto
          endchar
        </CharString>
        <CharString name="parenright">
          46 callgsubr
          163 -14 callgsubr
          83 -20 rmoveto
          100 110 56 130 hvcurveto
          402 vlineto
          120 -111 80 -102 -50 -14 -25 -31 -34 17 -23 24 68 38 -45 -42 vhcurveto
          -402 vlineto
          -60 -59 -13 -47 -34 -7 -29 -28 -33 11 -23 56 vhcurveto
          endchar
        </CharString>
        <CharString name="partialdiff">
          9 -9 113 266 113 129 134 -110 110 hstemhm
          34 129 179 129 hintmask 11101100
          342 405 rmoveto
          43 -20 -50 35 -61 hhcurveto
          -97 -80 -92 -111 hvcurveto
          -84 vlineto
          -107 103 -98 115 119 100 103 109 vhcurveto
          155 vlineto
          296 -130 92 -131 -84 -74 -37 -29 -16 18 -52 30 vhcurveto
          hintmask 11011100
          22 26 24 52 hhcurveto
          95 39 -70 -161 8 hvcurveto
          -179 -125 rmoveto
          45 39 45 49 45 46 -37 -52 vhcurveto
          -85 vlineto
          -47 -40 -45 -49 -49 -41 45 47 vhcurveto
          endchar
        </CharString>
        <CharString name="percent">
          281 -19 -21 37 75 256 72 256 75 40 -20 hstem
          25 87 113 85 166 87 113 85 vstem
          168 328 rmoveto
          80 62 35 94 -75 callsubr
          -94 62 -35 -84 callsubr
          394 -605 rmoveto
          80 62 34 95 -75 callsubr
          -95 62 -34 -84 callsubr
          -105 500 -98 callgsubr
        </CharString>
        <CharString name="period">
          -315 -6 136 hstem
          28 135 vstem
          96 -37 callgsubr
          endchar
        </CharString>
        <CharString name="periodcentered">
          -300 236 127 hstem
          31 143 vstem
          103 363 -32 callgsubr
        </CharString>
        <CharString name="perthousand">
          618 -19 -21 37 75 256 72 256 75 40 -20 hstem
          25 87 113 85 166 87 113 85 53 87 113 85 vstem
          168 328 rmoveto
          80 62 35 94 -75 callsubr
          -94 62 -35 -84 callsubr
          394 -605 rmoveto
          80 62 34 95 -75 callsubr
          -95 62 -34 -84 callsubr
          281 -274 rmoveto
          80 62 34 95 -75 callsubr
          -95 62 -34 -84 callsubr
          -443 500 -98 callgsubr
        </CharString>
        <CharString name="pi">
          34 21 -21 361 114 hstem
          50 129 181 -14 callgsubr
          107 475 rmoveto
          -29 -28 -14 -27 hvcurveto
          -394 vlineto
          -28 32 39 callsubr
          321 181 -321 vlineto
          -28 33 39 callsubr
          394 vlineto
          27 -28 14 -29 vhcurveto
          endchar
        </CharString>
        <CharString name="plus">
          -62 61 -21 147 107 147 -20 hstem
          168 107 vstem
          222 40 rmoveto
          32 21 16 24 hvcurveto
          107 106 vlineto
          21 21 21 32 30 -21 24 -21 hvcurveto
          -106 106 hlineto
          21 -21 20 -32 -30 -24 -20 -21 vhcurveto
          -106 -107 vlineto
          -24 -16 -24 -30 -32 16 -21 24 hvcurveto
          107 -107 hlineto
          -24 24 -16 30 vhcurveto
          endchar
        </CharString>
        <CharString name="plusminus">
          -35 32 107 37 247 -108 108 -108 247 hstemhm
          182 107 hintmask 11001000
          236 176 rmoveto
          32 21 16 24 hvcurveto
          hintmask 10101000
          99 106 vlineto
          21 20 22 31 31 -20 24 -21 hvcurveto
          -106 98 hlineto
          hintmask 10011000
          20 -21 21 -32 -30 -24 -21 -20 vhcurveto
          hintmask 11001000
          -98 -107 vlineto
          -24 -16 -24 -31 hvcurveto
          hintmask 10101000
          -31 16 -22 24 vhcurveto
          107 -99 hlineto
          hintmask 11001000
          -24 24 -16 30 vhcurveto
          -201 -91 -34 callgsubr
          320 44 callgsubr
          -320 -48 callsubr
        </CharString>
        <CharString name="product">
          83 21 -21 617 114 hstem
          60 129 210 -14 callgsubr
          117 731 rmoveto
          -29 -28 -14 -27 hvcurveto
          -650 vlineto
          -28 32 39 callsubr
          577 210 -577 vlineto
          -28 32 -12 33 32 33 12 28 vhcurveto
          650 vlineto
          27 -29 14 -28 vhcurveto
          endchar
        </CharString>
        <CharString name="q">
          14 -200 -21 212 -67 callgsubr
          -6 22 callsubr
          hintmask 11011100
          407 475 rmoveto
          -34 -26 -20 callsubr
          -30 vlineto
          hintmask 11101100
          39 -22 -48 37 -64 hhcurveto
          -101 -79 -92 -111 hvcurveto
          -82 vlineto
          -107 82 -98 93 60 52 38 41 20 vhcurveto
          32 callsubr
          615 vlineto
          hintmask 11011100
          44 callsubr
          hintmask 11101100
          45 41 45 50 43 44 -34 -56 vhcurveto
          -100 vlineto
          -21 -37 -53 -52 -47 -42 46 46 vhcurveto
          endchar
        </CharString>
        <CharString name="q.ss02">
          8 -200 -21 212 -67 callgsubr
          hstem
          32 35 callsubr
          vstem
          208 -9 rmoveto
          60 51 38 41 20 hvcurveto
          32 callsubr
          456 vlineto
          122 -104 83 -114 -127 -91 -99 -105 vhcurveto
          -81 vlineto
          -108 82 -97 94 vhcurveto
          41 113 rmoveto
          -46 -42 46 46 hvcurveto
          81 vlineto
          42 31 49 57 49 41 -38 -56 vhcurveto
          -96 vlineto
          -22 -39 -52 -51 vhcurveto
          endchar
        </CharString>
        <CharString name="question">
          -71 -6 136 439 166 -97 97 hstemhm
          127 135 -115 96 62 106 hintmask 11010100
          411 566 rmoveto
          96 -79 73 -127 -121 -63 -70 -48 -33 27 -15 23 vhcurveto
          hintmask 10101100
          46 -13 69 98 hhcurveto
          61 42 -30 -56 -68 -63 -35 -35 -33 hvcurveto
          -28 -25 -32 -40 -93 vvcurveto
          -43 13 -13 33 41 9 18 18 58 1 34 49 40 vhcurveto
          30 28 88 65 103 vvcurveto
          -217 -436 rmoveto
          hintmask 11010100
          -37 -30 -31 -37 -36 29 -32 38 38 30 32 36 37 -31 31 -37 hvcurveto
          endchar
        </CharString>
        <CharString name="questiondown">
          -70 -6 97 -97 166 438 137 hstemhm
          25 106 43 135 -116 97 hintmask 01111000
          25 163 rmoveto
          -96 79 -73 127 121 63 70 48 32 -27 16 -23 vhcurveto
          hintmask 10110100
          -45 12 -69 -98 hhcurveto
          -61 -42 29 56 69 63 34 35 33 hvcurveto
          28 26 33 39 94 vvcurveto
          43 -13 13 -34 -40 -10 -18 -18 -59 -3 -36 -47 -38 vhcurveto
          -31 -25 -87 -67 -103 vvcurveto
          217 435 rmoveto
          hintmask 10111000
          37 30 31 38 36 -29 32 -38 -38 -30 -32 -36 -38 31 -31 37 hvcurveto
          endchar
        </CharString>
        <CharString name="quotedbl">
          -203 564 204 hstem
          33 86 65 -25 callgsubr
          151 hmoveto
          -24 -23 -13 -20 hvcurveto
          10 -138 rlineto
          -16 10 -17 27 28 11 17 16 vhcurveto
          10 138 rlineto
          20 -25 13 -24 vhcurveto
          endchar
        </CharString>
        <CharString name="quotedblbase">
          -127 39 callgsubr
          50 136 vstem
          282 130 rmoveto
          -38 -30 -31 -37 -26 15 -23 23 -12 hvcurveto
          -24 -53 rlineto
          -3 -5 0 -5 -4 vvcurveto
          -21 24 -13 46 callsubr
          13 6 vhcurveto
          50 114 -69 callsubr
          -186 hmoveto
          -43 callgsubr
        </CharString>
        <CharString name="quotedblleft">
          -136 40 callsubr
          22 135 51 135 vstem
          90 511 rmoveto
          37 30 31 37 26 -15 23 -22 12 hvcurveto
          24 53 rlineto
          2 6 1 4 4 vvcurveto
          22 -24 12 -19 -9 -12 -45 callsubr
          186 hmoveto
          37 30 31 37 26 -15 23 -22 12 hvcurveto
          23 53 rlineto
          3 6 1 4 4 vvcurveto
          22 -25 12 -18 -10 -11 -45 callsubr
          endchar
        </CharString>
        <CharString name="quotedblright">
          -137 40 callsubr
          28 135 51 135 vstem
          281 741 rmoveto
          -37 -30 -31 -37 -26 15 -23 22 -12 hvcurveto
          -24 -53 rlineto
          -2 -15 callsubr
          -22 24 -12 19 9 12 4 12 5 vhcurveto
          50 115 -69 callsubr
          -186 hmoveto
          -43 callsubr
        </CharString>
        <CharString name="quoteleft">
          -322 40 callsubr
          22 135 vstem
          90 511 -46 callsubr
        </CharString>
        <CharString name="quoteright">
          -323 40 callsubr
          28 135 vstem
          95 741 rmoveto
          -43 callsubr
        </CharString>
        <CharString name="quotesinglbase">
          -313 39 callgsubr
          vstem
          96 130 rmoveto
          -43 callgsubr
        </CharString>
        <CharString name="quotesingle">
          -354 564 204 hstem
          33 -25 callgsubr
          endchar
        </CharString>
        <CharString name="r">
          -129 -35 callsubr
          47 callgsubr
          hintmask 11010000
          325 368 -56 callsubr
          hintmask 10110000
          -66 callgsubr
          hintmask 11010000
          31 callgsubr
        </CharString>
        <CharString name="r.ss04">
          -137 34 callsubr
          hstem
          42 -7 callsubr
          317 368 rmoveto
          25 22 26 31 30 -17 26 -33 hvcurveto
          -55 hlineto
          -143 -74 -136 -129 hvcurveto
          -175 vlineto
          -20 27 -21 36 37 29 -28 callsubr
          173 vlineto
          90 52 64 61 vhcurveto
          endchar
        </CharString>
        <CharString name="racute">
          -129 -35 callsubr
          259 -20 47 callgsubr
          -72 202 hintmask 11010100
          291 635 rmoveto
          -107 callsubr
          164 -204 -56 callsubr
          hintmask 10111000
          -66 callgsubr
          hintmask 11011000
          31 callgsubr
        </CharString>
        <CharString name="radical">
          180 -14 -21 372 107 217 107 hstem
          1 390 -34 callgsubr
          31 hlineto
          109 -328 rlineto
          -30 10 37 -14 37 hhcurveto
          38 37 14 30 9 hvcurveto
          199 652 rlineto
          101 -57 callgsubr
          -176 hlineto
          -17 -16 -14 -16 -4 hvcurveto
          -171 -620 -78 280 rlineto
          22 -6 -12 24 -23 hhcurveto
          -105 -48 callsubr
        </CharString>
        <CharString name="rcaron">
          -129 -35 callsubr
          277 -20 47 callgsubr
          hintmask 11011000
          90 728 -106 callgsubr
          132 -294 -56 callsubr
          hintmask 10111000
          -66 callgsubr
          hintmask 11011000
          31 callgsubr
        </CharString>
        <CharString name="rcommaaccent">
          -129 -173 -21 215 -31 callgsubr
          hstemhm
          7 202 -159 129 hintmask 11101000
          191 -105 callgsubr
          264 558 -56 callsubr
          hintmask 11010100
          -66 callgsubr
          hintmask 11101000
          31 callgsubr
        </CharString>
        <CharString name="registered">
          184 35 62 82 207 105 60 72 62 hstem
          38 62 138 67 104 66 115 62 vstem
          -25 callsubr
          200 -155 rmoveto
          -16 18 -8 17 18 14 9 15 vhcurveto
          126 44 vlineto
          66 -133 rlineto
          -12 5 7 -6 9 hhcurveto
          17 20 18 18 2 0 3 -1 2 hvcurveto
          -61 119 rlineto
          36 13 28 33 57 vvcurveto
          81 -54 27 -63 vhcurveto
          -98 hlineto
          -13 -1 -9 -10 -12 vvcurveto
          120 -37 rmoveto
          31 20 -14 -41 -35 -20 -15 -31 hvcurveto
          -53 105 hlineto
          285 -129 -19 callsubr
          endchar
        </CharString>
        <CharString name="ring">
          -310 569 52 93 55 hstem
          0 51 91 54 vstem
          97 769 rmoveto
          -83 callsubr
          endchar
        </CharString>
        <CharString name="s">
          -92 -9 -11 callsubr
          30 callsubr
          hintmask 10101100
          201 89 rmoveto
          hintmask 01011100
          -81 callsubr
          hintmask 10101100
          -85 callsubr
        </CharString>
        <CharString name="sacute">
          -92 -9 -11 callsubr
          233 -20 hstemhm
          37 111 -33 202 -43 114 hintmask 10101010
          299 635 rmoveto
          -107 callsubr
          32 -483 rmoveto
          hintmask 01011101
          -81 callsubr
          hintmask 10101101
          -85 callsubr
        </CharString>
        <CharString name="scaron">
          -92 -9 -11 callsubr
          251 -20 30 callsubr
          hintmask 10101110
          105 728 -106 callgsubr
          -7 -573 rmoveto
          hintmask 01011110
          -81 callsubr
          hintmask 10101110
          -85 callsubr
        </CharString>
        <CharString name="scedilla">
          -92 -10 callsubr
          43 97 -97 142 220 127 -98 98 hstemhm
          37 111 -11 190 -53 53 -53 114 hintmask 1001010101000000
          201 89 rmoveto
          hintmask 1000110101000000
          -84 -22 45 -29 hhcurveto
          -25 -18 -36 -21 -41 69 -39 93 -5 hvcurveto
          -23 -81 -36 callgsubr
          hintmask 0101010010000000
          -65 callgsubr
          hintmask 0011001100100000
          11 callsubr
          14 44 rlineto
          94 11 52 54 79 178 -240 -50 73 vvcurveto
          20 20 25 50 vhcurveto
          hintmask 1001010101000000
          -85 callsubr
        </CharString>
        <CharString name="schwa">
          -22 -9 95 106 76 73 140 -102 102 hstemhm
          27 121 176 128 hintmask 11101100
          234 -9 rmoveto
          121 97 92 108 hvcurveto
          85 vlineto
          123 -100 82 -141 -108 -68 -49 -34 -20 18 -37 30 vhcurveto
          hintmask 11011100
          30 27 38 67 hhcurveto
          69 48 -38 -58 hvcurveto
          -15 -203 vlineto
          -45 -49 -4 -85 -111 96 -77 111 hvcurveto
          90 201 rmoveto
          -28 vlineto
          -48 -42 -30 -46 -48 -40 32 47 22 8 5 22 vhcurveto
          endchar
        </CharString>
        <CharString name="scircumflex">
          -92 -9 98 45 249 -29 127 0 95 138 -20 30 callsubr
          hintmask 11011110
          205 635 -107 callgsubr
          100 -490 rmoveto
          -81 callsubr
          hintmask 10101110
          -85 callsubr
        </CharString>
        <CharString name="scommaaccent">
          -92 -173 -21 185 -11 callsubr
          hstemhm
          37 111 -39 202 -37 114 hintmask 11010010
          293 -105 callgsubr
          38 279 rmoveto
          hintmask 10101101
          -81 callsubr
          hintmask 11010101
          -85 callsubr
        </CharString>
        <CharString name="section">
          -29 -68 107 -107 218 363 218 -105 105 hstemhm
          44 107 -107 119 147 110 -86 106 hintmask 10101010
          44 417 rmoveto
          -238 266 53 -121 vvcurveto
          -41 -25 -31 -58 -67 -9 45 30 vhcurveto
          hintmask 01010101
          19 -14 17 -42 -34 -21 -11 -40 -80 66 -87 129 92 113 44 162 vhcurveto
          107 vlineto
          238 -277 -53 121 vvcurveto
          45 30 30 51 59 13 -41 -29 vhcurveto
          hintmask 10101010
          -23 13 -20 42 30 19 10 41 83 -59 84 -122 -83 -112 -40 -167 vhcurveto
          hintmask 10101001
          290 -284 rmoveto
          -55 49 -128 -4 106 vvcurveto
          21 vlineto
          55 -49 128 4 -106 vvcurveto
          endchar
        </CharString>
        <CharString name="semicolon">
          -282 -100 230 156 136 hstem
          42 135 vstem
          109 130 -84 callgsubr
          13 6 vhcurveto
          53 124 2 11 11 vvcurveto
          37 -31 30 -37 vhcurveto
          6 292 rmoveto
          -29 callsubr
        </CharString>
        <CharString name="seven">
          -8 16 -21 499 237 -114 114 hstemhm
          17 -46 callgsubr
          hintmask 11011000
          486 690 rmoveto
          20 -32 21 -25 vhcurveto
          -355 hlineto
          -29 -28 -21 -20 hvcurveto
          -154 vlineto
          -24 29 -18 35 34 32 18 24 vhcurveto
          hintmask 10111000
          81 209 -66 vlineto
          -261 -468 rlineto
          -5 -8 -1 -7 -8 vvcurveto
          -37 41 -28 41 17 13 6 13 7 vhcurveto
          253 486 rlineto
          12 24 13 31 21 vvcurveto
          endchar
        </CharString>
        <CharString name="seveneighths">
          283 17 callgsubr
          79 69 194 137 -75 75 40 -20 hstemhm
          22 86 372 -23 callsubr
          hintmask 1111101101100000
          623 400 -36 callsubr
          hintmask 1111101110010000
          -78 callgsubr
          hintmask 1111101110100000
          -94 callgsubr
          -94 -47 callsubr
          -222 -66 -7 callgsubr
          hintmask 1111011110100000
          -38 callgsubr
        </CharString>
        <CharString name="seveninferior">
          -192 18 -21 265 138 -75 75 hstemhm
          16 86 hintmask 11010000
          301 373 rmoveto
          13 -21 14 -17 vhcurveto
          -209 hlineto
          -19 -19 -14 -13 hvcurveto
          -84 vlineto
          -15 19 -12 24 22 21 12 15 vhcurveto
          hintmask 10110000
          36 113 -38 vlineto
          -150 -233 rlineto
          -2 -4 -1 -5 -5 vvcurveto
          -25 27 -18 27 12 9 3 8 4 vhcurveto
          143 245 rlineto
          9 15 8 22 15 vvcurveto
          endchar
        </CharString>
        <CharString name="sevensuperior">
          -192 349 -21 266 137 -75 75 hstemhm
          16 86 hintmask 11010000
          301 705 -7 callgsubr
          hintmask 10110000
          -38 callgsubr
        </CharString>
        <CharString name="six">
          43 -6 106 242 102 50 237 -114 114 hstemhm
          46 129 210 130 hintmask 11011100
          308 444 rmoveto
          -52 -48 -12 -39 -33 hvcurveto
          109 vlineto
          79 41 36 68 55 47 -27 -47 vhcurveto
          hintmask 11101100
          -39 32 -10 36 41 20 13 41 84 -68 99 -160 -136 -105 -20 callgsubr
          vhcurveto
          -47 callgsubr
          103 -62 132 132 102 62 167 vhcurveto
          14 vlineto
          158 -94 49 -113 vhcurveto
          -133 -207 rmoveto
          76 42 29 63 66 39 -31 -83 vhcurveto
          -13 vlineto
          -79 -39 -36 -65 -66 -40 36 79 vhcurveto
          endchar
        </CharString>
        <CharString name="sixinferior">
          -162 -3 69 114 66 16 138 31 callsubr
          246 rmoveto
          -29 -27 -5 -19 15 callsubr
          -6 23 28 12 9 26 45 16 callgsubr
          34 94 3 callsubr
          -6 vlineto
          -37 -20 -16 -36 -36 -20 16 38 vhcurveto
          endchar
        </CharString>
        <CharString name="sixsuperior">
          -162 328 69 114 66 17 137 31 callsubr
          577 rmoveto
          -29 -27 -4 -20 15 callsubr
          -5 23 28 12 8 27 44 16 callgsubr
          35 93 3 callsubr
          -5 vlineto
          -37 -20 -17 -36 -36 -20 17 37 vhcurveto
          endchar
        </CharString>
        <CharString name="slash">
          -22 -19 -21 811 -20 hstem
          417 24 callgsubr
          -359 -729 rlineto
          -3 -5 -2 -6 -6 vvcurveto
          -21 19 -23 29 16 16 8 14 7 vhcurveto
          359 726 33 callgsubr
          endchar
        </CharString>
        <CharString name="space">
          -306 endchar
        </CharString>
        <CharString name="sterling">
          35 7 callsubr
          252 94 195 113 hstem
          470 114 rmoveto
          -229 hlineto
          36 252 rlineto
          133 hlineto
          22 11 23 24 23 -11 24 -22 hvcurveto
          -120 hlineto
          14 95 rlineto
          56 8 40 44 73 hhcurveto
          40 hlineto
          28 16 29 28 27 -16 29 -28 hvcurveto
          -35 hlineto
          -123 -114 -89 -124 -18 hvcurveto
          -14 -95 rlineto
          -69 hlineto
          -21 -12 -24 -23 -24 12 -23 21 hvcurveto
          56 hlineto
          -35 -252 rlineto
          -53 hlineto
          -26 -13 -28 -29 -28 13 -29 26 hvcurveto
          410 hlineto
          -44 callsubr
          endchar
        </CharString>
        <CharString name="summation">
          13 -227 114 730 114 hstem
          241 252 rmoveto
          -203 -376 rlineto
          -7 -13 -8 -21 -20 vvcurveto
          -25 14 -24 41 vhcurveto
          377 hlineto
          26 15 30 27 27 -15 30 -26 hvcurveto
          -272 hlineto
          148 268 rlineto
          22 39 17 30 28 vvcurveto
          28 -17 30 -22 39 vhcurveto
          -148 268 rlineto
          272 hlineto
          26 15 30 27 27 -15 30 -26 hvcurveto
          -377 hlineto
          -41 -14 -24 -25 -20 8 -21 7 -13 hvcurveto
          endchar
        </CharString>
        <CharString name="t">
          -159 0 109 272 94 212 -20 hstem
          49 -7 callsubr
          178 381 rmoveto
          118 hlineto
          21 12 23 24 23 -12 24 -21 hvcurveto
          -118 172 hlineto
          24 -32 16 -33 -30 -34 -16 -24 vhcurveto
          -485 vlineto
          -113 65 -49 120 vhcurveto
          39 hlineto
          37 18 27 28 27 -18 27 -37 hvcurveto
          -39 hlineto
          -42 -14 14 39 hvcurveto
          endchar
        </CharString>
        <CharString name="tbar">
          -158 0 109 105 94 73 94 212 -20 hstem
          49 -7 callsubr
          178 381 rmoveto
          118 hlineto
          21 12 23 24 23 -12 24 -21 hvcurveto
          -118 172 hlineto
          24 -32 16 -33 -30 -34 -16 -24 vhcurveto
          -485 vlineto
          -113 65 -49 120 vhcurveto
          39 hlineto
          37 18 27 28 27 -18 27 -37 hvcurveto
          -39 hlineto
          -42 -14 14 39 hvcurveto
          52 118 vlineto
          21 12 22 25 23 -12 24 -21 hvcurveto
          -118 hlineto
          endchar
        </CharString>
        <CharString name="tcaron">
          -159 0 109 272 94 57 230 hstem
          49 129 42 135 vstem
          287 762 -86 callsubr
          -109 -381 rmoveto
          118 hlineto
          21 12 23 24 23 -12 24 -21 hvcurveto
          -118 172 hlineto
          24 -32 16 -33 -30 -34 -16 -24 vhcurveto
          -485 vlineto
          -113 65 -49 120 vhcurveto
          39 hlineto
          37 18 27 28 27 -18 27 -37 hvcurveto
          -39 hlineto
          -42 -14 14 39 hvcurveto
          endchar
        </CharString>
        <CharString name="tcommaaccent">
          -159 -173 -21 194 109 272 94 212 -20 hstemhm
          49 129 -111 202 hintmask 11110100
          251 -105 callgsubr
          hintmask 11111000
          57 571 rmoveto
          118 hlineto
          21 12 23 24 23 -12 24 -21 hvcurveto
          -118 172 hlineto
          24 -32 16 -33 -30 -34 -16 -24 vhcurveto
          -485 vlineto
          -113 65 -49 120 vhcurveto
          39 hlineto
          37 18 27 28 27 -18 27 -37 hvcurveto
          -39 hlineto
          -42 -14 14 39 hvcurveto
          endchar
        </CharString>
        <CharString name="thorn">
          14 -200 -21 212 -67 callgsubr
          271 -20 hstem
          52 129 177 -7 callsubr
          113 752 rmoveto
          -34 -27 -20 callsubr
          -892 -12 callgsubr
          111 -79 92 -100 -60 -46 -37 -39 -21 vhcurveto
          307 vlineto
          24 -29 16 -39 vhcurveto
          245 -556 32 callgsubr
          37 callsubr
        </CharString>
        <CharString name="three">
          15 -6 114 -114 233 103 102 69 230 -113 113 hstemhm
          20 129 -113 129 177 124 -106 130 hintmask 1011010100000000
          253 108 rmoveto
          -64 -40 28 45 hvcurveto
          hintmask 0111010010000000
          32 -14 14 -53 -45 -17 -11 -40 -81 66 -101 164 132 108 61 161 vhcurveto
          19 vlineto
          83 -43 45 -59 23 vhcurveto
          hintmask 1011001100000000
          49 23 29 64 79 vvcurveto
          133 -90 46 -121 -169 -50 -103 -71 -42 9 -14 58 48 14 20 30 vhcurveto
          hintmask 1010110100000000
          40 24 27 65 54 34 -22 -66 -86 -42 -12 -50 -29 -10 -26 -25 -26 10 -25 29 vhcurveto
          hintmask 1011010010000000
          64 46 -21 -74 hvcurveto
          -19 vlineto
          -76 -32 -32 -75 vhcurveto
          endchar
        </CharString>
        <CharString name="threeeighths">
          284 17 callgsubr
          76 6 callgsubr
          40 -20 hstemhm
          23 -23 callgsubr
          174 -23 callsubr
          hintmask 111101101110010100000000
          164 30 callgsubr
          hintmask 111011101100110100000000
          -48 callgsubr
          hintmask 111101101101010100000000
          -56 callgsubr
          -43 -26 5 -8 39 32 8 12 19 vhcurveto
          hintmask 111101011101010100000000
          21 15 7 33 27 20 -8 -13 callsubr
          hintmask 111101101110001100000000
          -41 callgsubr
          460 -3 -36 callsubr
          hintmask 111101101110010010000000
          -78 callgsubr
          hintmask 111101101110010100000000
          -94 callgsubr
          -44 -47 callsubr
          endchar
        </CharString>
        <CharString name="threeinferior">
          -177 -3 75 -75 134 43 67 27 132 -74 74 hstemhm
          20 -23 callgsubr
          hintmask 1011011000000000
          161 38 callsubr
          hintmask 0111010010000000
          -49 callsubr
          hintmask 1011010100000000
          -56 callgsubr
          -44 -26 5 -7 39 32 8 12 18 vhcurveto
          hintmask 1010110100000000
          21 15 7 33 27 20 -7 -13 callsubr
          hintmask 0111011000000000
          -24 callgsubr
          hintmask 1011011000000000
          -35 -16 -13 -42 vhcurveto
          endchar
        </CharString>
        <CharString name="threequarters">
          293 -19 -21 40 163 -79 79 -79 143 101 6 callgsubr
          40 -20 hstemhm
          28 -23 callgsubr
          328 87 -87 139 hintmask 1100101101110010
          169 30 callgsubr
          hintmask 1100011101100110
          -48 callgsubr
          hintmask 1100101101101010
          -56 callgsubr
          -43 -26 5 -8 39 32 8 12 19 vhcurveto
          hintmask 1100101011101010
          21 15 7 33 27 20 -8 -13 callsubr
          hintmask 1100101101110010
          -41 callgsubr
          471 -377 10 callgsubr
          hintmask 1010101101110010
          58 26 vlineto
          hintmask 1100101101110001
          24 callsubr
          hintmask 1100101101110010
          -26 38 hlineto
          hintmask 1001101101110010
          -4 callgsubr
          hintmask 1100101101110010
          -67 callsubr
          hintmask 1010101101110010
          -20 18 callgsubr
          -35 687 -98 callgsubr
        </CharString>
        <CharString name="threesuperior">
          -177 328 6 callgsubr
          hstemhm
          20 -23 callgsubr
          hintmask 1011011000000000
          161 30 callgsubr
          hintmask 0111010010000000
          -48 callgsubr
          hintmask 1011010100000000
          -56 callgsubr
          -43 -26 5 -8 39 32 8 12 19 vhcurveto
          hintmask 1010110100000000
          21 15 7 33 27 20 -8 -13 callsubr
          hintmask 1011011000000000
          -41 callgsubr
          endchar
        </CharString>
        <CharString name="tilde">
          -164 588 13 callsubr
          hintmask 01000000
          115 617 rmoveto
          hintmask 10000000
          -91 callsubr
          hintmask 01000000
          -91 callgsubr
          endchar
        </CharString>
        <CharString name="trademark">
          167 496 -21 227 66 hstemhm
          40 166 -72 72 -72 166 20 71 156 71 hintmask 11100110
          62 768 rmoveto
          -16 -6 -17 -16 -17 8 -16 14 hvcurveto
          hintmask 11010110
          72 -203 hlineto
          -16 18 -8 19 17 18 8 16 vhcurveto
          203 72 vlineto
          hintmask 11001110
          14 8 16 17 16 -6 17 -16 hvcurveto
          269 -146 rmoveto
          -123 vlineto
          -16 18 -8 18 17 18 8 16 vhcurveto
          233 vlineto
          26 -17 10 -18 -26 -12 -5 -34 -17 vhcurveto
          -59 -122 -59 122 rlineto
          34 -17 -12 5 -26 hhcurveto
          -17 -18 -10 -26 hvcurveto
          -233 vlineto
          -16 18 -8 17 18 18 8 16 vhcurveto
          127 vlineto
          54 -118 rlineto
          -12 6 8 -3 9 hhcurveto
          9 9 4 11 6 hvcurveto
          endchar
        </CharString>
        <CharString name="two">
          1 7 callsubr
          363 -20 156 118 hstemhm
          27 140 -127 127 182 130 hintmask 11110100
          40 547 rmoveto
          -54 25 -16 34 43 25 24 24 62 40 26 49 66 27 -48 -41 vhcurveto
          -141 -322 -85 -160 vvcurveto
          -97 vlineto
          -25 34 -16 23 vhcurveto
          356 hlineto
          22 19 28 30 30 -19 26 -22 hvcurveto
          -278 24 hlineto
          104 317 70 216 vvcurveto
          127 -108 76 -116 vhcurveto
          hintmask 11101100
          -111 -104 -70 -114 hvcurveto
          endchar
        </CharString>
        <CharString name="twoinferior">
          -184 0 75 175 150 -78 78 hstemhm
          24 92 96 86 hintmask 11011000
          31 37 callgsubr
          vhcurveto
          hintmask 10111000
          -54 callsubr
          endchar
        </CharString>
        <CharString name="twosuperior">
          -184 331 75 176 149 -77 77 hstemhm
          24 92 96 86 hintmask 11011000
          31 626 42 callsubr
          hintmask 10111000
          -54 callgsubr
          endchar
        </CharString>
        <CharString name="twothirds">
          276 -19 -21 37 75 -75 134 43 67 27 132 -69 69 182 149 -77 77 40 -20 hstemhm
          26 92 96 86 175 -23 callgsubr
          hintmask 1101101011111000
          616 38 callsubr
          hintmask 1011101011110010
          -49 callsubr
          hintmask 1101101011110100
          -56 callgsubr
          -44 -26 5 -7 39 32 8 12 18 21 15 7 33 27 20 -7 -13 callsubr
          hintmask 1011101011111000
          -24 callgsubr
          hintmask 1101101011111000
          -35 -16 -13 -42 vhcurveto
          -583 554 42 callsubr
          hintmask 1101010111111000
          -54 callgsubr
          549 145 -98 callgsubr
        </CharString>
        <CharString name="u">
          -40 callgsubr
          22 callgsubr
          262 -9 rmoveto
          -53 callgsubr
        </CharString>
        <CharString name="u.ss04">
          22 -9 113 -83 2 callsubr
          hstemhm
          46 129 174 129 hintmask 10111000
          221 -9 rmoveto
          63 53 38 41 20 hvcurveto
          -29 vlineto
          hintmask 01111000
          -21 26 -20 32 36 27 20 21 vhcurveto
          393 vlineto
          24 -27 17 -36 -37 -29 -17 -24 vhcurveto
          -248 vlineto
          hintmask 10111000
          -33 -40 -49 -47 -48 -39 46 46 vhcurveto
          238 vlineto
          25 -27 16 -36 -37 -29 -16 -25 vhcurveto
          -238 vlineto
          -108 81 -97 94 vhcurveto
          endchar
        </CharString>
        <CharString name="uacute">
          -40 callgsubr
          259 -20 hstemhm
          45 129 -2 202 -25 129 hintmask 11101000
          356 635 rmoveto
          -107 callsubr
          36 -581 rmoveto
          hintmask 11110100
          -53 callgsubr
        </CharString>
        <CharString name="ubreve">
          -40 callgsubr
          133 -15 callgsubr
          45 129 -44 70 149 129 hintmask 11011010
          262 -9 rmoveto
          -104 callsubr
          64 730 rmoveto
          hintmask 11101010
          -33 callgsubr
          hintmask 11010110
          -90 callsubr
        </CharString>
        <CharString name="ucircumflex">
          18 -9 113 371 101 138 -20 22 callgsubr
          263 635 -107 callgsubr
          103 -588 rmoveto
          -53 callgsubr
        </CharString>
        <CharString name="udieresis">
          -40 callgsubr
          122 105 hstemhm
          45 129 -37 101 48 102 -39 129 hintmask 11101100
          188 682 rmoveto
          -104 callgsubr
          -76 -691 rmoveto
          hintmask 11110010
          -53 callgsubr
        </CharString>
        <CharString name="ugrave">
          -40 callgsubr
          259 -20 hstemhm
          45 129 -26 202 -1 129 hintmask 11110100
          262 -9 rmoveto
          -104 callsubr
          34 581 -68 callsubr
          hintmask 11101000
          -103 callsubr
        </CharString>
        <CharString name="uhungarumlaut">
          -40 callgsubr
          111 150 22 callgsubr
          262 -9 rmoveto
          -104 callsubr
          16 670 -98 callsubr
          endchar
        </CharString>
        <CharString name="umacron">
          -40 callgsubr
          155 85 22 callgsubr
          262 -9 rmoveto
          -104 callsubr
          -141 661 rmoveto
          -95 callsubr
          endchar
        </CharString>
        <CharString name="underscore">
          -190 -107 107 hstem
          -42 -54 -73 callsubr
        </CharString>
        <CharString name="uni00A0">
          -306 endchar
        </CharString>
        <CharString name="uni00AD">
          -33 187 107 hstem
          36 240 -73 callsubr
        </CharString>
        <CharString name="uogonek">
          18 -213 55 149 113 371 -20 hstem
          45 129 29 13 callgsubr
          0 -7 callsubr
          326 -158 rmoveto
          -50 callgsubr
          78 31 56 74 82 vvcurveto
          241 vlineto
          21 -26 19 -38 -35 -30 -19 -21 vhcurveto
          -241 vlineto
          -46 -38 -44 -49 -49 -39 45 45 vhcurveto
          240 vlineto
          20 -30 21 -34 -36 -29 -21 -20 vhcurveto
          -240 vlineto
          -105 93 -93 115 -5 vhcurveto
          -32 -33 -18 -41 -40 -72 callsubr
          endchar
        </CharString>
        <CharString name="uring">
          -40 callgsubr
          114 52 93 55 hstemhm
          45 129 -11 51 91 54 -10 129 hintmask 11110110
          260 769 rmoveto
          -83 callsubr
          -43 -678 rmoveto
          hintmask 11111001
          -53 callgsubr
        </CharString>
        <CharString name="utilde">
          -40 callgsubr
          133 13 callsubr
          45 129 175 129 hintmask 11011100
          262 -9 rmoveto
          -104 callsubr
          -56 626 rmoveto
          hintmask 11101100
          -91 callsubr
          hintmask 11011100
          -91 callgsubr
          endchar
        </CharString>
        <CharString name="v">
          -25 10 -21 492 -20 hstem
          183 12 rmoveto
          -16 7 25 -7 26 hhcurveto
          25 27 8 15 7 hvcurveto
          171 396 rlineto
          3 6 1 5 6 vvcurveto
          31 -59 25 -27 -18 -13 -8 -16 -6 vhcurveto
          -111 -288 -111 290 rlineto
          15 -6 -15 7 -17 hhcurveto
          -33 -53 -25 -30 -5 2 -9 3 -4 hvcurveto
          endchar
        </CharString>
        <CharString name="w">
          -1 callgsubr
          hstem
          682 408 -101 callgsubr
          endchar
        </CharString>
        <CharString name="wacute">
          -1 callgsubr
          254 -20 hstem
          269 202 vstem
          453 635 rmoveto
          -107 callsubr
          359 -164 -101 callgsubr
          endchar
        </CharString>
        <CharString name="wcircumflex">
          -1 callgsubr
          254 -20 hstem
          348 635 -107 callgsubr
          438 -171 -101 callgsubr
          endchar
        </CharString>
        <CharString name="wdieresis">
          -1 callgsubr
          117 105 hstem
          222 101 48 102 vstem
          273 682 rmoveto
          -104 callgsubr
          259 -274 -101 callgsubr
          endchar
        </CharString>
        <CharString name="wgrave">
          -1 callgsubr
          254 -20 hstem
          222 202 vstem
          682 408 -101 callgsubr
          -158 560 -68 callsubr
          -103 callsubr
        </CharString>
        <CharString name="x">
          -36 12 -21 490 -20 hstem
          21 55 rmoveto
          -30 55 -34 27 10 15 4 10 7 vhcurveto
          100 152 101 -152 rlineto
          -10 7 13 -4 10 hhcurveto
          34 50 36 28 9 -4 9 -4 4 hvcurveto
          -119 164 111 154 rlineto
          5 8 3 6 7 vvcurveto
          30 -54 35 -31 -9 -14 -4 -11 -7 vhcurveto
          -92 -145 -91 146 rlineto
          13 -8 -15 1 -6 hhcurveto
          -34 -52 -35 -30 -8 5 -9 3 -4 hvcurveto
          110 -153 -118 -165 rlineto
          -5 -6 -3 -8 -8 vvcurveto
          endchar
        </CharString>
        <CharString name="y">
          -30 3 callgsubr
          594 -20 hstem
          -97 callgsubr
          endchar
        </CharString>
        <CharString name="yacute">
          -30 3 callgsubr
          826 -20 hstem
          182 196 vstem
          -97 callgsubr
          350 232 -38 callsubr
        </CharString>
        <CharString name="ycircumflex">
          -30 3 callgsubr
          594 94 138 -20 hstem
          -97 callgsubr
          240 232 -94 callsubr
        </CharString>
        <CharString name="ydieresis">
          -30 3 callgsubr
          689 105 hstem
          123 101 48 102 vstem
          -97 callgsubr
          164 279 rmoveto
          -104 callgsubr
          endchar
        </CharString>
</ttFont>
